<svg xmlns="http://www.w3.org/2000/svg" xmlns:xlink="http://www.w3.org/1999/xlink" id="Layer_1" x="0px" y="0px" viewBox="0 0 100 100" style="enable-background:new 0 0 100 100;" xml:space="preserve"><style type="text/css">	.st0{fill:#34ADE3;}</style><g>	<g>		<path class="st0" d="M48.83,92.96c-2.06,0.11-4.39-0.31-6.72-0.88C23.99,87.69,9.11,69.36,9.47,51.83   c0.11-5.46,1.73-10.55,4.68-15.09c5.19-7.98,11.09-15.42,18.05-21.97c7.54-7.09,16.86-7.75,25.1-1.29   c11.1,8.71,21.97,17.71,32.79,26.76c5.44,4.55,5.84,9.66,1.51,15.22c-8.13,10.4-16.21,20.86-25.33,30.44   C61.06,91.37,56.72,93.02,48.83,92.96z M62.8,74.4c-1.31-0.07-2.44-0.1-3.57-0.2c-11.75-1.08-19.04-9.1-18.5-20.78   c0.44-9.35,4.94-16.88,11.52-23.32c4.08-4,3.71-5.43-1.82-7.12c-1.12-0.34-2.33-0.46-3.51-0.49c-8.22-0.2-13.44,4.82-18.05,10.62   c-14.39,18.11-8.4,40.28,12.56,46.85C49.95,82.63,58.36,80.53,62.8,74.4z M62.58,65.5c0.52-0.06,1.6-0.04,2.59-0.33   c8.01-2.34,12.42-8.83,17.17-14.9c1.1-1.4-0.32-2.14-1.17-2.86c-5-4.22-10.06-8.37-15.02-12.63c-1.31-1.13-2.26-1.65-3.73-0.21   c-4.92,4.83-9.52,9.89-11.38,16.73C49.02,58.72,54.43,65.59,62.58,65.5z"></path>	</g></g></svg>