<svg xmlns="http://www.w3.org/2000/svg" xmlns:xlink="http://www.w3.org/1999/xlink" id="Layer_1" x="0px" y="0px" viewBox="0 0 100 100" style="enable-background:new 0 0 100 100;" xml:space="preserve"><style type="text/css">	.st0{fill:#FFFEFE;}	.st1{fill:#F26538;}	.st2{fill:#F26337;}	.st3{fill:#F26336;}	.st4{fill:#F26437;}</style><g>	<path class="st0" d="M35.18,54.6l-0.03,0.01l0.04,0c-0.08,0.17-0.05,0.32,0.11,0.43c0.01,0.06,0.01,0.13,0.04,0.18  c4.62,7.8,9.89,15.09,16.76,21.09c3.47,3.03,7.26,5.56,11.84,6.62c4.83,1.11,9.12,0.15,12.71-3.41c0.44-0.43,0.52-0.65-0.19-0.9  c-7.87-2.81-15.27-6.62-22.45-10.86c-6.5-3.84-12.65-8.18-18.57-12.85C35.37,54.79,35.27,54.69,35.18,54.6z M31.88,49.84  c-0.18-0.17-0.35-0.05-0.49,0.04c-6.16,3.59-11.97,7.65-16.74,13.02c-2.02,2.28-3.69,4.79-4.6,7.74c-1.02,3.3-0.72,6.41,1.4,9.22  c1.1,1.46,2.46,2.64,4.12,3.46c3.13-12.36,8.86-23.34,16.3-33.49c0.01-0.05,0.02-0.1,0.02-0.15c-0.02,0.01-0.05,0.02-0.07,0.04  C31.83,49.76,31.85,49.8,31.88,49.84z M39.98,56.29c0.1,0.06,0.2,0.13,0.31,0.18c8.98,3.6,18.17,6.36,27.89,6.99  c4.63,0.3,9.21-0.01,13.57-1.77c4.27-1.73,7.46-4.56,8.84-9.1c0.18-0.58,0.59-1.35,0.22-1.74c-0.33-0.36-1.07,0.15-1.62,0.29  c-14,3.54-28.24,5.08-42.66,5.16C44.35,56.3,42.17,56.29,39.98,56.29z M32.72,52.33c-0.1,0.15-0.15,0.2-0.16,0.25  c-2.34,7.79-3.89,15.69-3.49,23.88c0.14,2.88,0.69,5.69,1.82,8.37c2.3,5.48,7.12,8.36,12.54,7.52c0.63-0.1,0.7-0.24,0.41-0.78  c-1.11-2.06-2.04-4.22-2.93-6.38C36.6,74.67,33.89,63.75,32.72,52.33z M54.16,53.67c0.09,0,0.18,0.03,0.27,0.01  c6.21-1.08,12.33-2.52,18.31-4.53c4.92-1.65,9.76-3.52,14.11-6.41c3.67-2.43,6.73-5.43,8.44-9.59c0.34-0.83,0.67-1.68,0.67-2.94  C83.13,40.32,68.59,46.89,54.16,53.67z M2.55,57.23c9.31-5.3,19.34-7.97,29.94-9.68c-2.73-0.91-5.24-1.61-7.8-2.11  c-4.5-0.89-9.03-1.48-13.61-0.63c-3.03,0.56-5.66,1.76-7.15,4.69C2.72,51.9,2.39,54.47,2.55,57.23z M36.17,48.93  c-0.28-1.39-0.51-2.79-0.84-4.16c-0.92-3.86-2.14-7.61-4.47-10.89c-1.41-1.99-3.15-3.58-5.62-4.12c-3.89-0.85-7.26,0.52-10.64,2.57  C23.33,35.99,30.18,41.81,36.17,48.93z M39.32,31.04c0.65,6.67,0.38,13.23-1.41,19.69c0.12-0.01,0.2,0,0.24-0.03  c2.82-2.6,5.31-5.45,6.56-9.15C46.15,37.25,43.69,32.49,39.32,31.04z"></path>	<path class="st1" d="M68.52,44.22c1.78-2.13,3.54-4.27,5.34-6.39c8.15-9.54,15.81-19.46,23.11-29.67c0.16-0.22,0.34-0.43,0.52-0.65  c0,0.31,0,0.62,0,0.93c-0.66,2.56-1.56,5.03-2.61,7.47c-3.1,7.18-7.96,13.01-13.69,18.2c-3.8,3.45-7.76,6.69-11.88,9.75  c-0.22,0.16-0.46,0.3-0.7,0.45C68.58,44.28,68.55,44.25,68.52,44.22z"></path>	<path class="st2" d="M39.98,56.29c2.18,0,4.36,0.01,6.55,0c14.42-0.07,28.66-1.62,42.66-5.16c0.55-0.14,1.29-0.65,1.62-0.29  c0.36,0.39-0.05,1.16-0.22,1.74c-1.38,4.55-4.57,7.37-8.84,9.1c-4.36,1.77-8.94,2.07-13.57,1.77c-9.72-0.63-18.91-3.39-27.89-6.99  C40.18,56.42,40.08,56.34,39.98,56.29z"></path>	<path class="st2" d="M35.46,54.89c5.92,4.67,12.08,9.01,18.57,12.85c7.18,4.24,14.58,8.05,22.45,10.86c0.7,0.25,0.62,0.47,0.19,0.9  c-3.59,3.57-7.88,4.52-12.71,3.41c-4.58-1.05-8.37-3.59-11.84-6.62c-6.87-6-12.14-13.29-16.76-21.09  c-0.03-0.05-0.03-0.12-0.04-0.18C35.36,54.98,35.41,54.94,35.46,54.89z"></path>	<path class="st3" d="M32.72,52.33c1.17,11.42,3.88,22.34,8.19,32.85c0.89,2.17,1.82,4.32,2.93,6.38c0.29,0.54,0.22,0.68-0.41,0.78  C38,93.18,33.18,90.3,30.88,84.82c-1.12-2.68-1.68-5.49-1.82-8.37c-0.4-8.18,1.15-16.09,3.49-23.88  C32.57,52.53,32.62,52.48,32.72,52.33z"></path>	<path class="st2" d="M31.85,49.83c-7.44,10.14-13.17,21.12-16.3,33.48c-1.66-0.82-3.02-2-4.12-3.46c-2.12-2.81-2.42-5.92-1.4-9.22  c0.91-2.95,2.58-5.46,4.6-7.74c4.77-5.37,10.58-9.42,16.74-13.02c0.15-0.09,0.31-0.22,0.49-0.04L31.85,49.83z"></path>	<path class="st4" d="M54.16,53.67c14.43-6.79,28.98-13.35,41.81-23.46c0,1.26-0.33,2.11-0.67,2.94c-1.71,4.16-4.78,7.16-8.44,9.59  c-4.36,2.89-9.19,4.76-14.11,6.41c-5.98,2.01-12.1,3.45-18.31,4.53C54.34,53.7,54.25,53.68,54.16,53.67z"></path>	<path class="st4" d="M2.55,57.23c-0.16-2.76,0.17-5.32,1.38-7.73c1.48-2.93,4.12-4.13,7.15-4.69c4.58-0.85,9.11-0.26,13.61,0.63  c2.56,0.51,5.07,1.2,7.8,2.11C21.89,49.26,11.86,51.92,2.55,57.23z"></path>	<path class="st4" d="M36.17,48.93c-5.99-7.13-12.84-12.94-21.57-16.6c3.38-2.05,6.75-3.42,10.64-2.57  c2.47,0.54,4.21,2.13,5.62,4.12c2.33,3.28,3.55,7.03,4.47,10.89C35.66,46.15,35.89,47.54,36.17,48.93z"></path>	<path class="st4" d="M39.32,31.04c4.37,1.45,6.83,6.21,5.39,10.5c-1.24,3.71-3.74,6.55-6.56,9.15c-0.04,0.03-0.11,0.02-0.24,0.03  C39.7,44.27,39.97,37.71,39.32,31.04z"></path>	<path class="st2" d="M35.31,55.03c-0.16-0.11-0.19-0.25-0.11-0.43l-0.02-0.01c0.09,0.1,0.19,0.2,0.28,0.29  C35.41,54.94,35.36,54.98,35.31,55.03z"></path>	<path class="st1" d="M68.61,44.31c-0.07,0.03-0.19,0.09-0.19,0.08c-0.06-0.11,0.01-0.14,0.1-0.17  C68.55,44.25,68.58,44.28,68.61,44.31z"></path>	<path class="st2" d="M31.88,49.84c-0.02-0.04-0.05-0.08-0.07-0.12c0.02-0.01,0.05-0.02,0.07-0.04c-0.01,0.05-0.02,0.1-0.02,0.15  C31.85,49.83,31.88,49.84,31.88,49.84z"></path>	<polygon class="st2" points="35.2,54.61 35.15,54.61 35.18,54.59  "></polygon></g></svg>