<svg xmlns="http://www.w3.org/2000/svg" xmlns:xlink="http://www.w3.org/1999/xlink" id="Layer_1" x="0px" y="0px" viewBox="0 0 100 100" style="enable-background:new 0 0 100 100;" xml:space="preserve"><style type="text/css">	.st0{fill:#D72829;}	.st1{fill:#FEF17E;}	.st2{fill:#D72C28;}	.st3{fill:#D72928;}	.st4{fill:#D72A28;}	.st5{fill:#D62728;}	.st6{fill:#D72E29;}	.st7{fill:#D72D28;}</style><g>	<g>		<path class="st0" d="M3.74,49.92C3.76,24.39,24.55,3.72,50.19,3.75c25.35,0.02,46.09,20.85,46.07,46.27   c-0.01,25.56-20.78,46.27-46.38,46.24C24.41,96.22,3.72,75.44,3.74,49.92z M93.6,49.94c-0.04-24-19.57-43.59-43.43-43.53   C25.83,6.47,6.4,25.82,6.4,50c0,24.24,19.53,43.63,43.9,43.59C74.18,93.56,93.64,73.94,93.6,49.94z"></path>		<path class="st1" d="M93.6,49.94c0.04,24-19.42,43.62-43.3,43.65C25.93,93.63,6.4,74.24,6.4,50c0-24.18,19.43-43.53,43.77-43.59   C74.03,6.35,93.56,25.93,93.6,49.94z M70.99,52.18c2.62,0,2.62,0,2.59-2.67c0-0.14-0.01-0.27,0-0.41c0.05-0.7-0.25-0.97-0.96-0.94   c-1.04,0.05-2.09,0.03-3.13,0c-0.33-0.01-0.81,0.21-0.97-0.22c-0.18-0.46,0.25-0.73,0.57-0.96c0.29-0.21,0.62-0.39,0.95-0.52   c0.86-0.34,1.76-0.42,2.67-0.36c0.78,0.05,1.01-0.42,0.84-1.02c-0.29-1.08,0.88-2.8-0.62-3.21c-3.43-0.95-6.95,0.57-8.85,3.32   c-3.72,5.38-0.61,13.35,5.81,13.37c4.64,0.02,3.51,0.72,3.69-3.47c0.04-0.85-0.28-1.09-1.11-1.07c-1.02,0.03-2.1,0.23-3.04-0.42   c-0.44-0.3-1.08-0.62-0.9-1.21c0.15-0.49,0.8-0.16,1.22-0.21C70.17,52.14,70.58,52.18,70.99,52.18z M81.24,48.17   c0.46-1.12,1.18-1.47,1.95-1.76c0.78-0.29,1.59-0.37,2.41-0.32c0.59,0.03,1.06-0.16,0.9-0.83c-0.28-1.15,0.85-3-0.58-3.35   c-2-0.48-4.24-0.35-6.21,0.77c-3.14,1.79-4.92,6.14-3.98,9.79c1.03,3.99,3.61,5.99,7.88,6.11c2.91,0.08,2.91,0.08,2.9-2.77   c0-2.08,0.11-1.76-1.86-1.78c-0.77-0.01-1.56,0.08-2.23-0.43c-0.42-0.32-1.07-0.63-0.88-1.22c0.15-0.48,0.8-0.16,1.23-0.22   c0.27-0.04,0.54-0.01,0.82-0.01c3.07,0,3.04,0,2.94-3.02c-0.03-0.8-0.31-1.01-1.05-0.99C84.14,48.2,82.79,48.17,81.24,48.17z    M13.61,52.02c0,1.22,0,2.45,0,3.67c0,2.91,0,2.91,2.92,2.91c2.44,0,2.43,0,2.45-2.41c0.01-1.08-0.33-2.46,0.2-3.16   c0.58-0.77,2.04-0.16,3.1-0.27c0.09-0.01,0.18,0.01,0.27,0c1.84-0.33,0.64-1.74,0.84-2.62c0.13-0.57,0.64-1.78-0.86-1.75   c-0.86,0.01-1.72,0.02-2.58-0.01c-0.32-0.01-0.78,0.2-0.93-0.3c-0.13-0.47,0.02-0.9,0.39-1.23c0.32-0.28,0.74-0.31,1.14-0.39   c0.94-0.19,2.24,0.55,2.76-0.38c0.43-0.77,0.12-1.95,0.14-2.94c0-0.14-0.01-0.27,0-0.41c0.06-0.68-0.2-0.98-0.93-0.96   c-1.36,0.05-2.72-0.03-4.08,0.05c-2.86,0.16-4.77,2.16-4.83,5.02C13.58,48.57,13.61,50.29,13.61,52.02z M41.91,52.58   c0,0.68-0.03,1.36,0.01,2.04c0.06,1.26-0.54,2.88,0.23,3.68c0.83,0.87,2.49,0.15,3.78,0.31c1.1,0.14,1.39-0.3,1.37-1.36   c-0.06-3.21-0.03-6.43-0.02-9.65c0-0.52-0.18-1.12,0.71-1.16c0.66-0.02,1.57,0.36,1.91-0.21c0.33-0.54,0.14-1.4,0.16-2.12   c0.02-0.45-0.04-0.91,0.01-1.36c0.09-0.79-0.25-1-1-0.99c-2.26,0.04-4.53,0.01-6.79,0.01c-3.19,0-3.13,0-3.22,3.13   c-0.03,1.23,0.29,1.78,1.55,1.54c1.13-0.21,1.37,0.34,1.32,1.37C41.85,49.41,41.91,51,41.91,52.58z M59.84,48.31   c0-1.81-0.04-3.62,0.02-5.43c0.02-0.81-0.2-1.16-1.06-1.1c-0.95,0.06-1.91,0.09-2.85-0.01c-1.14-0.11-1.46,0.29-1.43,1.43   c0.07,2.98,0.03,5.97,0,8.96c-0.01,0.67,0,1.35-1,1.47c-0.9,0.11-2.14-0.5-2.62,0.39c-0.4,0.74-0.11,1.85-0.12,2.8   c0,0.27,0.02,0.55-0.01,0.81c-0.06,0.67,0.15,1.02,0.9,0.98c1.17-0.07,2.36-0.01,3.52-0.12c2.95-0.29,4.62-2.17,4.64-5.15   C59.85,51.66,59.84,49.98,59.84,48.31z M30.38,50.23c0-1.45,0.03-2.89-0.01-4.34c-0.04-1.3,0.56-2.99-0.22-3.8   c-0.85-0.88-2.57-0.15-3.9-0.31c-1.09-0.13-1.26,0.38-1.25,1.33c0.05,3.8-0.01,7.6,0.04,11.39c0.02,1.33-0.62,3.08,0.31,3.89   c0.9,0.77,2.6,0.12,3.95,0.23c0.83,0.07,1.11-0.23,1.09-1.06C30.36,55.11,30.38,52.67,30.38,50.23z M38.03,50.28   c0-1.45,0.04-2.9-0.01-4.34c-0.05-1.34,0.6-3.12-0.27-3.9c-0.91-0.81-2.68-0.18-4.07-0.25c-0.05,0-0.09,0-0.14,0   c-0.64-0.06-0.88,0.21-0.88,0.86c0.02,5.02,0.02,10.04,0,15.06c0,0.74,0.33,0.92,0.99,0.91c1.13-0.03,2.26-0.05,3.39,0.01   c0.8,0.04,1.01-0.27,1-1.02C38.01,55.16,38.03,52.72,38.03,50.28z"></path>		<path class="st2" d="M70.99,52.18c-0.41,0-0.82-0.04-1.22,0.01c-0.42,0.05-1.07-0.28-1.22,0.21c-0.18,0.59,0.46,0.9,0.9,1.21   c0.93,0.65,2.01,0.45,3.04,0.42c0.82-0.03,1.14,0.22,1.11,1.07c-0.18,4.19,0.95,3.49-3.69,3.47c-6.43-0.03-9.54-7.99-5.81-13.37   c1.9-2.75,5.43-4.27,8.85-3.32c1.5,0.41,0.33,2.13,0.62,3.21c0.16,0.6-0.06,1.07-0.84,1.02c-0.91-0.06-1.82,0.02-2.67,0.36   c-0.33,0.13-0.66,0.31-0.95,0.52c-0.32,0.23-0.75,0.5-0.57,0.96c0.16,0.43,0.64,0.21,0.97,0.22c1.04,0.03,2.09,0.04,3.13,0   c0.71-0.03,1.01,0.24,0.96,0.94c-0.01,0.14,0,0.27,0,0.41C73.61,52.18,73.61,52.18,70.99,52.18z"></path>		<path class="st3" d="M81.24,48.17c1.55,0,2.9,0.03,4.24-0.01c0.74-0.02,1.03,0.19,1.05,0.99c0.1,3.02,0.13,3.02-2.94,3.02   c-0.27,0-0.55-0.03-0.82,0.01c-0.42,0.06-1.07-0.26-1.23,0.22c-0.19,0.58,0.46,0.9,0.88,1.22c0.67,0.51,1.46,0.42,2.23,0.43   c1.97,0.02,1.86-0.3,1.86,1.78c0,2.85,0,2.85-2.9,2.77c-4.27-0.12-6.85-2.13-7.88-6.11c-0.94-3.64,0.84-7.99,3.98-9.79   c1.97-1.12,4.2-1.25,6.21-0.77c1.42,0.34,0.3,2.2,0.58,3.35c0.16,0.67-0.3,0.86-0.9,0.83c-0.82-0.05-1.63,0.03-2.41,0.32   C82.42,46.7,81.7,47.06,81.24,48.17z"></path>		<path class="st4" d="M13.61,52.02c0-1.72-0.03-3.45,0.01-5.17c0.06-2.86,1.97-4.86,4.83-5.02c1.36-0.08,2.72,0,4.08-0.05   c0.73-0.03,0.99,0.28,0.93,0.96c-0.01,0.14,0,0.27,0,0.41c-0.02,1,0.29,2.17-0.14,2.94c-0.52,0.94-1.82,0.19-2.76,0.38   c-0.4,0.08-0.82,0.11-1.14,0.39c-0.37,0.33-0.53,0.76-0.39,1.23c0.14,0.5,0.6,0.29,0.93,0.3c0.86,0.03,1.72,0.02,2.58,0.01   c1.49-0.02,0.99,1.18,0.86,1.75c-0.19,0.88,1,2.29-0.84,2.62c-0.09,0.02-0.18-0.01-0.27,0c-1.07,0.11-2.52-0.5-3.1,0.27   c-0.53,0.7-0.19,2.08-0.2,3.16c-0.01,2.41,0,2.41-2.45,2.41c-2.92,0-2.92,0-2.92-2.91C13.61,54.46,13.61,53.24,13.61,52.02z"></path>		<path class="st4" d="M41.91,52.58c0-1.59-0.06-3.17,0.02-4.75c0.05-1.02-0.2-1.58-1.32-1.37c-1.27,0.23-1.59-0.31-1.55-1.54   c0.09-3.13,0.03-3.13,3.22-3.13c2.26,0,4.53,0.03,6.79-0.01c0.75-0.01,1.1,0.2,1,0.99c-0.05,0.45,0,0.91-0.01,1.36   c-0.02,0.72,0.17,1.58-0.16,2.12c-0.35,0.57-1.26,0.19-1.91,0.21c-0.89,0.03-0.71,0.64-0.71,1.16c0,3.22-0.04,6.43,0.02,9.65   c0.02,1.07-0.27,1.5-1.37,1.36c-1.28-0.16-2.94,0.56-3.78-0.31c-0.77-0.8-0.17-2.42-0.23-3.68   C41.88,53.94,41.91,53.26,41.91,52.58z"></path>		<path class="st5" d="M59.84,48.31c0,1.67,0.01,3.35,0,5.02c-0.03,2.98-1.69,4.86-4.64,5.15c-1.17,0.12-2.35,0.05-3.52,0.12   c-0.75,0.04-0.96-0.31-0.9-0.98c0.03-0.27,0-0.54,0.01-0.81c0.01-0.95-0.28-2.06,0.12-2.8c0.48-0.89,1.72-0.28,2.62-0.39   c1-0.12,0.99-0.81,1-1.47c0.03-2.99,0.08-5.97,0-8.96c-0.03-1.13,0.3-1.54,1.43-1.43c0.94,0.09,1.9,0.06,2.85,0.01   c0.86-0.05,1.08,0.29,1.06,1.1C59.8,44.69,59.84,46.5,59.84,48.31z"></path>		<path class="st6" d="M30.38,50.23c0,2.44-0.03,4.88,0.02,7.32c0.02,0.84-0.27,1.13-1.09,1.06c-1.34-0.11-3.05,0.54-3.95-0.23   c-0.94-0.8-0.3-2.55-0.31-3.89c-0.05-3.8,0.01-7.6-0.04-11.39c-0.01-0.95,0.16-1.46,1.25-1.33c1.33,0.16,3.05-0.57,3.9,0.31   c0.78,0.81,0.19,2.5,0.22,3.8C30.41,47.33,30.38,48.78,30.38,50.23z"></path>		<path class="st7" d="M38.03,50.28c0,2.44-0.02,4.88,0.01,7.33c0.01,0.75-0.2,1.06-1,1.02c-1.13-0.06-2.26-0.04-3.39-0.01   c-0.66,0.02-0.99-0.16-0.99-0.91c0.02-5.02,0.02-10.04,0-15.06c0-0.65,0.24-0.92,0.88-0.86c0.04,0,0.09,0,0.14,0   c1.39,0.07,3.16-0.56,4.07,0.25c0.87,0.78,0.22,2.56,0.27,3.9C38.07,47.38,38.03,48.83,38.03,50.28z"></path>	</g></g></svg>