<svg xmlns="http://www.w3.org/2000/svg" xmlns:xlink="http://www.w3.org/1999/xlink" id="Layer_1" x="0px" y="0px" viewBox="0 0 100 100" style="enable-background:new 0 0 100 100;" xml:space="preserve"><style type="text/css">	.st0{fill:#FEFEFE;}	.st1{fill:#383D83;}	.st2{fill:#636098;}	.st3{fill:#706C9F;}	.st4{fill:#393D83;}	.st5{fill:#3A3E83;}	.st6{fill:#393E83;}	.st7{fill:#FCFCFD;}	.st8{fill:#FBFAFC;}	.st9{fill:#F9F9FB;}	.st10{fill:#F3F2F7;}</style><g>	<g>		<path class="st0" d="M4.65,63.6c0-2.15,0-4.3,0-6.45c0.01,0,0.03-0.01,0.04-0.01c0.01,0,0.03,0.01,0.04,0.01c2.95,0,5.91,0,8.86,0   c0.13,0,0.15-0.05,0.15-0.16c0-2.49,0-4.97,0.01-7.46c0-0.15-0.05-0.16-0.18-0.15c-0.42,0.05-0.84,0.05-1.25-0.01   c-0.87-0.13-1.14-0.63-0.79-1.42c0.07-0.17,0.06-0.29-0.11-0.37c-0.16-0.07-0.2-0.2-0.2-0.36c0-0.12,0.01-0.26-0.09-0.34   c-0.13-0.1-0.15-0.24-0.13-0.38c0.02-0.2-0.07-0.25-0.25-0.25c-0.18,0.01-0.37,0.01-0.55,0c-0.2-0.01-0.26-0.08-0.25-0.28   c0.01-0.18,0.06-0.36,0.13-0.53c0.15-0.34,0.31-0.69,0.48-1.03c0.2-0.4,0.34-0.8,0.32-1.26c-0.01-0.22,0.03-0.44,0.07-0.66   c0.23-1.26,0.87-2.26,1.97-2.9c1.76-1.02,3.58-1.06,5.41-0.19c0.66,0.32,1.2,0.81,1.57,1.45c0.59,1.04,0.57,2.13,0.25,3.24   c-0.29,0.99-0.79,1.89-1.4,2.72c-0.04,0.06-0.08,0.12-0.1,0.2c-0.18,0.85-0.16,1.69,0.04,2.53c0.03,0.12,0.07,0.18,0.21,0.16   c0.85-0.09,1.7-0.25,2.52-0.5c2.59-0.77,4.22-2.45,4.8-5.1c0.39-1.81,0.39-3.64,0.01-5.45c-0.54-2.6-2.02-4.42-4.53-5.38   c-1.68-0.64-3.42-0.89-5.2-0.92c-3.91-0.06-7.82-0.01-11.72-0.02c-0.04,0-0.08,0.01-0.12,0.01c-0.01,0-0.03,0-0.04,0   c0-2.39,0-4.78,0-7.18c0-0.14,0.03-0.17,0.17-0.17c30.13,0,60.25,0,90.38,0c0.15,0,0.17,0.04,0.17,0.18c0,16.55,0,33.1,0,49.65   c0,0.14-0.02,0.18-0.17,0.18c-30.13,0-60.25,0-90.38,0c-0.29,0-0.12-0.19-0.16-0.29c0.06-0.04,0.13-0.02,0.2-0.02   c0.86,0,1.73-0.01,2.59,0c0.18,0,0.22-0.04,0.22-0.22c-0.01-2.95,0-5.9,0-8.85c0-0.62,0-1.24,0-1.86c0-0.09,0.01-0.16-0.13-0.16   c-0.95,0.01-1.89,0.01-2.84,0.01C4.68,63.61,4.66,63.61,4.65,63.6z M53.88,57.48c0.03-0.09-0.02-0.15-0.04-0.21   c-2.89-8.14-5.79-16.28-8.68-24.43c-0.05-0.15-0.12-0.2-0.29-0.2c-3.23,0.01-6.46,0.01-9.69,0c-0.17,0-0.23,0.06-0.28,0.21   c-2.92,8.07-5.85,16.15-8.78,24.22c-0.05,0.13-0.09,0.26-0.14,0.4c0.05,0,0.09,0.01,0.12,0.01c3.15,0,6.3,0,9.45,0   c0.14,0,0.18-0.05,0.21-0.17c0.23-0.93,0.46-1.86,0.69-2.79c0.03-0.13,0.09-0.16,0.22-0.16c2.17,0,4.34,0,6.51,0   c0.14,0,0.18,0.05,0.21,0.17c0.23,0.91,0.48,1.83,0.7,2.74c0.04,0.17,0.11,0.22,0.28,0.21c3.1-0.01,6.21,0,9.31,0   C53.76,57.48,53.82,57.48,53.88,57.48z M78.22,45.31c0,4.05,0,8.11,0,12.16c0,0.19,0.03,0.26,0.25,0.26   c5.54-0.01,11.07-0.01,16.61,0c0.19,0,0.25-0.04,0.25-0.24c-0.01-2.09-0.01-4.18,0-6.26c0-0.2-0.05-0.24-0.24-0.24   c-2.58,0.01-5.17,0-7.75,0.01c-0.17,0-0.21-0.04-0.21-0.21c0.01-0.73,0.01-1.46,0-2.19c0-0.18,0.05-0.22,0.22-0.22   c2.26,0.01,4.53,0,6.79,0.01c0.19,0,0.23-0.06,0.23-0.24c-0.01-1.97-0.01-3.93,0-5.9c0-0.18-0.04-0.23-0.23-0.23   c-2.27,0.01-4.54,0-6.81,0.01c-0.16,0-0.2-0.04-0.2-0.2c0.01-0.66,0.01-1.31,0-1.97c0-0.18,0.05-0.23,0.23-0.23   c2.51,0.01,5.02,0,7.52,0.01c0.2,0,0.24-0.06,0.24-0.25c-0.01-2.08-0.01-4.16,0-6.24c0-0.21-0.05-0.25-0.26-0.25   c-5.46,0.01-10.93,0.01-16.39,0c-0.2,0-0.26,0.04-0.26,0.25C78.22,37.2,78.22,41.25,78.22,45.31z M72.69,42.51   c0-0.12,0-0.19,0-0.26c0-2.88,0-5.76,0.01-8.64c0-0.24-0.08-0.34-0.29-0.42c-3.02-1.25-6.13-1.45-9.3-0.71   c-3.27,0.77-5.89,2.55-7.77,5.35c-1.24,1.85-1.9,3.91-2.06,6.12c-0.12,1.6-0.02,3.19,0.39,4.74c0.97,3.63,3.26,6.2,6.51,7.96   c1.64,0.89,3.44,1.3,5.29,1.44c2.41,0.18,4.74-0.21,6.98-1.09c0.1-0.04,0.13-0.08,0.14-0.19c0.02-0.93,0.05-1.85,0.08-2.78   c0.05-1.53,0.1-3.07,0.14-4.6c0.02-0.6,0-1.2,0-1.79c-0.03,0.02-0.08,0.06-0.13,0.1c-0.55,0.4-1.12,0.78-1.72,1.11   c-1.44,0.79-2.95,1.23-4.61,0.99c-1.66-0.24-2.86-1.11-3.51-2.68c-0.41-1-0.46-2.05-0.28-3.11c0.3-1.75,1.27-2.99,2.97-3.58   c1.44-0.5,2.89-0.39,4.3,0.15C70.92,41.04,71.82,41.7,72.69,42.51z M39.59,66.75c0.08,0.04,0.05,0.08,0.05,0.12   c-0.05,0.32-0.09,0.64-0.1,0.97c-0.06,2.23-0.01,4.46-0.03,6.69c0,0.15,0.06,0.17,0.19,0.17c0.8,0,1.61-0.01,2.41,0   c0.16,0,0.2-0.04,0.2-0.2c0-3.57,0-7.14,0-10.71c0-0.17-0.06-0.19-0.21-0.19c-1.22,0-2.45,0.01-3.67,0   c-0.19,0-0.24,0.07-0.28,0.24c-0.18,0.89-0.37,1.77-0.55,2.65c-0.28,1.36-0.61,2.71-0.64,4.12c0,0.05,0.02,0.11-0.06,0.14   c-0.06-0.06-0.04-0.14-0.04-0.2c-0.01-0.58-0.08-1.15-0.19-1.71c-0.35-1.69-0.72-3.38-1.07-5.07c-0.03-0.14-0.09-0.16-0.22-0.16   c-1.24,0-2.47,0-3.71,0c-0.15,0-0.2,0.03-0.2,0.2c0.01,3.57,0.01,7.14,0,10.71c0,0.17,0.06,0.2,0.21,0.2   c0.79-0.01,1.58-0.01,2.37,0c0.18,0,0.21-0.06,0.21-0.22c-0.01-1.83,0-3.66,0-5.49c0-0.71-0.01-1.42-0.12-2.12   c0-0.03-0.03-0.08,0.05-0.09c0.05,0.29,0.09,0.57,0.14,0.85c0.44,2.3,0.88,4.6,1.32,6.9c0.02,0.12,0.06,0.18,0.2,0.18   c0.69-0.01,1.38-0.01,2.07,0c0.14,0,0.18-0.05,0.2-0.18c0.08-0.46,0.17-0.91,0.26-1.37c0.36-1.89,0.72-3.78,1.08-5.67   C39.51,67.24,39.54,67,39.59,66.75z M53.66,69.13c0,1.79,0,3.58,0,5.37c0,0.1-0.03,0.2,0.14,0.2c1.52-0.02,3.04,0.04,4.56-0.03   c0.83-0.04,1.61-0.29,2.25-0.86c0.72-0.64,1.26-1.41,1.56-2.33c0.4-1.19,0.44-2.41,0.26-3.64c-0.14-0.99-0.47-1.91-1.07-2.72   c-0.48-0.65-1.07-1.14-1.87-1.34c-0.47-0.12-0.94-0.17-1.43-0.17c-1.41,0-2.81,0-4.22-0.01c-0.16,0-0.2,0.05-0.2,0.2   C53.66,65.58,53.66,67.36,53.66,69.13z M44.06,69.13c0,1.79,0,3.58,0,5.37c0,0.15,0.03,0.2,0.19,0.2c2.62-0.01,5.25,0,7.87,0   c0.15,0,0.19-0.04,0.19-0.19c-0.01-0.78-0.01-1.57,0-2.35c0-0.2-0.04-0.26-0.25-0.26c-1.63,0.01-3.26,0-4.89,0.01   c-0.17,0-0.21-0.05-0.21-0.21c0.01-0.43,0.01-0.87,0-1.3c0-0.16,0.04-0.2,0.2-0.2c1.38,0.01,2.76,0,4.14,0.01   c0.16,0,0.22-0.03,0.22-0.21c-0.01-0.69-0.01-1.38,0-2.07c0-0.17-0.05-0.19-0.2-0.19c-1.39,0.01-2.77,0-4.16,0.01   c-0.15,0-0.2-0.03-0.19-0.19c0.01-0.36,0.01-0.72,0-1.07c-0.01-0.17,0.05-0.21,0.21-0.21c1.61,0.01,3.22,0,4.83,0.01   c0.16,0,0.22-0.03,0.22-0.2c-0.01-0.76-0.01-1.51,0-2.27c0-0.17-0.03-0.21-0.21-0.21c-2.58,0.01-5.15,0.01-7.73,0   c-0.18,0-0.22,0.04-0.22,0.22C44.06,65.59,44.06,67.36,44.06,69.13z M82.9,63.6c-0.48,0-0.96,0-1.44,0   c-0.12,0-0.17,0.03-0.21,0.15c-1.19,3.59-2.38,7.18-3.58,10.76c-0.05,0.14-0.04,0.19,0.12,0.18c0.99-0.01,1.99-0.01,2.98,0   c0.13,0,0.19-0.04,0.22-0.17c0.11-0.45,0.22-0.89,0.33-1.33c0.03-0.1,0.06-0.15,0.19-0.15c0.84,0.01,1.69,0.01,2.53,0   c0.11,0,0.15,0.03,0.17,0.14c0.09,0.45,0.2,0.9,0.29,1.35c0.03,0.13,0.08,0.17,0.21,0.17c0.91-0.01,1.81-0.01,2.72,0   c0.17,0,0.17-0.05,0.13-0.18c-0.22-0.76-0.43-1.53-0.65-2.3c-0.79-2.81-1.57-5.62-2.36-8.43c-0.04-0.14-0.09-0.19-0.24-0.19   C83.84,63.61,83.37,63.6,82.9,63.6z M76.1,67.65c0.43,0,0.87,0,1.3,0c0.11,0,0.16-0.02,0.14-0.14c-0.05-0.41-0.12-0.81-0.24-1.21   c-0.37-1.21-1.06-2.15-2.26-2.64c-0.49-0.2-1.01-0.28-1.54-0.32c-2.1-0.15-3.84,0.91-4.59,2.88c-0.65,1.71-0.62,3.46-0.17,5.22   c0.26,1.01,0.75,1.9,1.57,2.57c1,0.81,2.17,1.04,3.43,0.93c0.99-0.09,1.87-0.45,2.57-1.18c0.88-0.92,1.22-2.06,1.29-3.3   c0.01-0.14-0.08-0.11-0.15-0.11c-0.86,0-1.72,0-2.58,0c-0.13,0-0.16,0.04-0.16,0.16c-0.02,0.41-0.11,0.8-0.33,1.15   c-0.54,0.88-1.67,0.93-2.29,0.11c-0.17-0.23-0.3-0.48-0.38-0.76c-0.31-1.01-0.32-2.03-0.18-3.07c0.07-0.5,0.21-0.98,0.52-1.39   c0.33-0.44,0.77-0.64,1.3-0.58c0.56,0.06,0.92,0.38,1.13,0.89c0.07,0.17,0.13,0.36,0.14,0.55c0.01,0.18,0.06,0.27,0.27,0.25   C75.3,67.64,75.7,67.65,76.1,67.65z M18.5,63.6c-1.45,0-2.91,0-4.36,0c-0.17,0-0.21,0.05-0.21,0.21c0.01,0.79,0.01,1.58,0,2.37   c0,0.14,0.04,0.18,0.18,0.18c0.89-0.01,1.78,0,2.68-0.01c0.19,0,0.23,0.05,0.23,0.23c-0.01,2.63,0,5.26-0.01,7.88   c0,0.19,0.05,0.23,0.24,0.23c0.82-0.01,1.65-0.01,2.47,0c0.19,0,0.25-0.04,0.25-0.24c-0.01-2.63,0-5.26-0.01-7.88   c0-0.18,0.05-0.22,0.22-0.22c0.89,0.01,1.77,0,2.66,0.01c0.15,0,0.21-0.03,0.21-0.19c-0.01-0.79-0.01-1.58,0-2.37   c0-0.17-0.05-0.2-0.2-0.19C21.39,63.61,19.94,63.6,18.5,63.6z M88.1,69.14c0,1.78,0,3.57,0,5.35c0,0.15,0.03,0.21,0.2,0.21   c2.19-0.01,4.38-0.01,6.57,0c0.15,0,0.2-0.03,0.2-0.19c-0.01-0.82-0.01-1.63,0-2.45c0-0.15-0.04-0.19-0.19-0.19   c-1.2,0.01-2.39,0-3.59,0.01c-0.19,0-0.22-0.05-0.22-0.23c0.01-2.61,0-5.23,0.01-7.84c0-0.17-0.04-0.21-0.21-0.21   c-0.85,0.01-1.7,0.01-2.55,0c-0.17,0-0.21,0.05-0.21,0.21C88.1,65.59,88.1,67.37,88.1,69.14z M9.59,69.16c0,1.78,0,3.55,0,5.33   c0,0.17,0.05,0.21,0.21,0.21c0.87-0.01,1.73-0.01,2.6,0c0.16,0,0.2-0.04,0.2-0.2c0-3.57,0-7.14,0-10.7c0-0.17-0.06-0.2-0.21-0.19   c-0.87,0.01-1.73,0.01-2.6,0c-0.17,0-0.21,0.04-0.21,0.21C9.59,65.59,9.59,67.38,9.59,69.16z M66.99,69.14c0-1.78,0-3.55,0-5.33   c0-0.15-0.02-0.21-0.19-0.21c-0.88,0.01-1.76,0.01-2.64,0c-0.14,0-0.18,0.03-0.18,0.18c0,3.58,0,7.16,0,10.74   c0,0.14,0.04,0.18,0.18,0.18c0.87-0.01,1.74-0.01,2.62,0c0.17,0,0.21-0.04,0.21-0.21C66.98,72.7,66.99,70.92,66.99,69.14z    M26.9,72.87c-0.19-0.22-0.36-0.42-0.54-0.61c-0.08-0.09-0.06-0.12,0.04-0.17c0.23-0.1,0.44-0.23,0.62-0.41   c0.48-0.47,0.39-1.11-0.2-1.43c-0.32-0.17-0.67-0.22-1.02-0.22c-0.48-0.01-0.94,0.06-1.34,0.37c-0.34,0.26-0.44,0.63-0.28,1.03   c0.06,0.16,0.15,0.31,0.27,0.43c0.13,0.13,0.08,0.18-0.05,0.25c-0.26,0.14-0.49,0.32-0.68,0.54c-0.48,0.56-0.39,1.34,0.2,1.78   c0.19,0.14,0.39,0.24,0.62,0.29c0.71,0.17,1.41,0.12,2.08-0.17c0.08-0.03,0.15-0.1,0.23,0.01c0.1,0.15,0.25,0.16,0.41,0.16   c0.36-0.01,0.72,0,1.07,0c0.05,0,0.11,0.03,0.16-0.04c-0.25-0.28-0.5-0.57-0.75-0.84c-0.09-0.09-0.09-0.15-0.01-0.25   c0.26-0.34,0.43-0.71,0.49-1.14c0.01-0.11,0.01-0.16-0.12-0.15c-0.28,0.01-0.57,0.01-0.85,0c-0.1,0-0.14,0.03-0.16,0.13   C27.07,72.57,27.01,72.72,26.9,72.87z M23.76,25.08c-1.18,0-2.12,0.95-2.12,2.13c0,1.16,0.95,2.11,2.12,2.11   c1.17,0,2.13-0.96,2.13-2.13C25.9,26.02,24.94,25.08,23.76,25.08z M20.91,32.14c0.82,0,1.49-0.65,1.49-1.47   c0.01-0.81-0.66-1.49-1.48-1.49c-0.82,0-1.48,0.65-1.49,1.47C19.43,31.47,20.09,32.14,20.91,32.14z"></path>		<path class="st1" d="M4.69,63.61c0.95,0,1.89,0,2.84-0.01c0.14,0,0.13,0.07,0.13,0.16c0,0.62,0,1.24,0,1.86c0,2.95,0,5.9,0,8.85   c0,0.18-0.05,0.22-0.22,0.22c-0.86-0.01-1.73,0-2.59,0c-0.07,0-0.13-0.02-0.2,0.02c0-0.03,0-0.05,0-0.08   c0.07-0.07,0.04-0.15,0.04-0.23c0-2.22,0-4.44,0-6.66C4.69,66.36,4.69,64.99,4.69,63.61z"></path>		<path class="st2" d="M4.69,57.15c-0.01,0-0.03,0.01-0.04,0.01c0-8.27,0-16.54,0-24.82c0.01,0,0.03,0,0.04,0c0,0.09,0,0.19,0,0.28   c0,8.07,0,16.15,0,24.22C4.69,56.94,4.69,57.04,4.69,57.15z"></path>		<path class="st3" d="M4.69,63.61c0,1.38,0,2.75,0,4.13c0,2.22,0,4.44,0,6.66c0,0.08,0.03,0.16-0.04,0.23c0-3.68,0-7.35,0-11.03   C4.66,63.61,4.68,63.61,4.69,63.61z"></path>		<path class="st4" d="M53.88,57.48c-0.06,0-0.13,0-0.2,0c-3.1,0-6.21,0-9.31,0c-0.17,0-0.24-0.04-0.28-0.21   c-0.23-0.92-0.47-1.83-0.7-2.74c-0.03-0.12-0.08-0.17-0.21-0.17c-2.17,0-4.34,0-6.51,0c-0.13,0-0.19,0.03-0.22,0.16   c-0.22,0.93-0.46,1.86-0.69,2.79c-0.03,0.12-0.07,0.17-0.21,0.17c-3.15,0-6.3,0-9.45,0c-0.03,0-0.07,0-0.12-0.01   c0.05-0.14,0.09-0.27,0.14-0.4c2.93-8.07,5.86-16.14,8.78-24.22c0.05-0.15,0.11-0.21,0.28-0.21c3.23,0.01,6.46,0.01,9.69,0   c0.16,0,0.23,0.05,0.29,0.2c2.89,8.14,5.79,16.28,8.68,24.43C53.87,57.33,53.91,57.39,53.88,57.48z M39.9,48.45   c0.57,0,1.14,0,1.7,0c0.14,0,0.18-0.02,0.14-0.18c-0.28-0.98-0.55-1.96-0.81-2.94c-0.44-1.65-0.85-3.31-0.95-5.02   c0-0.05,0.02-0.13-0.08-0.13c-0.11,0-0.08,0.09-0.09,0.15c-0.06,0.97-0.22,1.93-0.43,2.88c-0.38,1.71-0.87,3.38-1.33,5.06   c-0.04,0.15-0.02,0.18,0.13,0.18C38.76,48.44,39.33,48.45,39.9,48.45z"></path>		<path class="st4" d="M78.22,45.31c0-4.05,0-8.11-0.01-12.16c0-0.21,0.06-0.25,0.26-0.25c5.46,0.01,10.93,0.01,16.39,0   c0.2,0,0.26,0.04,0.26,0.25c-0.01,2.08-0.01,4.16,0,6.24c0,0.19-0.04,0.25-0.24,0.25c-2.51-0.01-5.02,0-7.52-0.01   c-0.18,0-0.23,0.05-0.23,0.23c0.01,0.66,0.01,1.31,0,1.97c0,0.16,0.04,0.2,0.2,0.2c2.27-0.01,4.54,0,6.81-0.01   c0.19,0,0.23,0.05,0.23,0.23c-0.01,1.97-0.01,3.93,0,5.9c0,0.18-0.04,0.24-0.23,0.24c-2.26-0.01-4.53,0-6.79-0.01   c-0.18,0-0.23,0.04-0.22,0.22c0.01,0.73,0.01,1.46,0,2.19c0,0.17,0.04,0.21,0.21,0.21c2.58-0.01,5.17,0,7.75-0.01   c0.19,0,0.24,0.04,0.24,0.24c-0.01,2.09-0.01,4.18,0,6.26c0,0.2-0.06,0.24-0.25,0.24c-5.54-0.01-11.07-0.01-16.61,0   c-0.22,0-0.25-0.06-0.25-0.26C78.22,53.42,78.22,49.36,78.22,45.31z"></path>		<path class="st4" d="M72.69,42.51c-0.87-0.81-1.77-1.46-2.84-1.87c-1.41-0.54-2.86-0.65-4.3-0.15c-1.69,0.59-2.66,1.83-2.97,3.58   c-0.18,1.05-0.13,2.11,0.28,3.11c0.64,1.57,1.85,2.44,3.51,2.68c1.65,0.24,3.17-0.2,4.61-0.99c0.6-0.33,1.17-0.7,1.72-1.11   c0.05-0.04,0.11-0.08,0.13-0.1c0,0.59,0.01,1.19,0,1.79c-0.04,1.53-0.1,3.07-0.14,4.6c-0.03,0.93-0.06,1.85-0.08,2.78   c0,0.11-0.04,0.15-0.14,0.19c-2.25,0.88-4.57,1.27-6.98,1.09c-1.86-0.14-3.65-0.55-5.29-1.44c-3.25-1.76-5.54-4.33-6.51-7.96   c-0.41-1.56-0.51-3.14-0.39-4.74c0.17-2.22,0.82-4.27,2.06-6.12c1.88-2.8,4.49-4.58,7.77-5.35c3.16-0.75,6.27-0.54,9.3,0.71   c0.21,0.09,0.29,0.18,0.29,0.42c-0.01,2.88-0.01,5.76-0.01,8.64C72.69,42.32,72.69,42.39,72.69,42.51z"></path>		<path class="st1" d="M4.69,57.15c0-0.1,0-0.2,0-0.3c0-8.07,0-16.15,0-24.22c0-0.09,0-0.19,0-0.28c0.04,0,0.08-0.01,0.12-0.01   c3.91,0.01,7.82-0.04,11.72,0.02c1.78,0.03,3.52,0.29,5.2,0.92c2.51,0.95,4,2.77,4.53,5.38c0.37,1.81,0.38,3.64-0.01,5.45   c-0.57,2.65-2.21,4.33-4.8,5.1c-0.82,0.25-1.66,0.4-2.52,0.5c-0.14,0.02-0.18-0.04-0.21-0.16c-0.21-0.84-0.22-1.68-0.04-2.53   c0.02-0.08,0.05-0.14,0.1-0.2c0.61-0.83,1.1-1.73,1.4-2.72c0.32-1.1,0.34-2.2-0.25-3.24c-0.37-0.65-0.9-1.14-1.57-1.45   c-1.83-0.87-3.65-0.83-5.41,0.19c-1.11,0.64-1.74,1.64-1.97,2.9c-0.04,0.22-0.09,0.44-0.07,0.66c0.02,0.45-0.12,0.86-0.32,1.26   c-0.17,0.34-0.32,0.68-0.48,1.03c-0.07,0.17-0.12,0.34-0.13,0.53c-0.02,0.2,0.04,0.28,0.25,0.28c0.18,0.01,0.37,0,0.55,0   c0.17-0.01,0.27,0.05,0.25,0.25c-0.02,0.14,0.01,0.28,0.13,0.38c0.1,0.08,0.09,0.22,0.09,0.34c0.01,0.16,0.04,0.29,0.2,0.36   c0.17,0.08,0.18,0.2,0.11,0.37c-0.36,0.8-0.08,1.29,0.79,1.42c0.42,0.06,0.84,0.06,1.25,0.01c0.13-0.01,0.18,0,0.18,0.15   c-0.01,2.49-0.01,4.97-0.01,7.46c0,0.12-0.02,0.16-0.15,0.16c-2.95,0-5.91,0-8.86,0C4.72,57.15,4.71,57.15,4.69,57.15z    M17.88,36.06c0-0.76-0.62-1.39-1.39-1.4c-0.78-0.01-1.42,0.61-1.42,1.38c0,0.77,0.63,1.4,1.41,1.4   C17.25,37.44,17.87,36.82,17.88,36.06z"></path>		<path class="st5" d="M39.59,66.75c-0.04,0.25-0.08,0.49-0.12,0.73c-0.36,1.89-0.72,3.78-1.08,5.67c-0.09,0.46-0.18,0.91-0.26,1.37   c-0.02,0.13-0.06,0.18-0.2,0.18c-0.69-0.01-1.38-0.01-2.07,0c-0.14,0-0.18-0.06-0.2-0.18c-0.44-2.3-0.88-4.6-1.32-6.9   c-0.05-0.28-0.09-0.57-0.14-0.85c-0.08,0.02-0.05,0.06-0.05,0.09c0.11,0.7,0.12,1.41,0.12,2.12c0,1.83,0,3.66,0,5.49   c0,0.16-0.03,0.22-0.21,0.22c-0.79-0.01-1.58-0.01-2.37,0c-0.15,0-0.21-0.03-0.21-0.2c0.01-3.57,0.01-7.14,0-10.71   c0-0.17,0.05-0.2,0.2-0.2c1.24,0.01,2.47,0,3.71,0c0.12,0,0.19,0.02,0.22,0.16c0.35,1.69,0.71,3.38,1.07,5.07   c0.12,0.56,0.18,1.13,0.19,1.71c0,0.07-0.03,0.15,0.04,0.2c0.08-0.03,0.06-0.09,0.06-0.14c0.02-1.4,0.35-2.75,0.64-4.12   c0.18-0.88,0.38-1.77,0.55-2.65c0.03-0.17,0.08-0.24,0.28-0.24c1.22,0.01,2.45,0.01,3.67,0c0.15,0,0.21,0.02,0.21,0.19   c-0.01,3.57-0.01,7.14,0,10.71c0,0.16-0.04,0.2-0.2,0.2c-0.8-0.01-1.61-0.01-2.41,0c-0.13,0-0.19-0.02-0.19-0.17   c0.02-2.23-0.03-4.46,0.03-6.69c0.01-0.32,0.05-0.65,0.1-0.97C39.64,66.83,39.66,66.79,39.59,66.75z"></path>		<path class="st4" d="M53.66,69.13c0-1.78,0-3.55,0-5.33c0-0.16,0.03-0.2,0.2-0.2c1.41,0.01,2.81,0,4.22,0.01   c0.48,0,0.96,0.05,1.43,0.17c0.8,0.2,1.39,0.69,1.87,1.34c0.6,0.81,0.92,1.73,1.07,2.72c0.18,1.23,0.13,2.45-0.26,3.64   c-0.3,0.92-0.84,1.69-1.56,2.33c-0.64,0.57-1.41,0.82-2.25,0.86c-1.52,0.07-3.04,0.01-4.56,0.03c-0.17,0-0.14-0.09-0.14-0.2   C53.66,72.71,53.66,70.92,53.66,69.13z M56.58,69.12c0,0.92,0,1.85,0,2.77c0,0.07-0.05,0.18,0.09,0.18   c0.42-0.01,0.84,0.05,1.25-0.05c0.69-0.17,1.08-0.65,1.32-1.28c0.27-0.71,0.33-1.45,0.26-2.2c-0.05-0.53-0.17-1.04-0.46-1.49   c-0.36-0.58-0.87-0.91-1.58-0.89c-0.24,0.01-0.47,0.01-0.71,0c-0.15-0.01-0.19,0.04-0.19,0.19C56.59,67.27,56.58,68.2,56.58,69.12   z"></path>		<path class="st5" d="M44.06,69.13c0-1.77,0-3.54,0-5.31c0-0.18,0.04-0.22,0.22-0.22c2.58,0.01,5.15,0.01,7.73,0   c0.17,0,0.21,0.05,0.21,0.21c-0.01,0.76-0.01,1.51,0,2.27c0,0.18-0.05,0.21-0.22,0.2c-1.61-0.01-3.22,0-4.83-0.01   c-0.17,0-0.22,0.03-0.21,0.21c0.01,0.36,0.01,0.72,0,1.07c-0.01,0.16,0.04,0.19,0.19,0.19c1.39-0.01,2.77,0,4.16-0.01   c0.15,0,0.21,0.02,0.2,0.19c-0.01,0.69-0.01,1.38,0,2.07c0,0.18-0.05,0.21-0.22,0.21c-1.38-0.01-2.76,0-4.14-0.01   c-0.16,0-0.2,0.04-0.2,0.2c0.01,0.43,0.01,0.87,0,1.3c0,0.17,0.04,0.21,0.21,0.21c1.63-0.01,3.26,0,4.89-0.01   c0.21,0,0.26,0.06,0.25,0.26c-0.01,0.78-0.01,1.57,0,2.35c0,0.15-0.04,0.19-0.19,0.19c-2.62,0-5.25,0-7.87,0   c-0.16,0-0.19-0.05-0.19-0.2C44.06,72.71,44.06,70.92,44.06,69.13z"></path>		<path class="st6" d="M82.9,63.6c0.47,0,0.95,0.01,1.42,0c0.15,0,0.21,0.05,0.24,0.19c0.78,2.81,1.57,5.62,2.36,8.43   c0.21,0.77,0.43,1.53,0.65,2.3c0.04,0.13,0.04,0.18-0.13,0.18c-0.91-0.01-1.81-0.01-2.72,0c-0.13,0-0.19-0.04-0.21-0.17   c-0.09-0.45-0.2-0.9-0.29-1.35c-0.02-0.11-0.07-0.14-0.17-0.14c-0.84,0-1.69,0.01-2.53,0c-0.12,0-0.16,0.05-0.19,0.15   c-0.11,0.45-0.23,0.89-0.33,1.33c-0.03,0.13-0.08,0.17-0.22,0.17c-0.99-0.01-1.99-0.01-2.98,0c-0.17,0-0.17-0.05-0.12-0.18   c1.2-3.59,2.39-7.17,3.58-10.76c0.04-0.12,0.09-0.15,0.21-0.15C81.94,63.61,82.42,63.6,82.9,63.6z M82.8,70.82   c0.24,0,0.49-0.01,0.73,0c0.13,0,0.16-0.02,0.13-0.16c-0.33-1.52-0.76-3.02-0.77-4.6c0-0.04,0.01-0.11-0.06-0.11   c-0.07,0.01-0.04,0.07-0.05,0.12c-0.01,0.62-0.06,1.24-0.2,1.85c-0.2,0.91-0.42,1.82-0.64,2.73c-0.03,0.12-0.02,0.17,0.12,0.16   C82.31,70.82,82.55,70.82,82.8,70.82z"></path>		<path class="st4" d="M76.1,67.65c-0.4,0-0.8-0.02-1.2,0.01c-0.21,0.01-0.26-0.07-0.27-0.25c-0.01-0.19-0.07-0.37-0.14-0.55   c-0.21-0.51-0.58-0.83-1.13-0.89c-0.54-0.05-0.98,0.15-1.3,0.58c-0.31,0.41-0.45,0.89-0.52,1.39c-0.14,1.03-0.13,2.06,0.18,3.07   c0.08,0.27,0.21,0.53,0.38,0.76c0.62,0.82,1.76,0.77,2.29-0.11c0.22-0.35,0.31-0.75,0.33-1.15c0.01-0.12,0.03-0.16,0.16-0.16   c0.86,0.01,1.72,0,2.58,0c0.08,0,0.16-0.02,0.15,0.11c-0.08,1.24-0.41,2.38-1.29,3.3c-0.7,0.73-1.58,1.09-2.57,1.18   c-1.25,0.11-2.43-0.11-3.43-0.93c-0.82-0.67-1.31-1.56-1.57-2.57c-0.45-1.75-0.48-3.51,0.17-5.22c0.75-1.97,2.49-3.04,4.59-2.88   c0.53,0.04,1.05,0.12,1.54,0.32c1.21,0.49,1.9,1.42,2.26,2.64c0.12,0.4,0.18,0.8,0.24,1.21c0.02,0.13-0.03,0.15-0.14,0.14   C76.96,67.65,76.53,67.65,76.1,67.65z"></path>		<path class="st4" d="M18.5,63.6c1.45,0,2.89,0,4.34,0c0.15,0,0.21,0.03,0.2,0.19c-0.01,0.79-0.01,1.58,0,2.37   c0,0.17-0.06,0.2-0.21,0.19c-0.89-0.01-1.77,0-2.66-0.01c-0.18,0-0.22,0.04-0.22,0.22c0.01,2.63,0,5.26,0.01,7.88   c0,0.2-0.05,0.25-0.25,0.24c-0.82-0.01-1.65-0.01-2.47,0c-0.18,0-0.24-0.04-0.24-0.23c0.01-2.63,0-5.26,0.01-7.88   c0-0.18-0.05-0.23-0.23-0.23c-0.89,0.01-1.78,0-2.68,0.01c-0.14,0-0.18-0.04-0.18-0.18c0.01-0.79,0.01-1.58,0-2.37   c0-0.16,0.03-0.21,0.21-0.21C15.59,63.61,17.04,63.6,18.5,63.6z"></path>		<path class="st5" d="M88.1,69.14c0-1.78,0-3.55,0-5.33c0-0.17,0.04-0.21,0.21-0.21c0.85,0.01,1.7,0.01,2.55,0   c0.17,0,0.21,0.04,0.21,0.21c-0.01,2.61,0,5.23-0.01,7.84c0,0.17,0.03,0.23,0.22,0.23c1.2-0.01,2.39,0,3.59-0.01   c0.15,0,0.19,0.03,0.19,0.19c-0.01,0.82-0.01,1.63,0,2.45c0,0.16-0.05,0.19-0.2,0.19c-2.19,0-4.38-0.01-6.57,0   c-0.17,0-0.2-0.06-0.2-0.21C88.1,72.71,88.1,70.93,88.1,69.14z"></path>		<path class="st4" d="M9.59,69.16c0-1.78,0-3.57,0-5.35c0-0.17,0.04-0.21,0.21-0.21c0.87,0.01,1.73,0.01,2.6,0   c0.15,0,0.21,0.03,0.21,0.19c-0.01,3.57-0.01,7.14,0,10.7c0,0.16-0.04,0.2-0.2,0.2c-0.87-0.01-1.73-0.01-2.6,0   c-0.17,0-0.21-0.04-0.21-0.21C9.59,72.71,9.59,70.94,9.59,69.16z"></path>		<path class="st5" d="M66.99,69.14c0,1.78,0,3.57,0,5.35c0,0.17-0.04,0.21-0.21,0.21c-0.87-0.01-1.74-0.01-2.62,0   c-0.14,0-0.18-0.04-0.18-0.18c0-3.58,0-7.16,0-10.74c0-0.14,0.04-0.18,0.18-0.18c0.88,0.01,1.76,0.01,2.64,0   c0.17,0,0.19,0.06,0.19,0.21C66.99,65.58,66.99,67.36,66.99,69.14z"></path>		<path class="st5" d="M26.9,72.87c0.11-0.15,0.16-0.3,0.19-0.46c0.02-0.1,0.06-0.13,0.16-0.13c0.28,0.01,0.57,0.01,0.85,0   c0.13,0,0.14,0.05,0.12,0.15c-0.06,0.43-0.23,0.8-0.49,1.14c-0.08,0.1-0.08,0.16,0.01,0.25c0.26,0.27,0.5,0.56,0.75,0.84   c-0.05,0.07-0.11,0.04-0.16,0.04c-0.36,0-0.72,0-1.07,0c-0.16,0-0.31-0.01-0.41-0.16c-0.07-0.11-0.15-0.04-0.23-0.01   c-0.67,0.29-1.37,0.34-2.08,0.17c-0.23-0.05-0.43-0.15-0.62-0.29c-0.6-0.44-0.68-1.22-0.2-1.78c0.19-0.22,0.42-0.4,0.68-0.54   c0.13-0.07,0.18-0.13,0.05-0.25c-0.12-0.12-0.2-0.27-0.27-0.43c-0.16-0.4-0.07-0.76,0.28-1.03c0.4-0.3,0.86-0.37,1.34-0.37   c0.35,0,0.7,0.05,1.02,0.22c0.59,0.32,0.68,0.96,0.2,1.43c-0.18,0.18-0.39,0.31-0.62,0.41c-0.1,0.05-0.12,0.08-0.04,0.17   C26.54,72.46,26.71,72.66,26.9,72.87z M26.14,73.77c-0.3-0.34-0.59-0.66-0.88-0.99c-0.03-0.03-0.05-0.07-0.1-0.03   c-0.19,0.14-0.37,0.3-0.39,0.56c-0.02,0.25,0.09,0.43,0.3,0.55C25.43,74.05,25.78,73.98,26.14,73.77z M26.1,71.01   c0.01-0.17-0.15-0.29-0.39-0.3C25.47,70.7,25.3,70.82,25.3,71c0,0.16,0.23,0.5,0.33,0.5C25.79,71.5,26.1,71.18,26.1,71.01z"></path>		<path class="st6" d="M23.76,25.08c1.18,0,2.13,0.94,2.13,2.12c0,1.17-0.96,2.13-2.13,2.13c-1.17,0-2.12-0.95-2.12-2.11   C21.64,26.03,22.59,25.08,23.76,25.08z"></path>		<path class="st5" d="M20.91,32.14c-0.82,0-1.48-0.67-1.48-1.49c0.01-0.82,0.67-1.48,1.49-1.47c0.82,0,1.48,0.67,1.48,1.49   C22.4,31.48,21.73,32.14,20.91,32.14z"></path>		<path class="st7" d="M39.9,48.45c-0.57,0-1.14,0-1.7,0c-0.16,0-0.17-0.04-0.13-0.18c0.46-1.68,0.95-3.36,1.33-5.06   c0.21-0.95,0.36-1.91,0.43-2.88c0-0.06-0.02-0.15,0.09-0.15c0.1,0,0.08,0.08,0.08,0.13c0.11,1.71,0.51,3.37,0.95,5.02   c0.26,0.98,0.53,1.96,0.81,2.94c0.04,0.16,0,0.18-0.14,0.18C41.04,48.45,40.47,48.45,39.9,48.45z"></path>		<path class="st7" d="M17.88,36.06c0,0.76-0.63,1.38-1.4,1.38c-0.78,0-1.41-0.63-1.41-1.4c0-0.77,0.65-1.39,1.42-1.38   C17.26,34.67,17.88,35.29,17.88,36.06z"></path>		<path class="st8" d="M56.58,69.12c0-0.92,0-1.85,0-2.77c0-0.15,0.04-0.2,0.19-0.19c0.24,0.01,0.47,0.01,0.71,0   c0.7-0.02,1.21,0.3,1.58,0.89c0.28,0.46,0.41,0.96,0.46,1.49c0.07,0.75,0.01,1.49-0.26,2.2c-0.24,0.63-0.64,1.12-1.32,1.28   c-0.41,0.1-0.83,0.04-1.25,0.05c-0.14,0-0.09-0.11-0.09-0.18C56.58,70.97,56.58,70.04,56.58,69.12z"></path>		<path class="st9" d="M82.8,70.82c-0.24,0-0.49-0.01-0.73,0c-0.14,0.01-0.15-0.04-0.12-0.16c0.22-0.91,0.44-1.82,0.64-2.73   c0.13-0.61,0.19-1.23,0.2-1.85c0-0.04-0.02-0.11,0.05-0.12c0.07-0.01,0.06,0.06,0.06,0.11c0,1.57,0.44,3.08,0.77,4.6   c0.03,0.14,0,0.16-0.13,0.16C83.28,70.82,83.04,70.82,82.8,70.82z"></path>		<path class="st9" d="M26.14,73.77c-0.35,0.21-0.7,0.27-1.07,0.09c-0.22-0.11-0.33-0.3-0.3-0.55c0.02-0.26,0.2-0.42,0.39-0.56   c0.05-0.04,0.07,0,0.1,0.03C25.54,73.11,25.83,73.43,26.14,73.77z"></path>		<path class="st10" d="M26.1,71.01c-0.01,0.17-0.31,0.48-0.47,0.48c-0.11,0-0.33-0.34-0.33-0.5c0-0.18,0.17-0.3,0.41-0.29   C25.95,70.73,26.11,70.85,26.1,71.01z"></path>	</g></g></svg>