<svg xmlns="http://www.w3.org/2000/svg" xmlns:xlink="http://www.w3.org/1999/xlink" id="Layer_1" x="0px" y="0px" viewBox="0 0 100 100" style="enable-background:new 0 0 100 100;" xml:space="preserve"><style type="text/css">	.st0{fill:#2068B2;}	.st1{fill:#2369B2;}	.st2{fill:#C9DAF0;}	.st3{fill:#B7CFEC;}	.st4{fill:#A9C7E9;}	.st5{fill:#A0C2E4;}</style><g>	<g>		<path class="st0" d="M66.63,84.23c-2.56,0-5.12-0.03-7.68,0.02c-0.82,0.01-1.12-0.23-1.11-1.06c0.03-3.9,0.03-7.8,0-11.7   c-0.01-0.8,0.31-0.97,1.05-0.96c4.1,0.03,8.2,0.02,12.29,0.01c2.96-0.01,5.16-1.23,6.19-4.11c0.73-2.03,0.34-4.03-0.61-5.89   c-1.21-2.37-2.91-4.42-4.5-6.54c-2.81-3.73-5.88-7.25-8.44-11.18c-1.84-2.83-3.1-5.85-3.34-9.25c-0.12-1.74,0.17-3.46,0.32-5.18   c0.05-0.6,0.33-0.96,1.07-0.96c4.26,0.03,8.51,0.02,12.77,0.01c0.55,0,1.06-0.01,0.87,0.81c-0.81,3.53,0.38,6.49,2.48,9.28   c3.3,4.38,6.96,8.49,9.96,13.1c2.91,4.48,4.88,9.29,4.59,14.72c-0.33,6.24-2.5,11.66-7.75,15.46c-3.29,2.38-7.1,3.2-11.06,3.38   c-2.36,0.1-4.73,0.02-7.09,0.02C66.63,84.21,66.63,84.22,66.63,84.23z"></path>		<path class="st1" d="M11.78,27.49c2.35,0,4.5,0.11,6.64-0.04c1.68-0.12,2.79,0.41,3.87,1.73c6.96,8.5,13.99,16.93,21.04,25.35   c0.69,0.83,0.17,1.23-0.28,1.73c-4.29,4.78-8.6,9.55-12.89,14.34c-3.8,4.24-7.59,8.49-11.36,12.76c-0.54,0.61-1.13,0.84-1.95,0.82   c-2.72-0.05-5.44-0.02-8.16-0.05c-0.41,0-1,0.23-1.21-0.18c-0.26-0.51,0.38-0.77,0.66-1.07c4.13-4.52,8.28-9.02,12.43-13.52   c4.23-4.59,8.46-9.18,12.71-13.75c0.45-0.48,0.48-0.76,0.03-1.31c-5.61-6.89-11.19-13.8-16.77-20.71   c-1.44-1.78-2.88-3.56-4.32-5.34C12.1,28.08,12.01,27.88,11.78,27.49z"></path>		<path class="st2" d="M55.86,57.27c0.01,8.66,0.01,17.31,0.04,25.97c0,0.77-0.25,1.02-1.02,1.01c-2.87-0.04-5.75-0.04-8.62,0   c-0.88,0.01-1.03-0.35-1.03-1.12c0.03-6.34,0.02-12.67,0.02-19.01c2.93,0.5,5.88,0.13,8.83,0.23c0.65,0.02,0.96-0.36,1.11-0.98   c0.42-1.67,0.11-3.37,0.22-5.05C55.45,57.94,55.22,57.42,55.86,57.27z"></path>		<path class="st3" d="M55.86,57.27c-0.63,0.15-0.41,0.67-0.44,1.06c-0.11,1.68,0.2,3.38-0.22,5.05c-0.16,0.63-0.46,1-1.11,0.98   c-2.94-0.1-5.9,0.27-8.83-0.23c0-4.42,0-8.83,0.01-13.25c3.52-0.11,7.05,0.26,10.57-0.24C55.84,52.85,55.85,55.06,55.86,57.27z"></path>		<path class="st4" d="M55.83,50.64c-3.51,0.51-7.04,0.14-10.57,0.24c0-4.1,0-8.2,0.01-12.3c3.46,0,6.91,0,10.37,0   C55.7,42.6,55.76,46.62,55.83,50.64z"></path>		<path class="st5" d="M55.64,38.59c-3.46,0-6.91,0-10.37,0c-0.01-3.38,0-6.76-0.04-10.13c-0.01-0.8,0.3-0.99,1.04-0.98   c2.79,0.03,5.58,0.04,8.37-0.01c0.87-0.02,1.05,0.33,1.04,1.11C55.63,31.91,55.64,35.25,55.64,38.59z"></path>		<path class="st1" d="M50.35,26.06c-2.83-0.02-5.1-2.33-5.08-5.18c0.02-2.82,2.45-5.23,5.27-5.14c2.76,0.09,5.13,2.3,5.07,5.33   C55.55,23.88,53.24,26.08,50.35,26.06z"></path>	</g></g></svg>