<svg xmlns="http://www.w3.org/2000/svg" xmlns:xlink="http://www.w3.org/1999/xlink" id="Layer_1" x="0px" y="0px" viewBox="0 0 100 100" style="enable-background:new 0 0 100 100;" xml:space="preserve"><style type="text/css">	.st0{fill:#FCFAFA;}	.st1{fill:#EC2352;}	.st2{fill:#ED2D54;}	.st3{fill:#E91E36;}	.st4{fill:#EA1D3B;}	.st5{fill:#E91E32;}	.st6{fill:#EA1E44;}</style><g>	<g>		<path class="st0" d="M26.7,72.19l-0.14,0.17l0.16-0.16c-0.12-0.43-0.24-0.86-0.35-1.29c0.04-8.03,0.13-16.06,0.09-24.09   c-0.04-8.47,2.14-15.52,11.32-18.36c3.71-0.89,7.42-0.77,11.13,0.01c3.57,2.55,7.12,3.96,11.15,0.69c0.97-0.79,2.6-0.74,3.89-1.18   c0.99-0.34,2.55,0.54,2.92-0.84c0.32-1.23-1.16-1.76-1.97-2.44c-15.83-13.33-39.56-10.48-51.87,6.2   C0.88,47.33,5.31,70.56,22.67,81.57c16.88,10.71,40.65,5.18,49.45-11.5c0.4-9.11,0.5-18.22-0.05-27.33   c-0.16-3.37-2.83-4.28-5.24-4c-2.25,0.26-5.71-0.13-5.95,3.76l-0.01,0.04c-1.47,3.69-0.45,7.53-0.63,11.3   c-0.21,4.4-2.09,6.86-5.59,6.75c-4.22-0.12-4.9-1.18-5.1-6.64c-0.14-3.78,0.81-7.64-0.6-11.35c0.07-0.22,0.02-0.43-0.13-0.6   c-2.88-4.77-7.92-4.46-11.07,0.67c-0.15,0.11-0.19,0.26-0.12,0.43c-0.94,1.07-0.54,2.36-0.54,3.55   c-0.04,7.54-0.09,15.08,0.02,22.61c0.04,2.68-0.87,4.52-3.37,5.56c-2.63,1.09-4.69,0.15-6.47-1.77   C27.07,72.77,26.88,72.48,26.7,72.19z M83.43,38.21C83.1,49.33,83,60.45,83.48,71.56c0.82,3.06,3.07,4.2,5.93,3.66   c3.09-0.58,4.44-2.81,4.43-5.94c-0.04-10.62,0-21.23-0.02-31.85c-0.01-4.32-2.17-6.88-5.61-6.73   C84.58,30.86,82.77,33.7,83.43,38.21z M93.83,23.01c0.1-2.93-2.34-5.48-5.31-5.55c-2.82-0.07-5.21,2.16-5.39,5.02   c-0.19,3.02,2.07,5.58,5.05,5.74C91.09,28.37,93.73,25.94,93.83,23.01z"></path>		<path class="st1" d="M72.12,70.07c-8.8,16.68-32.56,22.21-49.45,11.5C5.31,70.56,0.88,47.33,13.02,30.9   c12.32-16.68,36.05-19.52,51.87-6.2c0.81,0.68,2.29,1.2,1.97,2.44c-0.36,1.38-1.93,0.51-2.92,0.84c-1.29,0.44-2.92,0.39-3.89,1.18   c-4.03,3.27-7.58,1.86-11.15-0.69c-2.47-2.57-8.66-2.57-11.13-0.01c-9.18,2.83-11.36,9.88-11.32,18.36   c0.04,8.03-0.06,16.06-0.09,24.09c-0.21-0.01-0.41-0.02-0.62-0.04c0-9.13,0-18.26,0-27.39c-0.7,8.72-0.71,17.43-0.67,26.15   c0,0.41,0.44,0.83,0.68,1.24c0.04,0.65,0.09,1.28,0.96,1.33l-0.16,0.16c0,0,0.14-0.17,0.14-0.17c-0.01,0.36-0.03,0.71-0.04,1.07   c0.2-0.07,0.4-0.13,0.6-0.2c1.79,1.92,3.85,2.86,6.47,1.77c2.5-1.03,3.41-2.88,3.37-5.56c-0.11-7.54-0.06-15.07-0.02-22.61   c0.01-1.19-0.4-2.49,0.54-3.55c0,9.25,0,18.49,0,27.74c0.76-9.1,0.77-18.2,0.74-27.3c0-0.29-0.4-0.58-0.61-0.87   c3.15-5.14,8.19-5.44,11.07-0.68c-1.33,4.61-0.28,9.25,0.13,13.88c0-4.43,0-8.85,0-13.28c1.41,3.72,0.46,7.57,0.6,11.35   c0.2,5.46,0.88,6.52,5.1,6.64c3.51,0.1,5.39-2.36,5.59-6.75c0.18-3.77-0.84-7.61,0.63-11.3c0,4.21,0,8.41,0,12.62   c0.3-4.22,1.77-8.5,0.01-12.65c0.24-3.89,3.7-3.5,5.95-3.76c2.41-0.28,5.07,0.63,5.24,4c-0.95,0.74-0.65,1.8-0.65,2.75   c-0.02,7.29-0.02,14.57,0,21.86C71.41,68.3,71.12,69.36,72.12,70.07z"></path>		<path class="st1" d="M83.43,38.21c-0.66-4.52,1.14-7.36,4.78-7.51c3.44-0.15,5.6,2.41,5.61,6.73c0.02,10.62-0.02,21.23,0.02,31.85   c0.01,3.14-1.34,5.37-4.43,5.94c-2.85,0.53-5.11-0.6-5.93-3.66C84.51,60.45,84.63,49.33,83.43,38.21z"></path>		<path class="st2" d="M93.83,23.01c-0.1,2.93-2.74,5.36-5.65,5.21c-2.98-0.16-5.24-2.72-5.05-5.74c0.18-2.86,2.57-5.09,5.39-5.02   C91.49,17.53,93.93,20.09,93.83,23.01z"></path>		<path class="st3" d="M83.43,38.21c1.19,11.11,1.08,22.23,0.05,33.35C83,60.45,83.1,49.33,83.43,38.21z"></path>		<path class="st4" d="M37.75,42.67c0.21,0.29,0.61,0.58,0.61,0.87c0.03,9.1,0.03,18.2-0.74,27.3c0-9.25,0-18.49,0-27.74   C37.55,42.93,37.6,42.78,37.75,42.67z"></path>		<path class="st5" d="M72.12,70.07c-1-0.71-0.71-1.77-0.71-2.72c-0.02-7.29-0.02-14.57,0-21.86c0-0.95-0.29-2.01,0.65-2.75   C72.62,51.85,72.51,60.96,72.12,70.07z"></path>		<path class="st6" d="M37.77,28.47c2.47-2.57,8.66-2.56,11.13,0.01C45.19,27.7,41.48,27.57,37.77,28.47z"></path>		<path class="st4" d="M48.95,42.6c0,4.43,0,8.85,0,13.28c-0.41-4.63-1.46-9.27-0.13-13.88C48.97,42.17,49.01,42.38,48.95,42.6z"></path>		<path class="st6" d="M26.72,72.21c-0.87-0.06-0.92-0.69-0.96-1.33l-0.01,0.01c0.21,0.01,0.41,0.03,0.62,0.04   C26.48,71.35,26.6,71.78,26.72,72.21z"></path>		<path class="st6" d="M27.26,73.06c-0.2,0.07-0.4,0.13-0.6,0.2c0.01-0.36,0.03-0.71,0.04-1.07C26.88,72.48,27.07,72.77,27.26,73.06   z"></path>		<path class="st6" d="M25.76,70.87c-0.24-0.41-0.68-0.83-0.68-1.24c-0.04-8.71-0.03-17.43,0.67-26.15   C25.75,52.62,25.75,61.75,25.76,70.87C25.75,70.88,25.76,70.87,25.76,70.87z"></path>		<path class="st6" d="M60.88,42.5c1.76,4.15,0.29,8.43-0.01,12.65c0-4.2,0-8.41,0-12.62C60.87,42.54,60.88,42.5,60.88,42.5z"></path>	</g></g></svg>