<svg xmlns="http://www.w3.org/2000/svg" xmlns:xlink="http://www.w3.org/1999/xlink" id="Layer_1" x="0px" y="0px" viewBox="0 0 100 100" style="enable-background:new 0 0 100 100;" xml:space="preserve"><style type="text/css">	.st0{fill:#9CD5C2;}	.st1{fill:#B766A2;}	.st2{fill:#4358A6;}	.st3{fill:#61A9D0;}	.st4{fill:#FDC916;}</style><g>	<g>		<path class="st0" d="M24.79,83.75c-0.25-0.52-0.49-1.04-0.74-1.56c0,0,0.16-0.16,0.16-0.16c4.21,2.21,8.31,4.67,13.15,5.37   c1.19,0.17,2.36,0.29,3.55,0.26c8.72,0.59,16.44-1.79,22.94-7.77c2.53-2.01,4.58-4.41,6.06-7.29c2.31-3.36,3.62-7.07,4.06-11.11   c0.84-3.75,0.74-7.49-0.12-11.23c0.13-3.02-1.78-5.48-2.3-8.32l0.19-0.16c1.09,0.14,1.14,1.45,2.03,1.82   c0.97,2.22,1.94,4.44,2.91,6.65c1.03,3.65,1.76,7.35,1.65,11.18c-0.32,3.81-1.32,7.47-2.37,11.13c-3.07,6-7.08,11.19-12.76,14.97   c-3.59,1.67-7.17,3.38-11.11,4.12c-3.73,0.71-7.46,0.68-11.2,0.01c-3.99-0.6-7.51-2.48-11.12-4.11   C28.11,86.29,26.45,85.02,24.79,83.75z"></path>		<path class="st1" d="M9.36,50.23c-0.48-3.72-0.35-7.42,0.21-11.12c0.92-3.96,2.58-7.62,4.51-11.18c1.65-1.35,2.03-3.98,4.52-4.48   c0.07,0.83-0.57,1.33-0.92,1.97c-2.34,4.26-4.09,8.71-4.18,13.66c-0.9,3.86-0.1,7.58,1,11.26c0.7,3.27,1.99,6.26,4.06,8.9   c0.35,0.88,0.83,1.67,1.62,2.23c2.44,3.61,5.81,6.13,9.58,8.19c6.81,3.58,13.89,5.22,21.5,2.99c0.27-0.01,0.54-0.03,0.81-0.04   c2.8-0.05,5.05-1.91,7.74-2.31c0,0,0.1,0.09,0.1,0.09c-0.81,0.72-1.62,1.44-2.43,2.16c-1.82,0.88-3.64,1.76-5.46,2.64   c-3.63,1.07-7.29,1.94-11.1,1.99c-3.82,0.05-7.49-0.89-11.14-1.86c-6.94-2.88-12.45-7.45-16.39-13.86   C11.43,57.93,10.17,54.16,9.36,50.23z"></path>		<path class="st2" d="M29.75,58.07c-1.34-2.6-2.67-5.2-4.01-7.79c-1.06-3.66-1.75-7.37-1.76-11.19c0.14-3.8,0.92-7.49,2.16-11.07   c3.01-7.27,8.09-12.71,14.82-16.67c11.61-5.39,22.76-4.62,33.44,2.49c1.17,0.98,2.33,1.96,3.5,2.94c0,0.14,0,0.28-0.01,0.43   c-0.13,0.14-0.27,0.29-0.4,0.43c-4.41-2.67-8.93-5.04-14.24-5.28c-8.52-1.24-16.19,0.74-22.99,6.04c-3.62,2.44-6.43,5.6-8.38,9.5   c-0.31,0.45-0.67,0.87-0.91,1.35c-4.7,9.47-4.55,18.99-0.32,28.56c-0.15,0.12-0.3,0.23-0.44,0.35   C30.05,58.15,29.9,58.12,29.75,58.07z"></path>		<path class="st3" d="M85.43,72.58c0.09-0.3,0.17-0.6,0.26-0.9c2.01-3.13,2.73-6.64,3.08-10.27c0.8-8.3-1.2-15.8-6.36-22.4   c-2.04-3.1-4.64-5.6-7.91-7.37c-6.23-4.4-13.2-5.83-20.7-5.16c-3.69,0.33-7.05,1.99-10.67,2.58c2.35-2.81,5.87-3.53,8.95-5.05   c3.67-0.83,7.38-1.31,11.15-1.22c3.85,0.18,7.47,1.35,11.08,2.58c6.34,3.15,11.35,7.74,15,13.81c1.69,3.54,2.93,7.22,3.61,11.09   c-0.05,3.72,0.29,7.46-0.5,11.14c-0.85,4.01-2.7,7.6-4.67,11.14c-0.72,0.94-1.44,1.88-2.17,2.82c-0.46,0.26-0.93,0.53-1.39,0.79   c-0.13-0.11-0.26-0.21-0.39-0.32C84.33,74.76,84.88,73.67,85.43,72.58z"></path>		<path class="st4" d="M53.6,39.18c0.3,0.47-0.26,1.31,1.1,1.34c2.24,0.04,4.27,2.97,5.54,4.95c0.67,1.05-0.07,2.47,1.25,3.08   c1.36,0.62-1.9,1.12-0.07,1.8c-0.48,3.91-2.5,8.22-7,9.24c-0.66,0.15-2.71-0.77-2.92,1.2c-0.52-0.33-1.45-0.99-1.49-0.94   c-1.13,1.4-2.11-1.41-3.17-0.09c-1.35-2.08-4.5-2.63-4.79-5.65c-0.05-0.56-0.69-0.47-1.14-0.47c0.98-1.12-0.77-2.25,0.01-3.37   c-0.53-1.31,0.63-2.62,0-3.93c0.35-0.07,1.01-0.13,1.02-0.21c0.07-2.74,2.6-3.27,3.97-4.83c0.93-1.06,3.01-0.18,2.94-2.14   c1.12,1.29,2.59-0.04,3.81,0.52C52.96,39.51,53.28,39.34,53.6,39.18z"></path>	</g></g></svg>