<svg xmlns="http://www.w3.org/2000/svg" xmlns:xlink="http://www.w3.org/1999/xlink" id="Layer_1" x="0px" y="0px" viewBox="0 0 100 100" style="enable-background:new 0 0 100 100;" xml:space="preserve"><style type="text/css">	.st0{fill:#987D2E;}</style><g>	<g>		<path class="st0" d="M29.77,78.85c-3.96,0-7.93-0.03-11.89,0.02c-1.88,0.02-2.76-0.72-2.97-2.65c-0.82-7.47-1.78-14.92-2.61-22.39   c-0.16-1.41-0.69-2.13-2.06-2.5c-1.39-0.37-2.74-0.94-4.05-1.54c-1.15-0.53-1.76-1.54-1.28-2.78c0.48-1.25,1.47-1.93,2.9-1.41   c2.42,0.87,4.85,1.73,7.24,2.68c1.6,0.64,1.38,2.21,1.59,3.53c0.74,4.6,0.74,4.59,5.39,4.6c7.12,0,14.24-0.01,21.36,0.01   c3.07,0.01,3.85,1.13,2.87,4.11c-0.86,2.6-1.84,5.16-2.61,7.79c-0.59,2.01-1.65,2.83-3.84,2.78c-6.07-0.14-12.14-0.09-18.2,0   c-0.86,0.01-2.45-1.01-2.6,0.97c-0.15,2.03,0.97,2.38,2.83,2.35c6.39-0.13,12.78-0.05,19.18-0.05c0.57,0,1.13-0.02,1.7,0.01   c1.44,0.08,2.3,0.94,2.3,2.3c0,1.39-0.91,2.18-2.37,2.18C38.35,78.85,34.06,78.85,29.77,78.85z M28.87,66.56c2.18,0,4.36,0,6.53,0   c4.12,0,4.05-0.02,5.35-3.93c0.49-1.46,0.16-1.75-1.29-1.73c-6.29,0.07-12.58,0.03-18.87,0.03c-3.03,0-2.92-0.01-2.6,3.11   c0.2,1.91,0.73,2.79,2.89,2.59C23.53,66.37,26.21,66.56,28.87,66.56z"></path>		<path class="st0" d="M65.45,32.15c-10.95-5.44-21.92-5.47-32.88,0.02C31.65,25.96,32.56,20.4,38.42,17   c6.97-4.05,14.17-4.05,21.15-0.02C65.45,20.37,66.4,25.93,65.45,32.15z M39.75,23.88c-0.57-1-0.79-1.39-1.01-1.78   c-0.34-0.62-0.52-1.36-1.55-1.07c-1.15,0.33-0.93,1.12-0.8,1.91c0.17,0.95,0.34,1.9,0.58,2.84c0.11,0.43,0.18,1.05,0.84,0.98   c0.96-0.11,0.38-0.85,0.47-1.32c0.07-0.35-0.51-0.67-0.01-1.05c1.01,0.25,0.57,2.36,2,1.8c1.06-0.41,0.11-1.76,0.72-2.74   c0.2,0.52,0.37,0.95,0.53,1.38c0.18,0.47,0.04,1.26,0.97,0.95c0.75-0.25,0.3-0.78,0.24-1.18c-0.18-1.11-0.4-2.22-0.61-3.32   c-0.11-0.59-0.28-1.11-1.07-0.94c-0.61,0.13-1.35,0.04-1.31,1.01C39.77,21.94,39.75,22.55,39.75,23.88z M45.74,25.53   c0.61-0.15,1.08-1.54,2.22-0.94c0.6,0.32,1.17,1.24,1.82,0.57c0.66-0.68-0.29-1.44-0.45-2.17c-0.19-0.85-0.61-1.66-0.92-2.49   c-0.24-0.63-0.7-0.82-1.35-0.73c-0.52,0.07-0.87,0.22-1.03,0.8c-0.38,1.4-0.85,2.77-1.28,4.15   C44.55,25.35,44.78,25.64,45.74,25.53z M53.86,22.06c-0.76-0.48,0.99-2.49-0.99-2.05c-1.28,0.28-0.84,2.34-0.94,3.64   c-0.06,0.71-0.52,1.72,0.78,1.9c0.8,0.11,1.61,0.15,2.41,0.21c0.47,0.04,0.76-0.16,0.77-0.66c0.01-0.48-0.21-0.8-0.7-0.76   C53.47,24.49,53.29,23.6,53.86,22.06z M57.73,25.54c-0.05,1.52,1.79,0.74,2.73,1.22c0.44,0.22,1.09,0.48,1.32-0.4   c0.2-0.74-0.45-0.87-0.8-0.9c-1.66-0.14-1.41-1.09-1.05-2.17c0.15-0.45,0.17-0.95,0.32-1.4c0.24-0.69,0.02-1.05-0.67-1.2   c-0.68-0.14-0.78,0.31-0.89,0.81C58.42,22.68,58.14,23.84,57.73,25.54z"></path>		<path class="st0" d="M71.58,77.07c0-2.43,0.06-4.86-0.02-7.28c-0.05-1.33,0.51-1.5,1.59-1.19c2.4,0.68,4.81,1.35,7.22,2   c0.89,0.24,1.28,0.69,1.27,1.7c-0.06,4.05-0.05,8.09,0,12.14c0.01,1.1-0.42,1.38-1.43,1.36c-2.43-0.05-4.86-0.05-7.28,0   c-1.09,0.03-1.38-0.43-1.36-1.44C71.62,81.93,71.58,79.5,71.58,77.07z"></path>		<path class="st0" d="M81.62,68.36c-3.12-0.84-5.98-1.62-8.85-2.38c-0.91-0.24-1.23-0.77-1.22-1.74c0.06-4.03,0.09-8.07-0.01-12.09   c-0.04-1.64,0.65-1.4,1.67-0.99c2.31,0.93,4.6,1.9,6.96,2.69c1.13,0.38,1.48,0.93,1.47,2.08C81.59,59.95,81.62,63.98,81.62,68.36z   "></path>		<path class="st0" d="M94.24,71.89c-3.17-0.86-6.03-1.64-8.89-2.41c-0.77-0.21-1.25-0.56-1.24-1.48c0.03-4.1,0.01-8.19,0.01-12.6   c3.22,1.22,6.18,2.36,9.16,3.45c0.86,0.31,0.97,0.91,0.97,1.7C94.22,64.25,94.24,67.95,94.24,71.89z"></path>		<path class="st0" d="M84.12,78.63c0-0.48,0-0.97,0-1.45c0-5.51,0-5.51,5.43-3.98c4.69,1.32,4.74,1.32,4.67,6.24   c-0.03,2.06,0.92,4.8-0.44,5.98c-1.17,1.02-3.83,0.34-5.83,0.36c-3.83,0.03-3.83,0.01-3.83-3.76   C84.12,80.89,84.12,79.76,84.12,78.63z"></path>		<path class="st0" d="M60.73,65.39c0,1.53-0.05,3.06,0.02,4.59c0.05,1.1-0.16,1.6-1.44,1.43c-2.47-0.33-4.96-0.6-7.45-0.71   c-1.29-0.06-1.6-0.53-1.57-1.74c0.08-3.22,0.07-6.45,0-9.67c-0.02-1.14,0.29-1.55,1.48-1.48c2.58,0.14,5.1,0.64,7.62,1.16   c1.03,0.21,1.45,0.72,1.37,1.83C60.64,62.33,60.72,63.86,60.73,65.39z"></path>		<path class="st0" d="M60.73,56.64c-3.18-0.55-6.15-1.32-9.22-1.26c-1.01,0.02-1.22-0.47-1.21-1.33c0.02-3.31,0.03-6.63,0-9.94   c-0.01-0.99,0.37-1.17,1.33-1.09c2.65,0.24,5.28,0.54,7.88,1.16c0.88,0.21,1.23,0.56,1.22,1.43   C60.71,49.25,60.73,52.88,60.73,56.64z"></path>		<path class="st0" d="M50.31,79.22c0-0.16,0-0.32,0-0.48c0.01-5.69,0.01-5.69,5.63-5.32c4.78,0.31,4.8,0.31,4.77,4.99   c-0.01,2.32,0.76,5.37-0.4,6.76c-1.22,1.46-4.38,0.36-6.69,0.42c-3.31,0.08-3.32,0.02-3.32-3.23   C50.31,81.31,50.31,80.26,50.31,79.22z"></path>		<path class="st0" d="M47.76,54.56c-3.06-1.66-6.01-0.92-8.86-1.01c-1.21-0.04-1.8-0.27-1.63-1.6c0.09-0.71,0.02-1.45,0.02-2.18   c0-5.76,0-5.76,5.73-6.46c4.74-0.58,4.74-0.58,4.75,4.17C47.77,49.72,47.76,51.97,47.76,54.56z"></path>		<path class="st0" d="M47.76,35.61c-0.01,4.8-0.01,4.77-4.91,5.24c-1.28,0.12-2.61,0.23-3.8,0.68c-1.79,0.67-1.87-0.19-1.78-1.54   c0.06-0.88,0.01-1.78,0.01-2.67c0-5.03,0-5.03,4.99-6.07C47.77,30.1,47.77,30.1,47.76,35.61z"></path>		<path class="st0" d="M50.31,35.34c0-5.02,0-5.02,4.98-4.19c5.44,0.91,5.44,0.91,5.44,6.42c0,4.27,0,4.25-4.14,3.48   c-1.18-0.22-2.4-0.41-3.6-0.37c-2.32,0.08-3.12-0.94-2.7-3.16C50.42,36.81,50.31,36.07,50.31,35.34z"></path>		<path class="st0" d="M69.02,60.4c-1.82-0.93-3.26-1.77-4.79-2.41c-0.84-0.35-1.04-0.85-1.04-1.65c0.02-3.14,0.03-6.28,0-9.41   c-0.01-1.09,0.17-1.42,1.36-0.9c3.72,1.61,4.47,2.61,4.47,6.6C69.02,55.11,69.02,57.61,69.02,60.4z"></path>		<path class="st0" d="M63.2,60.25c0.88,0.4,1.31,0.61,1.75,0.8c2.91,1.26,4.91,3.06,4.08,6.64c-0.11,0.46-0.01,0.97-0.01,1.45   c0.01,5.11-0.02,5.12-4.82,3.22c-0.69-0.28-1.02-0.64-1.01-1.41C63.22,67.49,63.2,64.04,63.2,60.25z"></path>		<path class="st0" d="M63.21,80.08c0-1.13,0.09-2.26-0.02-3.38c-0.2-1.98,0.57-2.06,2.22-1.53c3.59,1.16,3.62,1.08,3.62,4.79   c0,1.13-0.13,2.27,0.03,3.37c0.29,1.98-0.54,2.39-2.37,2.32c-3.47-0.13-3.47-0.03-3.47-3.41C63.21,81.53,63.21,80.8,63.21,80.08z"></path>		<path class="st0" d="M63.21,34.33c3.9,1.73,6.66,4.92,5.71,11.18c-1.56-0.76-3.11-1.52-4.65-2.28c-0.58-0.29-1.09-0.57-1.08-1.4   C63.24,39.36,63.21,36.89,63.21,34.33z"></path>		<path class="st0" d="M34.82,34.5c0,2.27-0.03,4.52,0.01,6.77c0.02,0.86-0.08,1.52-1,1.93c-1.58,0.7-3.12,1.52-4.69,2.3   C28.61,39.54,30.67,35.54,34.82,34.5z"></path>		<path class="st0" d="M22.97,87.05c-1.86-0.02-3.35-1.51-3.38-3.37c-0.03-1.95,1.56-3.53,3.5-3.49c1.81,0.03,3.4,1.6,3.43,3.38   C26.56,85.44,24.89,87.08,22.97,87.05z"></path>		<path class="st0" d="M34.82,45.38c0,1.97,0,3.47,0,4.98c0,3.15,0,3.19-3.19,3.12c-0.87-0.02-2.38,0.56-2.49-0.5   c-0.16-1.52-0.96-3.39,0.77-4.68c0.58-0.43,1.15-0.87,1.77-1.23C32.56,46.55,33.48,46.09,34.82,45.38z"></path>		<path class="st0" d="M36.54,80.19c1.86,0.05,3.28,1.53,3.28,3.42c0,2.02-1.49,3.48-3.5,3.43c-1.83-0.05-3.34-1.59-3.35-3.4   C32.97,81.73,34.62,80.13,36.54,80.19z"></path>		<path class="st0" d="M47.77,78.67c0,2.08-0.05,3.84,0.02,5.59c0.04,1.05-0.36,1.33-1.38,1.39c-3.58,0.21-4.08-0.14-3.75-2.95   c0.06-0.48,0.05-0.79,0.68-1.03C46.21,80.55,46.19,80.51,47.77,78.67z"></path>		<path class="st0" d="M47.88,65.71c0,1.57-0.02,2.72,0.01,3.88c0.02,0.91-0.39,1.39-1.29,1.27c-1.12-0.14-0.64-0.97-0.41-1.44   C46.72,68.34,46.67,66.98,47.88,65.71z"></path>		<path class="st0" d="M28.87,66.56c-2.66,0-5.34-0.19-7.98,0.06c-2.17,0.21-2.7-0.68-2.89-2.59c-0.33-3.11-0.43-3.11,2.6-3.11   c6.29,0,12.58,0.04,18.87-0.03c1.45-0.02,1.78,0.27,1.29,1.73c-1.3,3.91-1.24,3.93-5.35,3.93C33.23,66.56,31.05,66.56,28.87,66.56   z"></path>	</g></g></svg>