<svg xmlns="http://www.w3.org/2000/svg" xmlns:xlink="http://www.w3.org/1999/xlink" id="Layer_1" x="0px" y="0px" viewBox="0 0 100 100" style="enable-background:new 0 0 100 100;" xml:space="preserve"><style type="text/css">	.st0{fill:#C5D9DF;}	.st1{fill:#CBDDE3;}	.st2{fill:#D8E5EA;}	.st3{fill:#1C6983;}	.st4{fill:#FBFCFD;}</style><g>	<g>		<path class="st0" d="M-448.23-138.66c0.3-0.14,0.58-0.35,0.89-0.42c8.16-1.67,8.16-1.67,8.16-10.35c0-3.14-0.12-6.28,0.06-9.41   c0.2-3.47-1.38-4.75-4.7-4.65c-3.79,0.12-7.59,0.02-11.39,0.02c0,0,0.05,0.04,0.05,0.04c2.43-1.64,5.17-0.88,7.78-0.91   c8.65-0.09,17.3-0.04,25.94-0.06c6.26-0.01,6.53,0.31,5.57,7.27c0.85-6.13-2.79-6.66-7.27-6.4c-3.65,0.21-7.32,0.22-10.97,0.14   c-2.99-0.07-4.18,1.24-4.13,4.19c0.13,6.82,0.12,13.64,0.17,20.46C-441.46-138.7-444.84-138.68-448.23-138.66z"></path>		<path class="st0" d="M-431.23-138.64c2.24-0.93,3.27-2.49,3.13-5.04c-0.18-3.23-0.04-6.48-0.04-10.4   c2.91,5.52-3.52,14.2,6.97,15.48C-424.53-138.61-427.88-138.63-431.23-138.64z"></path>		<path class="st1" d="M-542-67.27c-0.06-6.24-0.57-11.4,0.74-16.5C-541.88-78.65-539.77-73.43-542-67.27z"></path>		<path class="st2" d="M-508.97,188.41c0-2.93,0-5.86,0-8.8c0.16-0.01,0.32-0.02,0.48-0.03c0,2.91,0,5.82,0,8.72   C-508.65,188.34-508.81,188.37-508.97,188.41z"></path>		<path class="st0" d="M-455.21-163.45c-0.04,0.78-0.09,1.56-0.16,2.7c-1.04-1.29-0.35-1.97,0.2-2.67   C-455.16-163.42-455.21-163.45-455.21-163.45z"></path>		<g>			<circle class="st3" cx="50" cy="50" r="43.56"></circle>			<path class="st4" d="M61.44,18.95c-0.35,0-0.71-0.01-1.06-0.01c-0.01-1.06-0.01-2.12-0.03-3.18c-0.01-0.46,0.18-0.66,0.64-0.65    c0.57,0.01,1.14,0.01,1.71-0.02c0.7-0.04,1.26,0.04,1.13,1c0.15-1.08,0.11-1.13-0.87-1.13c-1.34,0-2.69-0.01-4.03,0.01    c-0.4,0-0.83-0.11-1.21,0.14c-0.09,0.11-0.19,0.21-0.03,0.41c0.01-0.18,0.02-0.3,0.02-0.42c0.59,0,1.18,0.01,1.77,0    c0.52-0.02,0.76,0.18,0.73,0.72c-0.03,0.49-0.01,0.98-0.01,1.46c0,1.35,0,1.35-1.27,1.61c-0.05,0.01-0.09,0.04-0.14,0.07    c-2.98,0.2-5.85,0.79-8.35,2.53c-2.71,1.87-4.29,4.39-4.45,7.77c-0.17,3.61,0.21,7.19,0.44,10.77c0.05,0.7,0.19,1.39,0.21,2.08    c0.08,2.41,1.77,3.52,3.77,3.78c3.37,0.43,6.26-0.66,8.79-2.85c1.35-1.17,2.5-2.54,3.84-4.07c-0.01,1.75,0.22,3.29-0.12,4.84    c-0.07,0.32-0.37,0.41-0.6,0.57c-4.79,3.48-8.4,7.87-10.3,13.55c-1.01,3.04-1.37,6.2-1.48,9.39c-0.12,3.31-0.19,6.67-1.27,9.82    c-1.14,3.33-2.87,6.38-5.75,8.58c-2.23,1.71-4.83,2.12-7.57,1.97c-0.65-0.03-0.58-0.41-0.37-0.78c0.22-0.38,0.5-0.73,0.8-1.05    c1.56-1.63,2.18-3.67,2.82-5.77c1-3.31,1.13-6.71,1.41-10.11c0.32-3.85,1.08-7.63,2.5-11.24c1.1-2.8,2.99-5.07,5.14-7.12    c0.19-0.18,0.38-0.35,0.55-0.54c0.42-0.48,0.42-1.03,0.22-1.6c-0.21-0.62-0.72-0.39-1.12-0.36c-2.32,0.15-4.53-0.31-6.67-1.14    c-1.24-0.48-1.7-1.51-1.87-2.73c-0.05-0.38-0.08-0.78-0.07-1.16c0.03-0.87-0.27-1.56-0.97-2.09c-0.3-0.23-0.58-0.46-0.1-0.83    c0.3-0.24,0.48-0.57,0-0.86c-0.28-0.16-0.17-0.44-0.07-0.62c0.3-0.58,0.05-0.89-0.44-1.18c-0.51-0.3-0.97-0.7-1.47-1.01    c-0.47-0.28-0.46-0.64-0.26-1.06c0.05-0.12,0.12-0.23,0.2-0.33c2.01-2.72,2.19-5.79,1.67-8.97c-0.46-2.86-0.16-5.56,1.33-8.09    c0.76-1.3,1.8-2.33,3.1-3.09c3.27-1.91,6.82-2.94,10.57-3.3c3.48-0.33,6.98-0.44,10.47-0.3c1.09,0.04,1.25,0.18,1.19,1.25    c-0.08,1.6-0.26,3.2-0.39,4.8c-0.07,0.87-0.68,0.56-1.15,0.56c-1.63-0.2-0.63-1.55-1.08-2.41c0,0.61-0.02,1.11,0.01,1.62    C61.94,18.56,61.78,18.81,61.44,18.95z M44.21,30.05c0.35-0.96,0.02-1.77,0.11-2.57C44.12,28.28,44.2,29.08,44.21,30.05z     M49.35,69.81c0.02-0.01,0.05-0.01,0.07-0.02c0-0.45,0-0.9,0-1.36c-0.02,0-0.05,0-0.07,0C49.35,68.9,49.35,69.35,49.35,69.81z"></path>		</g>	</g></g></svg>