<svg xmlns="http://www.w3.org/2000/svg" xmlns:xlink="http://www.w3.org/1999/xlink" id="Layer_1" x="0px" y="0px" viewBox="0 0 100 100" style="enable-background:new 0 0 100 100;" xml:space="preserve"><style type="text/css">	.st0{fill:#FAFCFB;}	.st1{fill:#AFCA38;}	.st2{fill:#96C13E;}	.st3{fill:#F0F3C7;}	.st4{fill:#F1F3C5;}	.st5{fill:#EDF1BA;}	.st6{fill:#F1F4D4;}	.st7{fill:#EDF2CB;}	.st8{fill:#F3F5CF;}	.st9{fill:#F9FAE7;}	.st10{fill:#F8F9E2;}	.st11{fill:#FAFAE4;}	.st12{fill:#EAF0C7;}	.st13{fill:#E2E9A2;}	.st14{fill:#FCFCF7;}	.st15{fill:#EFF2BE;}</style><g>	<path class="st0" d="M15.22,77.01c0.08,0.09,0.17,0.19,0.25,0.28c-0.07,0.82,0.49,1.22,1.07,1.6c0.07,0.59,0.62,0.85,0.95,1.22  c1.11,1.25,2.21,2.55,3.63,3.49c0.29,0.19,0.59,0.53,0.8-0.08c0.2,0.08,0.4,0.17,0.59,0.25c0,0-0.02,0-0.02,0  c0.09,0.12,0.17,0.24,0.26,0.36c0.09,1.01,1.86,2.91,2.85,3.03c0.36,0.04,0.74,0,0.98,0.31c1.2,1.56,3.02,2.08,4.71,2.8  c0.73,0.31,1.2,1.23,2.06,1.14c1.9-0.21,3.38,1.06,5.19,1.34c2.19,0.33,4.33,1.05,6.59,1.1c0.26,0.36,0.52,0.37,0.81,0.03  c0.26,0,0.53,0.01,0.79,0.01c0.06,0.36,0.29,0.51,0.65,0.51c1.18,0,2.36,0,3.54,0c0.36,0,0.58-0.15,0.65-0.51  c0.7,0.07,1.4,0.14,2.1,0.21c0.37,0.03,0.75,0.09,0.84-0.43c0.71-0.02,1.42-0.05,2.13-0.07c1.33,0.49,2.49,0.21,3.49-0.78  c1.66-0.25,3.31-0.5,4.8-1.35c0.43,0.6,0.62,0.55,1.08-0.27c0.09-0.01,0.17-0.01,0.26-0.01c0.74-0.19,1.83,0.54,2.15-0.79  c0.57-0.86,1.52-1.04,2.4-1.36c0.85-0.12,1.79-0.11,1.9-1.32c0.01-0.15,0.01-0.29,0.02-0.44c0.05-0.07,0.11-0.1,0.19-0.11  c0.19,0.01,0.38,0.03,0.57,0.04c1.15,0.3,1.5-0.56,1.91-1.33c0.38-0.06,0.54-0.27,0.44-0.66c0.02-0.07,0.07-0.12,0.14-0.14  c0.24-0.01,0.48-0.02,0.72-0.03c0.22,0.3,0.45,0.19,0.66-0.01c1.02-0.94,2.07-1.85,3.02-2.86c0.46-0.48,1.46-0.75,0.99-1.77  c0,0,0.02-0.03,0.02-0.03c0.68,0.26,1.18,0.07,1.62-0.51c0.86-1.14,1.85-2.2,2.61-3.4c0.7-1.13,2.05-1.89,2.02-3.45  c0.01-0.08,0.02-0.17,0.02-0.25c1.2-0.97,1.93-2.22,2.13-3.75c0.09-0.1,0.18-0.2,0.27-0.3c1-0.9,0.97-2.29,1.57-3.39  c0.46-0.85,0.77-1.95,0.28-3.01c0,0,0.02,0.01,0.02,0.01c0.29-0.06,0.89,0.18,0.54-0.53c-0.16-0.96,0.72-1.71,0.53-2.68  c0.71-0.11,0.49-0.64,0.49-1.07c0.01-0.18,0.01-0.36,0.02-0.54c0.15-0.53,0.92-1.04,0.04-1.59c-0.08-0.09-0.16-0.18-0.24-0.27  c-0.03-0.53-0.05-1.06-0.08-1.59c0.05-0.08,0.11-0.16,0.16-0.24c0.8-0.12,0.86-0.51,0.42-1.1c0.01-0.35,0.01-0.69,0.02-1.04  c0.85-0.43,0.57-1.02,0.22-1.62c-0.08-0.54-0.16-1.08-0.23-1.61c0.16-0.84,1.26-1.78-0.26-2.44c-0.06-0.02-0.13-0.02-0.19,0  c-0.01-0.26-0.03-0.52-0.04-0.78c0.31-0.19,0.22-0.51,0.23-0.79c0.61-1.28-0.01-2.5-0.28-3.7c-0.13-0.56,0.05-1.4-0.79-1.67  c-0.09,0-0.18,0.01-0.27,0.01c-0.16-0.25-0.29-0.5-0.21-0.81c0.3-0.2,0.2-0.51,0.21-0.79c0.37-0.9,0.12-1.53-0.79-1.9  c0-0.17,0-0.34-0.01-0.51c0.7-1.32-0.25-1.98-1.09-2.67c-0.02-0.18-0.03-0.35-0.05-0.53c-0.34-0.95-0.59-1.96-1.06-2.83  c-0.49-0.9-1.22-1.68-1.84-2.52c0-0.17-0.01-0.35-0.01-0.52c-0.02-0.88-0.17-1.66-1.32-1.61c-1.43-2.39-3.23-4.48-5.37-6.24  c-0.91-0.75-1.51-1.79-2.63-2.38c-1.65-0.88-3.19-2.05-4.62-3.18c-1.18-0.93-2.57-1.38-3.76-2.21c-1.73-1.2-3.95-1.71-5.97-2.48  c-0.87-0.33-1.77-0.58-2.68-0.8c-0.43-0.1-1.01-0.34-1.16,0.43c-0.17-0.03-0.34-0.05-0.5-0.08c-0.01-0.22,0-0.52-0.23-0.58  c-0.3-0.08-0.32,0.21-0.34,0.43c-0.17-0.03-0.34-0.06-0.51-0.09c-0.01-0.3,0.01-0.64-0.39-0.68c-0.33-0.04-0.42,0.21-0.43,0.49  c-0.26-0.04-0.51-0.07-0.77-0.11c-0.08-0.5-0.48-0.44-0.83-0.45c-1.11-0.55-2.31-0.15-3.46-0.31c-0.09-0.14-0.17-0.4-0.27-0.41  c-1.61-0.16-3.22-0.16-4.83,0c-0.1,0.01-0.18,0.27-0.27,0.41c-2.42,0.05-4.8,0.48-7.19,0.84c-0.81,0.17-1.68,0.07-2.43,0.55  c-0.42-0.06-0.8,0.07-1.13,0.29c-1.36,0.93-2.99,1.2-4.46,1.84c-0.17-0.05-0.36-0.07-0.49-0.16c-0.46-0.34-1.18-1.66-0.93,0.3  c0.05,0.4-0.44,0.3-0.71,0.4c-0.93,0.34-1.92,0.61-2.43,1.6c-0.09,0.09-0.17,0.18-0.26,0.26c-0.53,0-0.79,0.27-0.82,0.79  c-1.29,0.51-2,1.82-3.26,2.38c-0.31,0.14-0.54,0.47-0.42,0.89c-0.29-0.02-0.57-0.04-0.86-0.05c-1.11-0.48-1.34,0.32-1.58,1.09  c-0.02,0.37-0.21,0.64-0.54,0.8c-0.65,0.08-1.21,0.28-1.39,1.02c-0.09,0.37-0.35,0.68-0.7,0.75c-1.1,0.22-1.24,1.09-1.4,1.95  c-0.67,0.46-0.85,1.27-1.34,1.87c-1.09,0.32-1.55,1.08-1.57,2.17c-0.46,1.01-1.4,1.76-1.63,2.92c-0.82,0.36-1.76,0.65-1.07,1.87  c-0.63,1.42-1.26,2.85-1.89,4.27c-0.83,0.61-0.94,1.47-0.83,2.4c0.01,0.1,0.01,0.19,0.02,0.29c0,0.08,0.01,0.16,0.01,0.24  c0.04,0.31,0.07,0.62,0.11,0.92c0.01,0.07-0.01,0.12-0.06,0.17c-0.27,0-0.51,0.06-0.53,0.39c-0.01,0.25,0.15,0.37,0.38,0.41  c-0.03,0.1-0.06,0.19-0.09,0.29c-1,0.3-0.94,1.24-1.12,1.99c-0.45,1.88-0.21,3.81-0.32,5.71C5.8,47.66,5.6,47.81,5.6,48.12  c0,1.35,0,2.71,0,4.06c0,0.31,0.21,0.45,0.49,0.52c0.01,0.79,0.03,1.59,0.04,2.38c0,0.1-0.01,0.19-0.01,0.29  c0.03,0.71-0.07,1.41,0.13,2.12c0.72,2.47,1.15,4.98,2.13,7.42c1.29,3.23,2.73,6.34,4.55,9.27c0.44,0.72,0.65,1.81,1.74,2.04  C14.67,76.61,14.66,77,15.22,77.01z"></path>	<path class="st1" d="M93.41,53.79c-0.05,0.08-0.11,0.16-0.16,0.24c-0.37,0.03-0.66-0.15-0.98-0.32c-2.25-1.24-4.26-2.83-6.51-4.08  c-2.69-1.49-5.17-3.33-7.84-4.85c-1.77-1.01-3.33-2.32-5.18-3.21c-1.58-0.76-2.96-1.9-4.49-2.78c-2.91-1.68-5.66-3.61-8.55-5.32  c-1.85-1.1-3.54-2.52-5.66-3.15c-0.56-1.09-1.35-1.81-2.68-1.67c-0.89-0.02-1.79-0.1-2.67,0.09c-1.89-0.18-2.86,0.72-2.94,2.84  c-0.32,8.4-3.27,15.91-7.58,23c-0.8,1.32-1.91,2.45-2.39,3.96l0.01,0c-0.73,0.31-1.1,0.9-1.26,1.65c-0.06,0.04-0.1,0.09-0.11,0.16  c-2.07,2.4-4.18,4.77-6.17,7.23c-0.7,0.87-0.59,2.02-0.06,3.03c0.24,0.46,0.57,0.83,1.14,0.39c0.51,0.27,0.85,0.78,1.28,1.08  c2.65,1.79,5.33,3.54,8.07,5.19c2.79,1.69,5.7,3.2,8.48,4.91c2.75,1.68,5.46,3.42,8.24,5.05c2.35,1.37,4.6,2.9,6.9,4.35  c-0.62,0.21-1.23,0.48-1.86,0.62c-1.97,0.43-3.95,0.8-5.93,1.19c-0.26,0.01-0.51,0.02-0.77,0.04c-2.6-0.01-5.19-0.02-7.79-0.03  c-0.26-0.02-0.53-0.03-0.79-0.05c-0.28-0.3-0.65-0.23-1-0.27c-7.49-0.99-14.22-3.87-20.3-8.31l0.01-0.09l-0.09,0.02  c-0.32-0.22-0.59-0.53-1.01-0.57c-0.09-0.12-0.17-0.24-0.26-0.36c0.01,0,0.01,0,0.02,0c-0.2-0.08-0.4-0.17-0.59-0.25  c-0.4-0.89-1.32-1.27-1.93-1.95c-0.02-0.32-0.18-0.51-0.52-0.51c-0.8-0.82-1.6-1.63-2.4-2.45c-0.3-0.49-0.61-0.97-1.08-1.33  c-0.16-0.6-0.47-1.09-1.02-1.4c-4.48-6.32-7.35-13.28-8.2-21c-0.55-5.03-0.17-10.04,0.75-15c0.03-0.1,0.06-0.19,0.09-0.29  c0.22-0.23,0.21-0.51,0.15-0.8c0.05-0.05,0.07-0.1,0.06-0.17c0.26-0.14,0.31-0.4,0.39-0.66c1.32-4.29,3.1-8.36,5.69-12.06  c0.98-1.4,1.95-2.82,2.92-4.23c0,0,0,0,0,0c0.46-0.09,0.51-0.45,0.51-0.82c0.43-0.26,0.91-0.47,1.13-0.98  c1.38-1.21,2.82-2.36,4.02-3.78c0.49-0.3,1-0.56,1.46-0.9c3.58-2.67,7.48-4.71,11.67-6.22c0.87-0.31,1.8-0.45,2.57-1  c0.18-0.03,0.36-0.07,0.54-0.1c0.18,0.01,0.36,0.06,0.52,0.01c5.45-1.53,11-1.46,16.57-1.1c0.27,0.21,0.56,0.21,0.86,0.08  c0.26,0.04,0.51,0.07,0.77,0.11c0.22,0.3,0.52,0.28,0.83,0.19c0.17,0.03,0.34,0.06,0.51,0.09c0.14,0.24,0.34,0.25,0.57,0.15  c0.17,0.03,0.34,0.05,0.5,0.08c0.2,0.3,0.54,0.28,0.84,0.35c3.65,0.86,7.07,2.32,10.33,4.15c4.45,2.5,8.36,5.65,11.72,9.52  c1.68,1.94,3.01,4.14,4.65,6.11c0.19,0.33,0.17,0.77,0.55,1c0.2,0.66,0.45,1.29,1.02,1.73c0.07,0.23,0.14,0.45,0.2,0.68  c-0.09,0.32,0.09,0.49,0.35,0.61c-0.01,0.08,0.02,0.14,0.08,0.19c-0.01,0.44,0.22,0.76,0.48,1.07c0.03,0.09,0.06,0.18,0.08,0.27  c0.52,1.73,1.03,3.45,1.85,5.07c-0.08,0.31,0.05,0.56,0.21,0.81c0,0.09,0,0.18,0.01,0.27c0.06,0.27,0.12,0.53,0.18,0.8  c-0.14,0.3,0.01,0.54,0.15,0.78c0.21,1.09,0.41,2.17,0.62,3.26c-0.11,0.37-0.19,0.73,0.16,1.03c0.01,0.26,0.03,0.52,0.04,0.78  c-0.1,0.48-0.17,0.95,0.1,1.4c0.01,0.34,0.02,0.68,0.04,1.02c-0.22,1.43-0.11,2.86-0.06,4.3C93.28,53.05,93.27,53.41,93.41,53.79z"></path>	<path class="st2" d="M62.3,91.59c-2.3-1.46-4.55-2.99-6.9-4.35c-2.79-1.62-5.5-3.36-8.24-5.05c-2.79-1.7-5.69-3.21-8.48-4.91  c-2.74-1.66-5.42-3.4-8.07-5.19c-0.44-0.3-0.77-0.81-1.28-1.08c0.53-0.59,1.09-1.17,1.59-1.78c1.74-2.11,3.74-4.01,5.1-6.41  l0.03-0.03c0.56-0.23,0.71-0.75,0.87-1.26c0.26-0.18,0.47-0.4,0.56-0.72c0.48-0.28,0.75-0.75,1.03-1.18  c4.26-6.47,7.64-13.33,9.23-20.98c0.63-3.04,1.12-6.1,0.93-9.23c0.15-0.22,0.11-0.46,0.02-0.69c0.89-0.19,1.78-0.11,2.67-0.09  c-0.05,0.18-0.1,0.35-0.16,0.53c-0.04,0.12-0.07,0.25-0.11,0.37c0.02,0.13,0.05,0.26,0.05,0.39c0.19,5.6,1.35,11,3.28,16.26  c1.8,4.92,4.36,9.44,7.25,13.77c2.54,3.81,5.55,7.28,8.66,10.64c0.79,0.85,1.14,0.74,1.57-0.35c0.51-1.27,0.15-2.36-0.72-3.32  c-2.42-2.67-4.68-5.46-6.76-8.4c-3.87-5.44-6.93-11.27-8.79-17.7c-0.99-3.44-1.29-6.98-1.6-10.53c2.12,0.63,3.8,2.05,5.66,3.15  c2.89,1.71,5.64,3.64,8.55,5.32c1.52,0.88,2.91,2.02,4.49,2.78c1.85,0.89,3.41,2.21,5.18,3.21c2.67,1.52,5.15,3.36,7.84,4.85  c2.25,1.24,4.27,2.84,6.51,4.08c0.32,0.18,0.61,0.35,0.98,0.32c0.03,0.53,0.05,1.06,0.08,1.59c-0.02,0.09-0.05,0.18-0.07,0.27  c-0.05,0.04-0.06,0.09-0.01,0.14c-0.34,0.63-0.4,1.31-0.44,2.01c-0.02,0.18-0.03,0.36-0.05,0.53c-0.36,1.05-0.62,2.12-0.78,3.21  c-0.01,0.18-0.02,0.35-0.03,0.53c0,0-0.02-0.01-0.02-0.01c-0.74,1.69-1.45,3.4-1.9,5.2c-0.48,0.38-0.65,0.92-0.76,1.49  c-0.09,0.17-0.17,0.34-0.26,0.51c-0.05,0.09-0.1,0.19-0.15,0.28c-0.14,0.31-0.29,0.63-0.43,0.94c-0.28,0.14-0.46,0.35-0.46,0.68  c-0.06,0.03-0.09,0.08-0.07,0.15c-0.5,0.34-0.68,0.86-0.81,1.41l0.01-0.01c-0.43,0.25-0.64,0.64-0.71,1.12  c-0.07,0.04-0.1,0.09-0.09,0.17c-0.68,0.51-1.19,1.16-1.47,1.97c-0.08,0.05-0.12,0.12-0.12,0.21c-0.27,0.11-0.44,0.28-0.42,0.59  c-0.26,0.21-0.55,0.38-0.66,0.73c-0.51,0.23-0.8,0.66-1,1.16l-0.03,0.03c-0.14,0-0.21,0.06-0.18,0.21  c-0.41,0.35-0.92,0.61-1.02,1.22c0,0-0.02,0.03-0.02,0.03c-0.86,0.57-1.61,1.27-2.28,2.05c-0.07,0.06-0.13,0.13-0.2,0.19  c-0.29,0.08-0.48,0.27-0.59,0.55c-0.1,0.08-0.19,0.16-0.29,0.24c-0.43,0.18-0.8,0.45-1.03,0.86c-0.46,0.1-0.86,0.27-1.01,0.78  c-0.07,0.02-0.12,0.07-0.14,0.14c-0.45,0.03-0.74,0.3-0.99,0.64c-0.32,0.11-0.64,0.22-0.82,0.55c-0.12,0.07-0.23,0.14-0.35,0.21  c-0.08-0.02-0.14,0.01-0.19,0.08c-0.31,0-0.51,0.16-0.58,0.46c-0.08,0.01-0.14,0.05-0.19,0.11c-0.34-0.06-0.54,0.13-0.7,0.39  c-0.07-0.02-0.11,0-0.14,0.06c-0.12,0.07-0.24,0.15-0.36,0.22c-0.08-0.02-0.13,0.01-0.17,0.08c-0.32,0.14-0.64,0.26-0.96,0.41  C67.78,89.68,65.22,91.1,62.3,91.59z"></path>	<path class="st3" d="M87.4,27.62c-1.64-1.96-2.96-4.16-4.65-6.11c-3.36-3.87-7.26-7.01-11.72-9.52c-3.27-1.84-6.68-3.29-10.33-4.15  c-0.29-0.07-0.63-0.05-0.84-0.35c0.14-0.78,0.73-0.54,1.16-0.43c0.9,0.22,1.81,0.47,2.68,0.8c2.03,0.76,4.24,1.28,5.97,2.48  c1.19,0.83,2.58,1.28,3.76,2.21c1.44,1.13,2.98,2.3,4.62,3.18c1.11,0.6,1.71,1.63,2.63,2.38c2.14,1.77,3.94,3.85,5.37,6.24  c-0.07,0.95,0.56,1.34,1.32,1.61c0,0.17,0.01,0.35,0.01,0.52C86.94,26.87,87.54,27.24,87.4,27.62z"></path>	<path class="st4" d="M7.52,39.89c-0.92,4.97-1.3,9.97-0.75,15c0.85,7.72,3.72,14.68,8.2,21c-0.01,0.11-0.03,0.21-0.04,0.32  c-0.09,0-0.17,0-0.26,0c-1.09-0.23-1.3-1.33-1.74-2.04c-1.82-2.93-3.25-6.04-4.55-9.27c-0.98-2.45-1.42-4.95-2.13-7.42  c-0.2-0.7-0.1-1.41-0.13-2.12c0.18-0.09,0.19-0.18,0.01-0.29c-0.01-0.79-0.03-1.59-0.04-2.38c0-1.7-0.01-3.41-0.01-5.11  c0.11-1.9-0.12-3.83,0.32-5.71C6.58,41.13,6.52,40.19,7.52,39.89z"></path>	<path class="st3" d="M22.76,84.13c0.42,0.04,0.69,0.35,1.01,0.57c0,0,0.08,0.07,0.08,0.07c6.08,4.44,12.81,7.32,20.3,8.31  c0.34,0.05,0.72-0.02,1,0.27c0,0.16,0,0.32,0,0.48c-2.26-0.05-4.41-0.77-6.59-1.1c-1.81-0.27-3.29-1.54-5.19-1.34  c-0.86,0.09-1.33-0.83-2.06-1.14c-1.7-0.72-3.51-1.24-4.71-2.8c-0.24-0.31-0.63-0.27-0.98-0.31  C24.62,87.04,22.86,85.14,22.76,84.13z"></path>	<path class="st5" d="M16.83,21.69c-0.97,1.41-1.94,2.83-2.92,4.23c-2.59,3.69-4.37,7.76-5.69,12.06c-0.08,0.26-0.13,0.52-0.39,0.66  c-0.04-0.31-0.07-0.61-0.11-0.92c0.2-0.09,0.19-0.17-0.01-0.24c-0.01-0.1-0.01-0.19-0.02-0.29c0.54-0.71,0.74-1.54,0.83-2.4  c0.63-1.42,1.26-2.85,1.89-4.27c0.48-0.55,0.96-1.1,1.07-1.87c0.22-1.15,1.16-1.9,1.63-2.92c0.85-0.49,1.25-1.3,1.57-2.17  c0.49-0.59,0.67-1.4,1.34-1.87C16.29,21.68,16.56,21.68,16.83,21.69z"></path>	<path class="st4" d="M38.19,8c-0.77,0.55-1.71,0.69-2.57,1c-4.19,1.51-8.1,3.55-11.67,6.22c-0.46,0.34-0.97,0.6-1.46,0.9  c-0.12-0.42,0.11-0.75,0.42-0.89c1.27-0.55,1.97-1.87,3.26-2.38c0.51-0.02,0.78-0.28,0.82-0.79c0.09-0.09,0.17-0.18,0.26-0.26  c1.25-0.45,2.51-0.9,3.76-1.37c0.35-0.13,0.76-0.28,0.8-0.77c1.48-0.64,3.1-0.91,4.46-1.84c0.33-0.22,0.71-0.35,1.13-0.29  C37.67,7.69,37.93,7.84,38.19,8z"></path>	<path class="st3" d="M62.3,91.59c2.93-0.48,5.48-1.91,8.11-3.16c0.31-0.15,0.64-0.28,0.96-0.41c-0.18,0.33-0.36,0.67-0.54,1  c-0.87,0.33-1.83,0.5-2.4,1.36c-0.83-0.03-1.64-0.04-2.15,0.79c-0.09,0-0.17,0.01-0.26,0.01c-0.36,0.09-0.72,0.18-1.08,0.27  c-1.49,0.85-3.14,1.1-4.8,1.35c-1.21,0.06-2.36,0.39-3.49,0.78c-0.71,0.02-1.42,0.05-2.13,0.07c-0.02-0.09-0.02-0.17-0.02-0.26  c1.98-0.39,3.96-0.77,5.93-1.19C61.07,92.07,61.68,91.8,62.3,91.59z"></path>	<path class="st4" d="M55.82,6.81c-5.57-0.36-11.13-0.43-16.57,1.1C39.09,7.96,38.9,7.9,38.73,7.9c0.09-0.63,1.1-0.16,1.1-0.91  c2.39-0.36,4.77-0.79,7.19-0.84c1.79,0,3.58,0,5.37-0.01c1.15,0.16,2.35-0.25,3.46,0.31C55.84,6.56,55.83,6.68,55.82,6.81z"></path>	<path class="st6" d="M84.71,76.43c0-0.09,0.04-0.16,0.12-0.21c0.9-0.35,1.31-1.07,1.47-1.97c-0.01-0.08,0.02-0.14,0.09-0.17  c0.6-0.15,0.7-0.6,0.71-1.12c0,0-0.01,0.01-0.01,0.01c0.19,0.01,0.38,0.02,0.57,0.03c0.04,1.56-1.32,2.32-2.02,3.45  c-0.75,1.21-1.75,2.26-2.61,3.4c-0.44,0.58-0.94,0.77-1.62,0.51c0.09-0.61,0.61-0.87,1.02-1.22c0.06-0.07,0.12-0.14,0.18-0.21  c0,0,0.03-0.03,0.03-0.03c0.61-0.14,1.01-0.47,1-1.16c0.1-0.35,0.4-0.52,0.66-0.73C84.64,76.98,84.74,76.75,84.71,76.43z"></path>	<path class="st3" d="M19.99,81.58c0.61,0.68,1.53,1.06,1.93,1.95c-0.21,0.61-0.51,0.27-0.8,0.07c-1.42-0.94-2.52-2.24-3.63-3.49  c-0.33-0.37-0.89-0.63-0.95-1.22c0.12-0.21,0.31-0.27,0.53-0.27c0.8,0.82,1.6,1.63,2.4,2.45C19.5,81.39,19.68,81.55,19.99,81.58z"></path>	<path class="st7" d="M90.03,67.5c0.45-1.8,1.16-3.51,1.9-5.2c0.48,1.05,0.17,2.15-0.28,3.01c-0.6,1.11-0.57,2.49-1.57,3.39  C90.06,68.3,90.04,67.9,90.03,67.5z"></path>	<path class="st6" d="M77,84.29c0.24-0.42,0.6-0.68,1.03-0.86c0.1-0.08,0.19-0.16,0.29-0.24c0.11-0.28,0.3-0.46,0.59-0.55  c0.07-0.06,0.13-0.13,0.2-0.19c0.67-0.79,1.42-1.48,2.28-2.05c0.46,1.02-0.54,1.29-0.99,1.77c-0.95,1.01-2.01,1.91-3.02,2.86  c-0.21,0.2-0.44,0.31-0.66,0.01C76.81,84.79,76.9,84.54,77,84.29z"></path>	<path class="st3" d="M45.94,93.41c2.6,0.01,5.19,0.02,7.79,0.03c-0.02,0.22-0.03,0.44-0.05,0.66c-0.7-0.07-1.4-0.14-2.1-0.21  c-1.61,0-3.23,0-4.84,0c-0.26,0-0.53-0.01-0.79-0.01C45.95,93.72,45.95,93.56,45.94,93.41z"></path>	<path class="st8" d="M93.18,44.16c-0.21-1.09-0.41-2.17-0.62-3.26c0.27-0.32,0.27-0.6-0.15-0.78c-0.06-0.27-0.12-0.53-0.18-0.8  c0.09-0.09,0.18-0.19,0.26-0.28c0.84,0.27,0.66,1.11,0.79,1.67c0.27,1.2,0.9,2.42,0.28,3.7C93.44,44.32,93.31,44.24,93.18,44.16z"></path>	<path class="st8" d="M87.4,27.62c0.14-0.38-0.46-0.75-0.01-1.13c0.62,0.83,1.35,1.61,1.84,2.52c0.48,0.88,0.72,1.88,1.06,2.83  c-0.23,0-0.46-0.01-0.69-0.01c-0.07-0.05-0.1-0.11-0.08-0.19c0.03-0.29-0.02-0.53-0.35-0.61c-0.07-0.23-0.14-0.45-0.2-0.68  c-0.08-0.73-0.18-1.45-1.02-1.73C87.57,28.39,87.59,27.95,87.4,27.62z"></path>	<path class="st9" d="M31.81,9.66c-0.04,0.49-0.44,0.63-0.8,0.77c-1.25,0.48-2.51,0.92-3.76,1.37c0.51-0.99,1.5-1.26,2.43-1.6  c0.27-0.1,0.76,0,0.71-0.4c-0.25-1.96,0.47-0.64,0.93-0.3C31.45,9.59,31.64,9.61,31.81,9.66z"></path>	<path class="st4" d="M22.49,16.12c-1.19,1.41-2.63,2.56-4.02,3.78c-0.17-0.92,0.81-1.23,1.04-1.94c0.34-0.16,0.52-0.42,0.54-0.8  c0.79,0.02,1.21-0.5,1.58-1.09C21.91,16.08,22.2,16.1,22.49,16.12z"></path>	<path class="st10" d="M19.51,17.95c-0.23,0.71-1.21,1.02-1.04,1.94c-0.22,0.5-0.7,0.71-1.13,0.98c-0.33,0.17-0.41,0.51-0.51,0.82  c0,0,0,0,0,0c-0.27,0-0.54-0.01-0.82-0.01c0.17-0.86,0.3-1.73,1.4-1.95c0.35-0.07,0.61-0.38,0.7-0.75  C18.3,18.23,18.85,18.03,19.51,17.95z"></path>	<path class="st9" d="M52.39,6.14c-1.79,0-3.58,0-5.37,0.01c0.09-0.14,0.17-0.4,0.27-0.41c1.61-0.17,3.22-0.16,4.83,0  C52.22,5.74,52.3,5.99,52.39,6.14z"></path>	<path class="st3" d="M92.01,38.24c-0.82-1.62-1.33-3.35-1.85-5.07c0.88,0.31,0.7,1.34,1.26,1.88c0,0.17,0,0.34,0.01,0.51  c0.11,0.69,0.43,1.3,0.79,1.9C92.22,37.73,92.31,38.03,92.01,38.24z"></path>	<path class="st11" d="M6.08,47.59c0,1.7,0.01,3.41,0.01,5.11c-0.28-0.07-0.49-0.21-0.49-0.52c-0.01-1.35-0.01-2.71,0-4.06  C5.6,47.81,5.8,47.66,6.08,47.59z"></path>	<path class="st6" d="M87.89,71.55c-0.02-0.07,0.01-0.12,0.07-0.15c0.42-0.04,0.52-0.3,0.46-0.68c0.14-0.31,0.29-0.63,0.43-0.94  c0.05-0.09,0.1-0.19,0.15-0.28c0.09-0.17,0.17-0.34,0.26-0.51c0.18,0,0.36,0,0.54,0c-0.2,1.54-0.92,2.78-2.13,3.75  C87.75,72.35,87.82,71.95,87.89,71.55z"></path>	<path class="st11" d="M46.75,93.88c1.61,0,3.23,0,4.84,0c-0.07,0.36-0.29,0.51-0.65,0.51c-1.18,0-2.36,0-3.54,0  C47.04,94.39,46.81,94.24,46.75,93.88z"></path>	<path class="st3" d="M93.45,52.69c-0.05-1.43-0.17-2.87,0.06-4.3c0.11,0.01,0.22,0.01,0.32,0.02c0.08,0.54,0.16,1.08,0.23,1.61  c-0.44,0.49-0.17,1.08-0.22,1.62c-0.01,0.35-0.01,0.69-0.02,1.04C93.7,52.69,93.57,52.69,93.45,52.69z"></path>	<path class="st11" d="M56.66,93.59c1.13-0.39,2.28-0.72,3.49-0.78C59.14,93.8,57.99,94.08,56.66,93.59z"></path>	<path class="st8" d="M91.42,35.04c-0.56-0.53-0.37-1.56-1.26-1.88c-0.03-0.09-0.06-0.18-0.08-0.27c0.01-0.21,0.05-0.41,0.26-0.53  C91.18,33.07,92.12,33.72,91.42,35.04z"></path>	<path class="st6" d="M73.51,86.69c0.04-0.07,0.11-0.1,0.19-0.08c0.12-0.07,0.23-0.14,0.35-0.21c0.18-0.33,0.5-0.44,0.82-0.55  c0.18,0.01,0.36,0.01,0.55,0.02c-0.41,0.76-0.75,1.63-1.91,1.33C73.5,87.03,73.5,86.86,73.51,86.69z"></path>	<path class="st6" d="M70.82,89.02c0.18-0.33,0.36-0.67,0.54-1c0.04-0.07,0.09-0.09,0.17-0.08c0.12-0.07,0.24-0.15,0.36-0.22  c0.03-0.06,0.07-0.08,0.14-0.06c0.23,0.02,0.45,0.03,0.68,0.05C72.62,88.91,71.67,88.9,70.82,89.02z"></path>	<path class="st12" d="M91.98,61.78c0.15-1.1,0.41-2.17,0.78-3.21c0.21,0.12,0.25,0.31,0.26,0.53c0.19,0.97-0.69,1.72-0.53,2.68  C92.32,61.78,92.15,61.78,91.98,61.78z"></path>	<path class="st10" d="M14.67,23.54c-0.32,0.87-0.72,1.69-1.57,2.17C13.12,24.63,13.58,23.86,14.67,23.54z"></path>	<path class="st11" d="M87.37,25.97c-0.76-0.27-1.39-0.66-1.32-1.61C87.2,24.32,87.36,25.09,87.37,25.97z"></path>	<path class="st6" d="M17.08,78.62c-0.23,0-0.42,0.06-0.53,0.27c-0.58-0.38-1.14-0.78-1.07-1.6c0.17,0,0.35,0,0.52,0.01  C16.47,77.65,16.78,78.13,17.08,78.62z"></path>	<path class="st11" d="M11.47,28.63c-0.11,0.77-0.59,1.31-1.07,1.87C9.71,29.28,10.65,28.98,11.47,28.63z"></path>	<path class="st9" d="M66.28,91.18c0.51-0.83,1.32-0.83,2.15-0.79C68.11,91.73,67.02,91,66.28,91.18z"></path>	<path class="st10" d="M39.83,6.99c0,0.75-1.01,0.28-1.1,0.91c-0.18,0.03-0.36,0.07-0.54,0.1c-0.26-0.16-0.53-0.31-0.79-0.47  C38.15,7.06,39.02,7.16,39.83,6.99z"></path>	<path class="st8" d="M93.83,48.41c-0.11-0.01-0.22-0.01-0.32-0.02c-0.01-0.34-0.02-0.68-0.04-1.02c0.71-0.42,0-0.94,0.1-1.4  C95.1,46.63,93.99,47.57,93.83,48.41z"></path>	<path class="st11" d="M21.63,16.06c-0.37,0.59-0.79,1.11-1.58,1.09C20.29,16.38,20.52,15.58,21.63,16.06z"></path>	<path class="st10" d="M8.52,34.77c-0.09,0.87-0.29,1.69-0.83,2.4C7.58,36.24,7.69,35.38,8.52,34.77z"></path>	<path class="st8" d="M92.22,37.45c-0.36-0.59-0.68-1.2-0.79-1.9C92.34,35.91,92.6,36.55,92.22,37.45z"></path>	<path class="st8" d="M93.25,56.03c-0.05-0.05-0.05-0.09,0.01-0.14c0.11,0,0.21,0,0.32,0c0.88,0.56,0.11,1.06-0.04,1.59  C93.1,57.06,93.38,56.51,93.25,56.03z"></path>	<path class="st8" d="M93.45,52.69c0.13,0,0.25,0,0.38,0c0.44,0.59,0.39,0.98-0.42,1.1C93.27,53.41,93.28,53.05,93.45,52.69z"></path>	<path class="st3" d="M93.25,56.03c0.13,0.48-0.14,1.03,0.28,1.45c-0.01,0.18-0.01,0.36-0.02,0.54c-0.23,0-0.47,0.01-0.7,0.01  C92.85,57.34,92.91,56.66,93.25,56.03z"></path>	<path class="st8" d="M93.84,51.64c0.05-0.54-0.22-1.13,0.22-1.62C94.41,50.62,94.69,51.21,93.84,51.64z"></path>	<path class="st12" d="M89.8,68.99c-0.18,0-0.36,0-0.54,0c0.11-0.57,0.29-1.11,0.76-1.49c0.02,0.4,0.03,0.8,0.05,1.2  C89.99,68.79,89.9,68.89,89.8,68.99z"></path>	<path class="st13" d="M16,77.29c-0.17,0-0.35,0-0.52-0.01c-0.08-0.09-0.17-0.19-0.25-0.28c-0.09-0.26-0.19-0.53-0.28-0.79  c0.01-0.11,0.03-0.21,0.04-0.32C15.53,76.21,15.84,76.7,16,77.29z"></path>	<path class="st8" d="M92.81,58.04c0.23,0,0.47-0.01,0.7-0.01c0,0.43,0.22,0.96-0.49,1.07c-0.01-0.22-0.05-0.41-0.26-0.53  C92.78,58.39,92.79,58.21,92.81,58.04z"></path>	<path class="st12" d="M87.89,71.55c-0.07,0.4-0.14,0.79-0.21,1.19c0,0.08-0.01,0.17-0.02,0.25c-0.19-0.01-0.38-0.02-0.57-0.03  C87.21,72.41,87.39,71.89,87.89,71.55z"></path>	<path class="st3" d="M58.28,7.18c-0.31,0.09-0.61,0.11-0.83-0.19c0.01-0.28,0.1-0.53,0.43-0.49C58.29,6.55,58.27,6.89,58.28,7.18z"></path>	<path class="st11" d="M45.94,93.41c0,0.15,0.01,0.31,0.01,0.46c-0.28,0.34-0.55,0.33-0.81-0.03c0-0.16,0-0.32,0-0.48  C45.42,93.38,45.68,93.39,45.94,93.41z"></path>	<path class="st11" d="M53.68,94.09c0.02-0.22,0.03-0.44,0.05-0.66c0.26-0.01,0.51-0.02,0.77-0.04c0,0.09,0,0.17,0.02,0.26  C54.44,94.18,54.06,94.13,53.68,94.09z"></path>	<path class="st3" d="M90.34,32.37c-0.21,0.12-0.24,0.32-0.26,0.53c-0.26-0.31-0.5-0.63-0.48-1.07c0.23,0,0.46,0.01,0.69,0.01  C90.31,32.02,90.32,32.19,90.34,32.37z"></path>	<path class="st12" d="M77,84.29c-0.1,0.25-0.19,0.5-0.29,0.75c-0.24,0.01-0.48,0.02-0.72,0.03C76.13,84.56,76.54,84.39,77,84.29z"></path>	<path class="st3" d="M93.57,45.97c-0.1,0.46,0.61,0.98-0.1,1.4c-0.26-0.45-0.2-0.93-0.1-1.4C93.44,45.96,93.51,45.96,93.57,45.97z"></path>	<path class="st9" d="M64.94,91.46c0.36-0.09,0.72-0.18,1.08-0.27C65.57,92.02,65.37,92.06,64.94,91.46z"></path>	<path class="st9" d="M26.99,12.06c-0.03,0.51-0.31,0.77-0.82,0.79C26.2,12.33,26.46,12.06,26.99,12.06z"></path>	<path class="st12" d="M75.41,85.87c-0.18-0.01-0.36-0.01-0.55-0.02c0.25-0.34,0.54-0.61,0.99-0.64  C75.95,85.59,75.79,85.8,75.41,85.87z"></path>	<path class="st3" d="M93.18,44.16c0.13,0.08,0.26,0.16,0.39,0.24c-0.01,0.28,0.08,0.6-0.23,0.79  C92.99,44.89,93.07,44.53,93.18,44.16z"></path>	<path class="st3" d="M59.36,7.42c-0.23,0.1-0.43,0.09-0.57-0.15c0.02-0.22,0.04-0.51,0.34-0.43C59.36,6.9,59.35,7.19,59.36,7.42z"></path>	<path class="st3" d="M55.82,6.81c0.01-0.12,0.02-0.24,0.03-0.36c0.35,0.01,0.74-0.06,0.83,0.45C56.38,7.02,56.09,7.01,55.82,6.81z"></path>	<path class="st4" d="M7.76,38.8c0.06,0.29,0.07,0.57-0.15,0.8c-0.23-0.04-0.39-0.16-0.38-0.41C7.25,38.86,7.49,38.8,7.76,38.8z"></path>	<path class="st10" d="M91.98,61.78c0.17,0,0.34,0,0.51-0.01c0.35,0.72-0.25,0.47-0.54,0.53C91.96,62.13,91.97,61.96,91.98,61.78z"></path>	<path class="st6" d="M14.94,76.22c0.09,0.26,0.19,0.53,0.28,0.79c-0.55-0.01-0.55-0.4-0.54-0.79  C14.76,76.21,14.85,76.21,14.94,76.22z"></path>	<path class="st3" d="M72.72,87.71c-0.23-0.02-0.45-0.03-0.68-0.05c0.16-0.26,0.36-0.45,0.7-0.39  C72.73,87.41,72.72,87.56,72.72,87.71z"></path>	<path class="st3" d="M73.51,86.69c0,0.17-0.01,0.33-0.01,0.5c-0.19-0.01-0.38-0.03-0.57-0.04C73,86.85,73.19,86.7,73.51,86.69z"></path>	<path class="st13" d="M22.52,83.78c-0.01,0-0.01,0-0.02,0C22.5,83.77,22.52,83.78,22.52,83.78z"></path>	<path class="st3" d="M92.5,39.04c-0.09,0.09-0.18,0.19-0.26,0.28c0-0.09,0-0.18-0.01-0.27C92.31,39.04,92.41,39.04,92.5,39.04z"></path>	<path class="st11" d="M6.13,55.08c0.18,0.1,0.17,0.2-0.01,0.29C6.13,55.27,6.13,55.18,6.13,55.08z"></path>	<path class="st10" d="M7.71,37.47c0.2,0.07,0.21,0.15,0.01,0.24C7.71,37.63,7.71,37.55,7.71,37.47z"></path>	<path class="st3" d="M93.57,55.89c-0.11,0-0.21,0-0.32,0c0.02-0.09,0.05-0.18,0.07-0.27C93.41,55.71,93.49,55.8,93.57,55.89z"></path>	<path class="st7" d="M51.2,29.18c0.05-0.18,0.1-0.35,0.16-0.53c1.33-0.14,2.12,0.58,2.68,1.67c0.31,3.54,0.61,7.08,1.6,10.53  c1.86,6.44,4.92,12.26,8.79,17.7c2.09,2.94,4.35,5.73,6.76,8.4c0.87,0.96,1.22,2.05,0.72,3.32c-0.44,1.1-0.79,1.2-1.57,0.35  c-3.11-3.37-6.12-6.83-8.66-10.64c-2.89-4.33-5.45-8.84-7.25-13.77c-1.93-5.26-3.09-10.66-3.28-16.26c0-0.13-0.03-0.26-0.05-0.4  C51.13,29.43,51.17,29.3,51.2,29.18z M51.57,30.69c0.03,0.17,0.1,0.38,0.12,0.6c0.22,2.38,0.95,4.67,1.26,7.04  c0.27,2.05,0.56,4.2,1.42,6.05c0.97,2.09,1.5,4.42,3.08,6.23c0.54,0.62,0.1,1.77,0.75,2.34c1.63,1.45,1.72,3.77,3.34,5.32  c0.96,0.92,1.64,2.42,2.44,3.63c1.71,2.57,3.85,4.85,5.99,7.09c0.33,0.34,0.61,0.75,1.09,0.37c0.55-0.43,0.16-0.85-0.12-1.26  c-1.21-1.79-2.84-3.23-4.09-5.01c-1.89-2.69-4.22-5.08-5.59-8.11c-0.81-1.77-2.26-3.15-2.8-5.09c-0.41-1.46-1.24-2.79-1.85-4.19  c-0.69-1.59-1.31-3.21-1.77-4.85c-0.71-2.51-0.83-5.14-1.14-7.73c-0.12-1.04-0.31-2.11-0.99-2.97c-0.21-0.27-0.49-0.59-0.9-0.37  C51.48,29.97,51.61,30.34,51.57,30.69z"></path>	<path class="st14" d="M37.47,60.82c-0.09,0.32-0.3,0.54-0.56,0.72c-0.91-0.01-0.82,0.67-0.87,1.26c0,0-0.03,0.03-0.03,0.03  c-0.98-0.2-1.48,0.48-1.91,1.14c-1.31,2-2.65,3.95-4.59,5.42c-0.29,0.22-0.46,0.57-0.86,0.3c-0.42-0.28-0.41-0.7-0.14-1.05  c0.68-0.86,1.34-1.77,2.14-2.51c1.55-1.43,2.47-3.32,3.7-4.98c0.13-0.18,0.05-0.51,0.07-0.77c0.01-0.07,0.05-0.13,0.11-0.16  c0.16-0.01,0.32-0.01,0.48-0.02c0.23,0.27,0.62,0.59,0.84,0.39c0.35-0.33-0.05-0.66-0.31-0.93c0.08-0.36,0.17-0.73,0.25-1.09  c0,0-0.01,0-0.01,0c0.48,0.07,0.7-0.31,1-0.56c1.13-0.93,1.49-2.35,2.22-3.53c1.77-2.84,3.49-5.69,4.31-8.98  c0.99-0.15,0.85-1,1.02-1.65c0-0.25,0.01-0.5,0.01-0.75c0.26-0.12,0.3-0.33,0.26-0.58c0.02-0.34,0.03-0.68,0.05-1.02  c0.36-0.02,0.54-0.2,0.5-0.57c0.07-0.79,0.03-1.57,0.22-2.37c0.41-1.76,0.79-3.53,0.9-5.34c0.93-0.32,0.36-1.09,0.49-1.64  c-0.02-0.68,0.12-1.32,0.56-1.86c1.49,0.66,0.6,1.96,0.81,2.97c-1.03,0.34-1.13,1.08-0.27,1.87c-0.4,2.57-1.19,5.06-1.86,7.56  c-0.79,2.93-1.56,5.9-3.14,8.51c-1.03,1.71-1.5,3.73-2.99,5.17c-0.17,0.16-0.28,0.47-0.28,0.71c0.01,0.67-0.35,1.14-0.85,1.41  C37.49,58.54,37.27,59.58,37.47,60.82z"></path>	<path class="st15" d="M43.3,45.47c-0.82,3.29-2.54,6.14-4.31,8.98c-0.74,1.18-1.09,2.59-2.22,3.53c-0.3,0.25-0.52,0.63-1,0.56  c0.48-1.51,1.59-2.64,2.39-3.96c4.31-7.09,7.27-14.6,7.58-23c0.08-2.13,1.05-3.03,2.94-2.84c0.08,0.23,0.12,0.46-0.02,0.69  c-0.44,0.17-1.09-0.83-1.37,0.24c-0.44,0.55-0.58,1.18-0.56,1.86c-0.9,0.33-0.36,1.08-0.49,1.64c-0.11,1.81-0.49,3.58-0.9,5.34  c-0.19,0.8-0.15,1.58-0.22,2.37c-0.33,0.05-0.51,0.23-0.5,0.57c-0.02,0.34-0.03,0.68-0.05,1.02c-0.3,0.1-0.62,0.19-0.26,0.58  c0,0.25-0.01,0.5-0.01,0.75C43.58,44.12,43.46,44.81,43.3,45.47z"></path>	<path class="st3" d="M34.41,60.36c-0.02,0.26,0.06,0.59-0.07,0.77c-1.23,1.66-2.15,3.54-3.7,4.98c-0.8,0.74-1.46,1.65-2.14,2.51  c-0.27,0.34-0.28,0.76,0.14,1.05c0.41,0.28,0.57-0.08,0.86-0.3c1.95-1.46,3.28-3.42,4.59-5.42c0.43-0.66,0.93-1.34,1.91-1.14  c-1.36,2.4-3.36,4.3-5.1,6.41c-0.51,0.61-1.06,1.19-1.59,1.78c-0.58,0.45-0.9,0.07-1.14-0.39c-0.53-1.02-0.64-2.16,0.06-3.03  C30.23,65.13,32.35,62.76,34.41,60.36z"></path>	<path class="st3" d="M35.78,58.54c-0.08,0.36-0.17,0.73-0.25,1.09c-0.26,0.1-0.44,0.28-0.53,0.54c-0.16,0.01-0.32,0.01-0.48,0.02  C34.68,59.45,35.04,58.85,35.78,58.54z"></path>	<path class="st3" d="M87.94,28.62c0.84,0.28,0.94,1,1.02,1.73C88.4,29.91,88.14,29.28,87.94,28.62z"></path>	<path class="st3" d="M92.41,40.12c0.43,0.19,0.42,0.46,0.15,0.78C92.41,40.66,92.27,40.42,92.41,40.12z"></path>	<path class="st13" d="M19.99,81.58c-0.32-0.02-0.5-0.18-0.52-0.51C19.81,81.07,19.97,81.25,19.99,81.58z"></path>	<path class="st5" d="M16.83,21.69c0.11-0.31,0.18-0.65,0.51-0.82C17.33,21.24,17.29,21.6,16.83,21.69z"></path>	<path class="st3" d="M89.17,31.03c0.32,0.09,0.38,0.32,0.35,0.61C89.25,31.52,89.08,31.35,89.17,31.03z"></path>	<polygon class="st13" points="23.85,84.77 23.77,84.7 23.86,84.68  "></polygon>	<path class="st7" d="M47.29,29.67c0.28-1.07,0.93-0.07,1.37-0.24c0.2,3.13-0.3,6.19-0.93,9.23c-1.59,7.64-4.97,14.51-9.23,20.98  c-0.29,0.44-0.56,0.9-1.03,1.18c-0.2-1.24,0.02-2.27,1.25-2.94c0.5-0.27,0.86-0.74,0.85-1.41c0-0.24,0.11-0.55,0.28-0.71  c1.49-1.44,1.96-3.47,2.99-5.17c1.57-2.61,2.35-5.58,3.14-8.51c0.67-2.51,1.46-4.99,1.86-7.56c0.51-0.56,0.17-1.25,0.27-1.87  C47.89,31.63,48.78,30.33,47.29,29.67z"></path>	<path class="st12" d="M86.3,74.25c-0.16,0.9-0.57,1.62-1.47,1.97C85.11,75.41,85.62,74.77,86.3,74.25z"></path>	<path class="st3" d="M36.04,62.79c0.05-0.59-0.04-1.27,0.87-1.26C36.75,62.04,36.6,62.56,36.04,62.79z"></path>	<path class="st12" d="M83.64,77.75c0.01,0.68-0.39,1.01-1,1.16C82.84,78.41,83.13,77.99,83.64,77.75z"></path>	<path class="st12" d="M87.1,72.96c-0.01,0.52-0.11,0.97-0.71,1.12C86.46,73.6,86.67,73.21,87.1,72.96z"></path>	<path class="st12" d="M88.42,70.73c0.07,0.37-0.03,0.63-0.46,0.68C87.96,71.07,88.14,70.87,88.42,70.73z"></path>	<path class="st12" d="M84.71,76.43c0.03,0.32-0.07,0.54-0.42,0.59C84.27,76.71,84.44,76.54,84.71,76.43z"></path>	<path class="st12" d="M89,69.5c-0.05,0.09-0.1,0.19-0.15,0.28C88.9,69.69,88.95,69.6,89,69.5z"></path>	<path class="st12" d="M79.11,82.45c-0.07,0.06-0.13,0.13-0.2,0.19C78.97,82.58,79.04,82.51,79.11,82.45z"></path>	<path class="st3" d="M71.9,87.72c-0.12,0.07-0.24,0.15-0.36,0.22C71.65,87.87,71.77,87.79,71.9,87.72z"></path>	<path class="st12" d="M78.32,83.19c-0.1,0.08-0.19,0.16-0.29,0.24C78.13,83.35,78.22,83.27,78.32,83.19z"></path>	<path class="st1" d="M51.2,29.18c-0.04,0.12-0.07,0.25-0.11,0.37C51.13,29.43,51.17,29.3,51.2,29.18z"></path>	<path class="st12" d="M82.61,78.93c-0.06,0.07-0.12,0.14-0.18,0.21C82.39,78.99,82.47,78.94,82.61,78.93z"></path>	<path class="st3" d="M74.04,86.4c-0.11,0.07-0.23,0.14-0.35,0.21C73.81,86.54,73.93,86.47,74.04,86.4z"></path>	<path class="st14" d="M51.57,30.69c0.04-0.35-0.09-0.72,0.24-0.9c0.41-0.22,0.69,0.1,0.9,0.37c0.68,0.87,0.87,1.94,0.99,2.97  c0.31,2.59,0.43,5.23,1.14,7.73c0.46,1.64,1.08,3.26,1.77,4.85c0.61,1.39,1.44,2.73,1.85,4.19c0.54,1.93,2,3.32,2.8,5.09  c1.38,3.03,3.7,5.42,5.59,8.11c1.25,1.78,2.88,3.22,4.09,5.01c0.28,0.42,0.67,0.84,0.12,1.26c-0.48,0.37-0.76-0.03-1.09-0.37  c-2.14-2.24-4.28-4.52-5.99-7.09c-0.8-1.21-1.48-2.71-2.44-3.63c-1.62-1.55-1.71-3.88-3.34-5.32c-0.64-0.57-0.2-1.72-0.75-2.34  c-1.59-1.81-2.12-4.14-3.08-6.23c-0.85-1.84-1.15-4-1.42-6.05c-0.31-2.37-1.04-4.66-1.26-7.04C51.67,31.07,51.61,30.86,51.57,30.69  z"></path>	<path class="st9" d="M48.11,32.64c-0.1,0.62,0.24,1.31-0.27,1.87C46.97,33.71,47.08,32.98,48.11,32.64z"></path>	<path class="st11" d="M43.3,45.47c0.17-0.66,0.28-1.35,1.02-1.65C44.14,44.47,44.28,45.32,43.3,45.47z"></path>	<path class="st11" d="M46.25,33.18c0.13-0.56-0.41-1.31,0.49-1.64C46.6,32.09,47.18,32.86,46.25,33.18z"></path>	<path class="st11" d="M35,60.18c0.1-0.26,0.27-0.44,0.53-0.54c0.26,0.27,0.66,0.6,0.31,0.93C35.62,60.77,35.22,60.45,35,60.18z"></path>	<path class="st11" d="M44.32,43.07c-0.37-0.39-0.04-0.48,0.26-0.58C44.62,42.73,44.58,42.95,44.32,43.07z"></path>	<path class="st11" d="M44.63,41.46c-0.01-0.34,0.17-0.52,0.5-0.57C45.17,41.26,44.99,41.44,44.63,41.46z"></path></g></svg>