<svg xmlns="http://www.w3.org/2000/svg" xmlns:xlink="http://www.w3.org/1999/xlink" id="Layer_1" x="0px" y="0px" viewBox="0 0 100 100" style="enable-background:new 0 0 100 100;" xml:space="preserve"><style type="text/css">	.st0{fill:#DA2227;}</style><g>	<g>		<path class="st0" d="M7.1,52.19c-0.18-0.35-0.16-0.68,0.04-1.01c7.96-0.05,15.91-0.1,23.87-0.14c4.08-0.02,8.15,0.01,12.23-0.05   c0.88-0.01,2.15,0,1.84-1.45c-0.21-0.97-1.2-0.74-1.96-0.73c-10.29-2.6-15.11-13.09-14.94-21.13c0.18-8.39,6.75-18.38,17.51-20.2   c3.22-0.16,3.68,1.74,3.65,4.44c-0.1,9.91-0.11,19.82,0.05,29.73c0.02,1.21-1.83,4.54,2.25,3.46c0.28,3.74,4.41,2.68,5.98,4.81   c0.19,0.66,0.37,1.33,0.56,1.99c-1.52-0.24-3.04-0.55-4.58-0.71c-1.82-0.2-3.19,0.26-2.8,2.53c1.9,11.1,0.39,22.28,0.84,33.42   c0.1,2.59-0.36,5.37,3.6,5.21c-3.6,1.98-5.31,1.36-5.27-3.18c0.1-9.99-0.11-19.99-0.21-29.98c0-0.16-0.17-0.32-0.62-1.08   c-5.88,10.31-14.27,15.77-26.12,12.79c-7.71-1.94-13.08-6.88-15.01-14.95C8.27,54.56,8.23,53.24,7.1,52.19z"></path>		<path class="st0" d="M57.63,49.92c-1.57-2.13-5.7-1.08-5.98-4.81c0-0.81-0.01-1.61-0.01-2.42c0.54-1.48,1.08-2.96,1.62-4.44   c2.88-2.63,4.92-6.3,9.13-7.26c0.39-0.03,0.7-0.21,0.92-0.53c12.39-4.88,23.78,0.07,28.5,12.39c-0.02,0.34,0.09,0.63,0.35,0.86   c0.99,1.55,1.07,3.24,0.73,4.99c-0.38,0.36-0.75,0.73-1.13,1.09C80.37,49.83,69,49.88,57.63,49.92z"></path>		<path class="st0" d="M55.25,92.35c-3.96,0.17-3.5-2.61-3.6-5.21c-0.45-11.13,1.06-22.32-0.84-33.42c-0.39-2.27,0.98-2.73,2.8-2.53   c1.53,0.17,3.05,0.47,4.58,0.71c2.66,0.55,4.69,2.12,6.48,4.06c0.3,0.31,0.6,0.62,0.9,0.94l0.3,0.07c0,0-0.04,0.3-0.04,0.3   c0.13,0.36,0.37,0.64,0.71,0.83c0.36,0.03,0.52,0.23,0.47,0.59c0,0,0.27,0.36,0.27,0.36C76.68,71.64,70.59,88.53,55.25,92.35z"></path>		<path class="st0" d="M51.63,42.69c0,0.81,0.01,1.61,0.01,2.42c-4.07,1.07-2.23-2.25-2.25-3.46c-0.17-9.91-0.16-19.82-0.05-29.73   c0.03-2.71-0.43-4.6-3.65-4.44c1.59-1.17,3.19-1.2,4.78-0.02c-0.01,9.96-0.08,19.93,0.01,29.89   C50.51,39.13,49.5,41.29,51.63,42.69z"></path>		<path class="st0" d="M43.12,48.8c0.76-0.01,1.75-0.24,1.96,0.73c0.31,1.46-0.95,1.44-1.84,1.45c-4.07,0.06-8.15,0.03-12.23,0.05   c-7.96,0.04-15.91,0.09-23.87,0.14c1.14-2.5,3.37-1.22,5.05-1.25c8.51-0.14,17.02-0.01,25.54-0.11   C39.53,49.79,41.63,50.69,43.12,48.8z"></path>		<path class="st0" d="M51.63,42.69c-2.13-1.4-1.12-3.56-1.14-5.35c-0.1-9.96-0.03-19.93-0.01-29.89c2.7,7.8,0.41,15.85,1.21,23.74   c0.24,2.4-1.08,5.18,1.56,7.06C52.71,39.73,52.17,41.21,51.63,42.69z"></path>		<path class="st0" d="M7.1,52.19c1.12,1.05,1.17,2.37,0.91,3.76C6.89,54.89,6.78,53.59,7.1,52.19z"></path>		<path class="st0" d="M63.3,30.45c-0.22,0.32-0.53,0.5-0.92,0.53C62.69,30.81,62.99,30.63,63.3,30.45z"></path>		<path class="st0" d="M92.14,43.71c-0.25-0.23-0.37-0.52-0.35-0.86c0,0,0.43,0.34,0.43,0.34L92.14,43.71z"></path>		<path class="st0" d="M91.74,49.79c0.38-0.36,0.75-0.73,1.13-1.09C93.06,49.64,92.62,49.94,91.74,49.79z"></path>		<path class="st0" d="M65.57,56.9c-0.3-0.31-0.6-0.63-0.9-0.94C64.97,56.28,65.27,56.59,65.57,56.9z"></path>		<path class="st0" d="M66.54,58.11c-0.34-0.19-0.58-0.46-0.71-0.83C66.07,57.56,66.3,57.83,66.54,58.11z"></path>		<polygon class="st0" points="67.28,59.05 67.01,58.7 67.35,58.75   "></polygon>	</g></g></svg>