<svg xmlns="http://www.w3.org/2000/svg" xmlns:xlink="http://www.w3.org/1999/xlink" id="Layer_1" x="0px" y="0px" viewBox="0 0 100 100" style="enable-background:new 0 0 100 100;" xml:space="preserve"><style type="text/css">	.st0{fill:#FDFDFD;}	.st1{fill:#1E84C6;}	.st2{fill:#1F84C6;}	.st3{fill:#1D84C6;}	.st4{fill:#3A8ACA;}</style><g>	<g>		<path class="st0" d="M52.3,17.07c-0.04,0.18-0.08,0.35-0.12,0.53c0,3.26,0,6.51,0,9.77c-0.05,0.34,0.09,0.54,0.44,0.57   c4.69,1.91,5.69,3.39,5.69,8.49c0,2.05,0.06,4.11-0.07,6.15c-0.08,1.19,0.16,1.7,1.47,1.69c6.15-0.05,12.31-0.04,18.46-0.01   c1.08,0.01,1.53-0.37,1.53-1.48c0.02-2.74-0.02-5.47-0.67-8.15c-2.85-11.86-13.97-19.17-26.92-17.7   c-0.03-2.73-0.22-5.47-0.05-8.19c0.13-2.11-0.65-2.66-2.61-2.51c-2.13,0.15-4.27,0.1-6.41,0.01c-1.43-0.06-2.19,0.2-2.16,1.92   c0.03,1.65,0.86,1.77,2.11,1.72c1.19-0.05,2.39-0.03,3.59,0c0.56,0.02,1.45-0.17,1.44,0.64c-0.02,2.15,0.77,4.4-0.55,6.44   c-15.46-2.04-28.63,10.55-27.09,25.82c0.16,1.59,1.03,1.47,2.07,1.47c5.81-0.01,11.62-0.04,17.43,0.02   c1.46,0.01,2.19-0.2,1.99-1.95c-0.22-1.94-0.07-3.92-0.07-5.89c0-5.12,1-6.61,5.68-8.49c0.36-0.03,0.49-0.24,0.45-0.58   c0-3.26,0-6.51,0-9.77c1.21-1.35,2.83-0.3,4.2-0.7L52.3,17.07z M79.69,61.63c0-4.26-0.09-7.77,0.04-11.27   c0.07-1.82-0.31-2.66-2.36-2.51c-2.55,0.18-5.14,0.16-7.69,0.01c-1.83-0.11-2.3,0.54-2.28,2.31c0.1,6.59,0.07,13.17,0.03,19.76   c-0.04,7.01-4.76,11.71-11.79,11.79c-3.59,0.04-7.19,0.02-10.78,0c-7.51-0.04-12.15-4.68-12.17-12.19c-0.01-6.5-0.06-13,0.03-19.5   c0.02-1.67-0.46-2.25-2.15-2.17c-2.65,0.13-5.31,0.15-7.95-0.01c-1.91-0.12-2.25,0.68-2.23,2.38c0.08,6.76-0.01,13.52,0.05,20.27   c0.1,11.16,7.72,20.45,18.7,22.59c6,1.17,12.12,0.52,18.17,0.45c11.13-0.13,20.58-8.79,22.1-19.86   C80,69.43,79.5,65.15,79.69,61.63z M44.38,38.08c0,1.02-0.01,2.05,0,3.07c0.05,3.24,1.47,4.7,4.64,4.78   c0.94,0.02,1.88,0.05,2.81-0.03c2.29-0.18,3.79-1.63,3.88-3.95c0.1-2.47,0.07-4.94,0.01-7.42c-0.05-2.05-1.21-3.35-3.11-3.9   c-5.3-1.54-8.24,0.68-8.24,6.16C44.38,37.23,44.38,37.65,44.38,38.08z"></path>		<path class="st1" d="M79.69,61.63c-0.2,3.52,0.3,7.8-0.28,12.06c-1.52,11.07-10.97,19.73-22.1,19.86   c-6.05,0.07-12.17,0.72-18.17-0.45c-10.98-2.15-18.61-11.43-18.7-22.59c-0.06-6.76,0.04-13.52-0.05-20.27   c-0.02-1.7,0.31-2.49,2.23-2.38c2.64,0.16,5.31,0.13,7.95,0.01c1.7-0.08,2.18,0.5,2.15,2.17c-0.09,6.5-0.05,13-0.03,19.5   c0.02,7.5,4.66,12.15,12.17,12.19c3.59,0.02,7.19,0.03,10.78,0c7.03-0.08,11.75-4.78,11.79-11.79c0.04-6.59,0.07-13.17-0.03-19.76   c-0.03-1.77,0.44-2.42,2.28-2.31c2.56,0.15,5.14,0.18,7.69-0.01c2.05-0.15,2.43,0.69,2.36,2.51   C79.61,53.86,79.69,57.37,79.69,61.63z"></path>		<path class="st2" d="M52.19,27.36c0-3.26,0-6.51,0-9.77c0.06-0.04,0.17-0.08,0.17-0.13c0-0.13-0.03-0.26-0.06-0.4   c0,0-0.16-0.18-0.16-0.18c0,0-0.03,0.04-0.03,0.04c12.95-1.47,24.07,5.84,26.92,17.7c0.64,2.68,0.69,5.41,0.67,8.15   c-0.01,1.11-0.45,1.49-1.53,1.48c-6.15-0.03-12.31-0.04-18.46,0.01c-1.3,0.01-1.54-0.5-1.47-1.69c0.13-2.04,0.07-4.1,0.07-6.15   c0-5.1-0.99-6.58-5.69-8.49C52.48,27.74,52.33,27.55,52.19,27.36z"></path>		<path class="st1" d="M47.94,17.59c0,3.26,0,6.51,0,9.77c-0.15,0.19-0.3,0.39-0.45,0.58c-4.68,1.88-5.68,3.37-5.68,8.49   c0,1.97-0.15,3.95,0.07,5.89c0.2,1.75-0.53,1.97-1.99,1.95c-5.81-0.06-11.62-0.03-17.43-0.02c-1.04,0-1.91,0.12-2.07-1.47   c-1.54-15.28,11.63-27.87,27.09-25.82C47.63,17.17,47.79,17.38,47.94,17.59z"></path>		<path class="st3" d="M44.38,38.08c0-0.43,0-0.85,0-1.28c0-5.49,2.94-7.7,8.24-6.16c1.9,0.55,3.06,1.85,3.11,3.9   c0.05,2.47,0.09,4.95-0.01,7.42c-0.1,2.31-1.59,3.77-3.88,3.95c-0.93,0.07-1.88,0.05-2.81,0.03c-3.17-0.08-4.59-1.54-4.64-4.78   C44.36,40.13,44.38,39.1,44.38,38.08z"></path>		<path class="st4" d="M47.94,17.59c-0.16-0.21-0.31-0.42-0.47-0.63c1.32-2.04,0.53-4.29,0.55-6.44c0.01-0.81-0.88-0.63-1.44-0.64   c-1.2-0.03-2.39-0.05-3.59,0c-1.25,0.06-2.08-0.06-2.11-1.72c-0.03-1.71,0.73-1.98,2.16-1.92c2.13,0.09,4.28,0.14,6.41-0.01   c1.96-0.14,2.74,0.41,2.61,2.51c-0.17,2.72,0.02,5.46,0.05,8.19c0,0,0.03-0.04,0.02-0.04C50.77,17.29,49.16,16.24,47.94,17.59z"></path>		<path class="st4" d="M52.3,17.07c0.02,0.13,0.06,0.27,0.06,0.4c0,0.05-0.11,0.09-0.17,0.13C52.23,17.42,52.27,17.24,52.3,17.07z"></path>		<path class="st4" d="M47.49,27.94c0.15-0.19,0.3-0.39,0.45-0.58C47.98,27.7,47.85,27.91,47.49,27.94z"></path>		<path class="st4" d="M52.19,27.36c0.15,0.19,0.29,0.38,0.44,0.57C52.28,27.9,52.14,27.7,52.19,27.36z"></path>	</g></g></svg>