<svg xmlns="http://www.w3.org/2000/svg" xmlns:xlink="http://www.w3.org/1999/xlink" id="Layer_1" x="0px" y="0px" viewBox="0 0 100 100" style="enable-background:new 0 0 100 100;" xml:space="preserve"><style type="text/css">	.st0{fill:#4DC0B2;}	.st1{fill:#912B8D;}	.st2{fill:#DF1669;}	.st3{fill:#1168B2;}	.st4{fill:#FFE500;}	.st5{fill:#9CC43D;}	.st6{fill:#49AC48;}	.st7{fill:#62328E;}	.st8{fill:#B5248E;}	.st9{fill:#EE3029;}	.st10{fill:#C9D42C;}	.st11{fill:#E25B26;}	.st12{fill:#F6B01A;}	.st13{fill:#03A7DA;}	.st14{fill:#035592;}	.st15{fill:#FFFFFF;}	.st16{fill:#83C341;}	.st17{fill:#1F9E86;}	.st18{fill:#F36B33;}	.st19{fill:#D9215C;}	.st20{fill:#B41F6A;}	.st21{fill:#7B2980;}	.st22{fill:#B51E50;}	.st23{fill:#D91D63;}	.st24{fill:#FDD600;}	.st25{fill:#F78E21;}</style><g>	<polygon class="st0" points="90.85,27.53 70.43,39.06 90.85,50.68  "></polygon>	<polygon class="st1" points="29.57,39.15 9.15,50.59 29.57,62.21  "></polygon>	<polygon class="st2" points="29.57,62.21 9.15,73.74 29.57,85.36  "></polygon>	<polygon class="st3" points="70.43,16 50,27.53 70.43,39.15  "></polygon>	<polygon class="st4" points="70.43,62.21 50,73.74 70.43,85.36  "></polygon>	<polygon class="st5" points="90.85,50.68 70.43,62.12 90.85,73.74  "></polygon>	<polygon class="st6" points="70.43,39.15 90.85,50.59 70.43,62.21  "></polygon>	<polygon class="st7" points="9.15,27.53 29.57,39.06 9.15,50.68  "></polygon>	<polygon class="st8" points="9.15,50.68 29.57,62.12 9.15,73.74  "></polygon>	<polygon class="st9" points="29.57,62.21 50,73.74 29.57,85.36  "></polygon>	<polygon class="st10" points="70.43,62.21 90.85,73.74 70.43,85.36  "></polygon>	<polygon class="st11" points="50,73.74 29.57,85.27 50,96.89  "></polygon>	<polygon class="st12" points="50,73.74 70.43,85.27 50,96.89  "></polygon>	<polygon class="st13" points="70.43,16 90.85,27.53 70.43,39.15  "></polygon>	<polygon class="st14" points="50,4.47 70.43,15.91 50,27.53  "></polygon>	<polygon class="st15" points="38.2,52.41 55.45,41.97 55.54,62.21 49.55,52.32  "></polygon>	<polygon class="st16" points="22.95,21.81 22.95,25.71 26.94,25.71  "></polygon>	<polygon class="st17" points="26.94,25.71 27.03,21.81 23.04,21.72  "></polygon>	<polygon class="st18" points="35.66,25.44 35.66,28.71 38.92,28.71  "></polygon>	<polygon class="st19" points="38.92,28.8 39.01,25.53 35.66,25.44  "></polygon>	<polygon class="st20" points="38.29,13.28 38.29,18.72 43.83,18.72  "></polygon>	<polygon class="st21" points="43.74,18.72 43.92,13.37 38.38,13.28  "></polygon>	<polygon class="st22" points="12.14,12.55 12.14,18.72 18.41,18.72  "></polygon>	<polygon class="st23" points="18.32,18.72 18.5,12.64 12.23,12.55  "></polygon>	<polygon class="st24" points="22.95,3.2 22.95,13.28 33.3,13.28  "></polygon>	<polygon class="st25" points="33.11,13.46 33.39,3.29 23.13,3.11  "></polygon></g></svg>