<svg xmlns="http://www.w3.org/2000/svg" xmlns:xlink="http://www.w3.org/1999/xlink" id="Layer_1" x="0px" y="0px" viewBox="0 0 100 100" style="enable-background:new 0 0 100 100;" xml:space="preserve"><style type="text/css">	.st0{fill:#2470B8;}	.st1{fill:#126DB6;}	.st2{fill:#196EB7;}	.st3{fill:#186EB7;}	.st4{fill:#1C6FB7;}	.st5{fill:#156EB7;}	.st6{fill:#1E6FB8;}	.st7{fill:#2771B9;}	.st8{fill:#F8F9FC;}	.st9{fill:#FDFDFE;}	.st10{fill:#F7F8FC;}</style><g>	<g>		<path class="st0" d="M97.65,36.87c-0.09,0.06-0.07,0.17-0.09,0.25c-0.35,1.29-1.46,2.09-2.67,1.9c-1.14-0.17-2.02-1.27-2.06-2.56   c-0.04-1.29,0.8-2.45,1.97-2.7c1.19-0.26,2.39,0.55,2.75,1.84c0.03,0.1,0.02,0.22,0.1,0.31C97.65,36.23,97.65,36.55,97.65,36.87z    M95.25,34.08c-1.16,0-2.09,1.02-2.09,2.31c0,1.28,0.93,2.31,2.09,2.31c1.15,0,2.09-1.04,2.09-2.31   C97.34,35.11,96.41,34.08,95.25,34.08z"></path>		<path class="st1" d="M77.63,57.74c-0.13,0-0.2,0-0.28,0c-2.27,0-4.54,0-6.81,0c-0.17,0-0.27-0.05-0.38-0.21   c-1.79-2.66-3.68-5.23-5.54-7.83c-0.03-0.04-0.06-0.07-0.09-0.11c-0.08,0.09-0.04,0.2-0.04,0.3c0,2.51-0.01,5.02,0,7.53   c0,0.27-0.07,0.32-0.3,0.32c-1.83-0.01-3.67-0.01-5.5,0c-0.22,0-0.26-0.07-0.26-0.3c0.01-9.38,0.01-18.75,0-28.13   c0-0.23,0.05-0.3,0.26-0.3c1.84,0.01,3.68,0.01,5.53,0c0.25,0,0.27,0.09,0.27,0.32c-0.01,5.27,0,10.53,0,15.8   c0,0.11,0,0.22,0,0.41c0.45-0.64,0.85-1.21,1.25-1.78c1.42-1.99,2.86-3.97,4.26-5.98c0.27-0.39,0.53-0.54,0.98-0.54   c1.98,0.03,3.96,0.01,5.94,0.01c0.03,0.14-0.07,0.19-0.13,0.26c-2.24,3.09-4.48,6.18-6.72,9.26c-0.13,0.18-0.15,0.28-0.01,0.47   c2.49,3.43,4.97,6.86,7.45,10.29C77.54,57.6,77.57,57.65,77.63,57.74z"></path>		<path class="st1" d="M23.85,47.01c0.02-0.97-0.04-2.17,0.03-3.37c0.1-1.76,0.83-3.15,2.03-4.27c1.38-1.27,2.96-2.01,4.75-2.22   c2-0.24,3.99-0.14,5.92,0.53c1.88,0.64,3.34,1.85,4.14,3.9c0.19,0.5,0.28,1.04,0.32,1.57c0.08,1.21,0.1,2.43-0.35,3.58   c-0.66,1.7-1.92,2.61-3.49,3.05c-1.33,0.38-2.68,0.47-4.05,0.47c-1.39-0.01-2.78,0-4.16-0.01c-0.22,0-0.28,0.07-0.27,0.31   c0.04,1.14,0.6,2,1.62,2.42c0.48,0.2,0.97,0.32,1.48,0.33c2.44,0.06,4.88-0.06,7.28-0.61c0.47-0.11,0.93-0.25,1.37-0.46   c0.17-0.08,0.2-0.04,0.2,0.15c-0.01,1.36-0.01,2.73,0,4.09c0,0.18-0.05,0.24-0.21,0.27c-1.77,0.37-3.56,0.66-5.36,0.84   c-1.37,0.14-2.73,0.21-4.1,0.16c-1.16-0.04-2.3-0.24-3.38-0.73c-1.96-0.88-3.17-2.43-3.56-4.75c-0.13-0.77-0.2-1.53-0.2-2.31   C23.85,49.04,23.85,48.14,23.85,47.01z M31.22,46.42C31.22,46.42,31.22,46.42,31.22,46.42c0.73-0.01,1.46,0.01,2.18-0.01   c0.62-0.02,1.23-0.1,1.8-0.39c0.34-0.17,0.66-0.4,0.81-0.79c0.39-1.02,0.25-2.09-0.79-2.71c-0.16-0.1-0.34-0.18-0.52-0.25   c-1.05-0.43-2.13-0.41-3.22-0.3c-0.75,0.07-1.44,0.31-2.03,0.86c-0.48,0.45-0.77,1-0.74,1.72c0.02,0.53,0.01,1.06,0,1.59   c-0.01,0.21,0.04,0.29,0.25,0.29C29.72,46.41,30.47,46.42,31.22,46.42z"></path>		<path class="st1" d="M94.17,47.51c0,1.16,0.03,2.33-0.01,3.49c-0.06,1.91-0.87,3.39-2.2,4.55c-1.31,1.14-2.81,1.8-4.45,2.05   c-2.11,0.31-4.19,0.18-6.22-0.55c-1.73-0.63-3.08-1.77-3.89-3.63c-0.24-0.55-0.35-1.13-0.4-1.72c-0.09-1.14-0.12-2.29,0.24-3.4   c0.58-1.77,1.81-2.73,3.38-3.23c1.37-0.43,2.78-0.53,4.2-0.53c1.4,0.01,2.79-0.01,4.19,0.01c0.27,0,0.32-0.1,0.3-0.36   c-0.08-1.17-0.62-1.95-1.61-2.37c-0.46-0.19-0.94-0.3-1.43-0.32c-2.12-0.1-4.21,0.01-6.2,0.95c-0.16,0.08-0.18,0.03-0.18-0.14   c0-1.38,0.01-2.77,0-4.15c0-0.18,0.09-0.22,0.21-0.26c0.92-0.35,1.87-0.54,2.83-0.67c1.36-0.18,2.73-0.22,4.1-0.17   c1.12,0.04,2.22,0.22,3.26,0.67c2.04,0.87,3.3,2.46,3.7,4.86c0.12,0.73,0.18,1.46,0.19,2.2c0,0.91,0,1.82,0,2.73   C94.19,47.51,94.18,47.51,94.17,47.51z M89.33,49.47c0-0.3-0.01-0.61,0-0.91c0-0.15-0.03-0.21-0.18-0.21   c-1.52,0.01-3.03,0-4.55,0.02c-0.62,0.01-1.22,0.13-1.8,0.4c-1.22,0.57-1.24,2.48-0.32,3.2c0.28,0.22,0.58,0.39,0.9,0.53   c1.03,0.42,2.1,0.43,3.17,0.31c0.72-0.07,1.39-0.31,1.96-0.82c0.53-0.48,0.86-1.07,0.82-1.86C89.32,49.91,89.33,49.69,89.33,49.47   z"></path>		<path class="st1" d="M11.8,50.72c0.28-0.73,0.53-1.39,0.79-2.05c1.42-3.71,2.84-7.41,4.26-11.12c0.08-0.22,0.18-0.29,0.39-0.28   c1.64,0.01,3.27,0.01,4.91,0c0.15,0,0.24-0.01,0.17,0.22c-1.29,4.14-2.66,8.24-4.4,12.19c-0.87,1.97-1.81,3.89-3.06,5.6   c-0.54,0.74-1.13,1.42-1.87,1.93c-1.12,0.77-2.19,0.72-3.25-0.14c-0.66-0.53-1.17-1.22-1.62-1.96c-1.1-1.8-1.87-3.78-2.57-5.79   c-1.3-3.78-2.26-7.67-3.14-11.59c-0.11-0.49-0.11-0.49,0.35-0.49c1.6,0.01,3.2,0.03,4.8,0.03c0.21,0,0.29,0.07,0.35,0.28   c1.27,4.33,2.55,8.66,3.83,12.99C11.76,50.58,11.77,50.61,11.8,50.72z"></path>		<path class="st1" d="M49.49,38.54c0.67-0.45,1.34-0.77,2.05-0.98c1.29-0.38,2.59-0.34,3.9-0.15c0.27,0.04,0.54,0.1,0.81,0.15   c0.12,0.02,0.18,0.06,0.18,0.21c-0.01,1.8,0,3.6-0.01,5.4c0,0.01-0.01,0.03-0.03,0.06c-0.5-0.36-1.03-0.65-1.62-0.8   c-2.68-0.68-5.03,1.1-5.49,4.08c-0.07,0.47-0.1,0.94-0.09,1.41c0,3.14,0,6.29,0.01,9.43c0,0.24-0.04,0.32-0.28,0.32   c-1.62-0.01-3.24-0.01-4.86,0c-0.18,0-0.25-0.03-0.25-0.26c0.02-6.64,0.02-13.28,0.02-19.92c0-0.29,0.07-0.35,0.32-0.35   c1.7,0.01,3.39,0.01,5.09,0c0.18,0,0.26,0.04,0.25,0.26C49.48,37.77,49.49,38.13,49.49,38.54z"></path>		<path class="st2" d="M84.14,66.16c0-1.14,0-2.27,0-3.41c0-0.2,0.05-0.25,0.23-0.25c0.73,0.01,1.46,0,2.18,0.01   c1.22,0.02,2.18,1.01,2.27,2.37c0.06,0.92,0.06,1.84-0.01,2.75c-0.09,1.14-1.05,2.15-2.12,2.2c-0.79,0.04-1.58,0.01-2.36,0.02   c-0.19,0-0.18-0.11-0.18-0.25C84.14,68.45,84.14,67.31,84.14,66.16z M85.16,66.19c0,0.79,0,1.59,0,2.38   c0,0.11-0.03,0.24,0.14,0.23c0.48-0.02,0.96,0.04,1.44-0.05c0.53-0.09,0.98-0.55,1.04-1.1c0.11-0.96,0.11-1.93,0-2.89   c-0.07-0.64-0.6-1.15-1.18-1.19c-0.4-0.03-0.8,0-1.21-0.02c-0.2-0.01-0.24,0.07-0.24,0.28C85.17,64.62,85.16,65.4,85.16,66.19z"></path>		<path class="st3" d="M23.85,66.17c0-1.13,0.01-2.25-0.01-3.38c0-0.24,0.06-0.3,0.27-0.29c0.69,0.01,1.39,0,2.08,0.01   c1.28,0.01,2.23,0.98,2.33,2.39c0.07,0.91,0.06,1.82-0.01,2.72c-0.09,1.13-1.03,2.15-2.09,2.21c-0.8,0.05-1.61,0.01-2.42,0.02   c-0.18,0-0.16-0.11-0.16-0.24C23.85,68.47,23.85,67.32,23.85,66.17z M24.87,66.17c0,0.79,0,1.59,0,2.38c0,0.1-0.06,0.25,0.12,0.24   c0.5-0.01,0.99,0.05,1.49-0.05c0.53-0.1,0.96-0.57,1.01-1.17c0.09-0.93,0.09-1.87-0.01-2.8c-0.07-0.65-0.6-1.17-1.19-1.2   c-0.41-0.02-0.82-0.01-1.23-0.02c-0.17-0.01-0.2,0.06-0.2,0.23C24.87,64.58,24.87,65.38,24.87,66.17z"></path>		<path class="st3" d="M71.24,66.17c0-1.14,0.01-2.27-0.01-3.41c0-0.22,0.06-0.27,0.25-0.26c0.71,0.01,1.42,0,2.13,0.01   c1.27,0.01,2.22,1.01,2.31,2.41c0.06,0.89,0.05,1.78-0.01,2.66c-0.08,1.18-1.05,2.21-2.16,2.26c-0.78,0.03-1.56,0-2.34,0.02   c-0.19,0-0.18-0.11-0.18-0.25C71.24,68.46,71.24,67.31,71.24,66.17z M72.26,66.18c0,0.79,0,1.59,0,2.38c0,0.1-0.05,0.24,0.13,0.24   c0.49-0.02,0.98,0.04,1.46-0.05c0.52-0.1,0.97-0.56,1.03-1.12c0.1-0.95,0.1-1.91,0-2.86c-0.07-0.65-0.6-1.16-1.2-1.2   c-0.4-0.02-0.8,0-1.21-0.02c-0.17-0.01-0.22,0.05-0.22,0.24C72.26,64.59,72.26,65.39,72.26,66.18z"></path>		<path class="st3" d="M39.36,66.18c0-1.14,0-2.27,0-3.41c0-0.21,0.04-0.27,0.24-0.27c0.71,0.01,1.42,0,2.13,0.01   c1.3,0.01,2.27,1.06,2.32,2.5c0.03,0.91,0.07,1.82-0.05,2.72c-0.14,1.14-1.05,2.06-2.09,2.11c-0.79,0.04-1.59,0.01-2.39,0.02   c-0.18,0-0.16-0.11-0.16-0.24C39.36,68.47,39.36,67.32,39.36,66.18z M40.38,66.17c0,0.8,0,1.59,0,2.39c0,0.1-0.04,0.25,0.13,0.24   c0.5-0.01,1,0.05,1.49-0.05c0.53-0.11,0.96-0.6,1.01-1.17c0.09-0.91,0.08-1.82,0-2.72c-0.07-0.71-0.6-1.24-1.24-1.28   c-0.38-0.02-0.77,0-1.16-0.02c-0.18-0.01-0.23,0.06-0.23,0.26C40.38,64.6,40.38,65.39,40.38,66.17z"></path>		<path class="st3" d="M11.78,66.17c0,1.14,0,2.27,0,3.41c0,0.2-0.04,0.29-0.24,0.27c-0.25-0.02-0.57,0.09-0.72-0.05   c-0.17-0.16-0.05-0.53-0.05-0.81c-0.01-0.7-0.01-1.4,0-2.1c0-0.18-0.04-0.25-0.21-0.24c-0.74,0.01-1.47,0.01-2.21,0   c-0.17,0-0.21,0.06-0.21,0.24c0.01,0.9,0,1.8,0.01,2.7c0,0.21-0.05,0.28-0.24,0.27c-0.25-0.02-0.58,0.09-0.72-0.05   c-0.16-0.16-0.05-0.53-0.05-0.81c0-2.04,0-4.09-0.01-6.13c0-0.31,0.08-0.39,0.34-0.36c0.16,0.02,0.33,0.02,0.49,0   c0.16-0.01,0.2,0.06,0.2,0.23c-0.01,0.88,0,1.76-0.01,2.64c0,0.23,0.06,0.28,0.26,0.28c0.71-0.01,1.42-0.01,2.13,0   c0.19,0,0.25-0.05,0.25-0.27c-0.01-0.88,0-1.76-0.01-2.64c0-0.18,0.03-0.26,0.21-0.24c0.26,0.03,0.59-0.12,0.76,0.06   c0.15,0.16,0.04,0.52,0.04,0.8C11.79,64.3,11.78,65.24,11.78,66.17z"></path>		<path class="st3" d="M54.52,66.16c0-1.14,0-2.27,0-3.41c0-0.2,0.05-0.26,0.23-0.25c0.2,0.02,0.39,0.01,0.59,0   c0.16-0.01,0.2,0.05,0.2,0.23c-0.01,0.88,0,1.76-0.01,2.64c0,0.23,0.06,0.28,0.26,0.28c0.71-0.01,1.42-0.01,2.13,0   c0.19,0,0.25-0.05,0.25-0.27c-0.01-0.88,0-1.76-0.01-2.64c0-0.18,0.03-0.26,0.21-0.24c0.2,0.02,0.4,0.02,0.59,0   c0.21-0.02,0.21,0.11,0.21,0.27c0,1.7,0,3.41,0,5.11c0,0.57-0.01,1.14,0,1.7c0.01,0.22-0.06,0.28-0.25,0.26   c-0.19-0.02-0.38-0.01-0.56,0c-0.16,0.01-0.2-0.06-0.2-0.23c0.01-0.9,0-1.8,0.01-2.7c0-0.23-0.06-0.29-0.26-0.28   c-0.7,0.01-1.4,0.02-2.11,0c-0.24-0.01-0.28,0.09-0.27,0.32c0.01,0.87,0,1.74,0.01,2.61c0,0.2-0.03,0.3-0.24,0.28   c-0.25-0.03-0.58,0.12-0.74-0.06c-0.15-0.16-0.04-0.52-0.04-0.79C54.52,68.05,54.52,67.1,54.52,66.16z"></path>		<path class="st3" d="M47.67,69.44c-0.5,0.71-1.97,0.55-2.44-0.01c-0.41-0.5-0.51-1.06-0.31-1.68c0.21-0.64,0.69-0.92,1.27-0.96   c0.41-0.03,0.82-0.02,1.23,0c0.22,0.01,0.29-0.07,0.26-0.3c-0.01-0.07,0-0.15,0-0.23c-0.01-0.37-0.12-0.55-0.44-0.63   c-0.39-0.09-0.83-0.19-1.14,0.08c-0.32,0.27-0.47,0.11-0.69-0.08c-0.38-0.33-0.39-0.38,0.03-0.7c0.49-0.38,1.06-0.39,1.63-0.34   c0.13,0.01,0.25,0.04,0.38,0.07c0.79,0.2,1.16,0.65,1.18,1.53c0.03,1.16,0.01,2.33,0.02,3.49c0,0.13-0.03,0.19-0.16,0.18   c-0.15-0.01-0.29,0-0.44,0C47.7,69.85,47.7,69.85,47.67,69.44z M47,67.63C47,67.63,47,67.63,47,67.63c-0.2,0.01-0.39,0-0.59,0.01   c-0.06,0-0.12,0.02-0.18,0.03c-0.32,0.08-0.49,0.26-0.5,0.55c-0.01,0.31,0.16,0.55,0.47,0.64c0.35,0.1,0.72,0.09,1.07-0.01   c0.39-0.11,0.46-0.49,0.4-1.1c-0.03-0.29-0.31-0.07-0.47-0.13C47.14,67.61,47.06,67.63,47,67.63z"></path>		<path class="st2" d="M63,69.44c-0.53,0.72-1.97,0.54-2.42,0c-0.42-0.49-0.51-1.06-0.33-1.68c0.17-0.58,0.68-0.96,1.29-0.99   c0.43-0.02,0.86-0.01,1.28,0c0.14,0,0.19-0.03,0.2-0.2c0.02-0.8-0.13-0.99-0.86-1.01c-0.34-0.01-0.69-0.04-0.95,0.31   c-0.06,0.09-0.12,0.04-0.17-0.01c-0.17-0.14-0.33-0.3-0.51-0.43c-0.13-0.1-0.09-0.17-0.01-0.27c0.3-0.38,0.7-0.54,1.13-0.59   c0.44-0.05,0.87-0.02,1.3,0.11c0.64,0.21,1,0.69,1.02,1.46c0.03,1.17,0.01,2.35,0.01,3.52c0,0.13-0.04,0.19-0.16,0.18   c-0.15-0.01-0.29,0-0.44,0C63.02,69.85,63.02,69.85,63,69.44z M62.29,67.63c-0.21,0.01-0.46-0.02-0.71,0.04   c-0.33,0.08-0.51,0.27-0.53,0.56c-0.02,0.3,0.16,0.55,0.48,0.64c0.35,0.1,0.71,0.09,1.07-0.01c0.33-0.09,0.51-0.55,0.4-1.09   c-0.06-0.29-0.32-0.07-0.48-0.13C62.46,67.61,62.39,67.63,62.29,67.63z"></path>		<path class="st2" d="M15.65,69.41c-0.66,0.64-1.78,0.66-2.4,0.09c-0.43-0.39-0.59-1.09-0.41-1.71c0.18-0.59,0.67-0.99,1.3-1.01   c0.42-0.02,0.84-0.02,1.26,0c0.19,0.01,0.24-0.06,0.22-0.26c-0.01-0.12,0-0.25-0.01-0.37c-0.01-0.24-0.12-0.44-0.32-0.49   c-0.51-0.12-1.03-0.26-1.47,0.22c-0.07,0.08-0.12,0.04-0.17-0.01c-0.17-0.14-0.33-0.3-0.51-0.43c-0.12-0.09-0.1-0.16-0.01-0.27   c0.25-0.3,0.55-0.48,0.91-0.55c0.48-0.1,0.95-0.08,1.43,0.05c0.71,0.19,1.1,0.67,1.12,1.48c0.03,1.17,0.01,2.35,0.01,3.52   c0,0.16-0.06,0.19-0.18,0.19c-0.15-0.01-0.29-0.02-0.44,0C15.7,69.89,15.54,69.83,15.65,69.41z M14.9,67.63   c-0.21,0.01-0.46-0.02-0.7,0.04c-0.34,0.08-0.53,0.28-0.53,0.58c0,0.3,0.18,0.54,0.5,0.62c0.33,0.09,0.66,0.08,0.99,0   c0.38-0.09,0.54-0.42,0.46-1.08c-0.05-0.36-0.34-0.08-0.5-0.16C15.06,67.61,14.99,67.63,14.9,67.63z"></path>		<path class="st2" d="M92.45,69.44c-0.47,0.71-2.01,0.58-2.49-0.08c-0.37-0.51-0.44-1.08-0.22-1.68c0.23-0.61,0.7-0.87,1.26-0.9   c0.43-0.03,0.86-0.01,1.28-0.01c0.15,0,0.2-0.05,0.19-0.21c-0.01-0.08,0-0.17,0-0.26c0-0.47-0.16-0.68-0.58-0.73   c-0.23-0.02-0.46-0.01-0.69-0.01c-0.12,0-0.27,0.02-0.33,0.12c-0.26,0.38-0.44,0.1-0.64-0.06c-0.01-0.01-0.01-0.01-0.02-0.02   c-0.39-0.33-0.39-0.38,0.02-0.7c0.5-0.38,1.06-0.39,1.63-0.34c0.14,0.01,0.29,0.05,0.43,0.08c0.75,0.2,1.13,0.7,1.14,1.55   c0.02,1.15,0,2.29,0.01,3.44c0,0.17-0.05,0.22-0.19,0.21c-0.14-0.01-0.27,0-0.41,0C92.48,69.85,92.48,69.85,92.45,69.44z    M91.78,67.63C91.78,67.63,91.78,67.63,91.78,67.63c-0.19,0-0.38,0-0.56,0.01c-0.06,0-0.12,0.02-0.18,0.03   c-0.33,0.07-0.51,0.27-0.52,0.56c-0.01,0.3,0.17,0.55,0.48,0.64c0.35,0.1,0.7,0.08,1.04,0c0.35-0.09,0.51-0.45,0.42-1.08   c-0.05-0.33-0.32-0.09-0.48-0.15C91.92,67.61,91.85,67.63,91.78,67.63z"></path>		<path class="st4" d="M32.96,65.14c0.45-0.5,0.96-0.68,1.55-0.54c0.73,0.17,1.24,0.83,1.25,1.65c0.02,1.14,0,2.27,0.01,3.41   c0,0.15-0.05,0.2-0.18,0.19c-0.2-0.01-0.39-0.01-0.59,0c-0.16,0.01-0.2-0.06-0.2-0.23c0.01-0.91,0-1.82,0-2.73   c0-0.16,0-0.33-0.03-0.48c-0.1-0.54-0.5-0.84-1.03-0.79c-0.46,0.05-0.8,0.46-0.8,1.04c-0.01,0.97-0.01,1.93,0,2.9   c0,0.22-0.04,0.31-0.25,0.28c-0.23-0.03-0.52,0.1-0.67-0.05c-0.15-0.16-0.04-0.49-0.05-0.74c0-1.39,0-2.78-0.01-4.18   c0-0.21,0.04-0.3,0.24-0.27c0.08,0.01,0.17,0,0.26,0C32.91,64.62,32.91,64.62,32.96,65.14z"></path>		<path class="st4" d="M79.36,65.66c0-0.96,0-1.91,0-2.87c0-0.21,0.02-0.32,0.25-0.29c0.23,0.03,0.54-0.08,0.67,0.05   c0.16,0.15,0.05,0.5,0.05,0.76c0.01,1.67,0,3.33,0,5c0,0.47,0.06,0.55,0.48,0.55c0.17,0,0.21,0.06,0.19,0.23c0,0.04,0,0.08,0,0.11   c0,0.68,0,0.68-0.61,0.64c-0.66-0.05-1.02-0.48-1.03-1.25C79.36,67.61,79.36,66.64,79.36,65.66z"></path>		<path class="st5" d="M66.2,65.16c0.71-0.66,1.39-0.77,2.03-0.36c0.16,0.1,0.24,0.19,0.07,0.37c-0.16,0.17-0.29,0.37-0.43,0.56   c-0.08,0.11-0.13,0.13-0.25,0.05c-0.69-0.43-1.4,0.03-1.41,0.91c-0.01,0.96-0.01,1.93,0,2.89c0,0.2-0.03,0.29-0.24,0.27   c-0.23-0.02-0.53,0.08-0.67-0.05c-0.16-0.15-0.05-0.5-0.05-0.76c-0.01-1.38,0-2.76-0.01-4.14c0-0.25,0.07-0.31,0.28-0.29   c0.14,0.02,0.29,0.02,0.44,0c0.2-0.03,0.28,0.06,0.25,0.28C66.19,64.97,66.2,65.04,66.2,65.16z"></path>		<path class="st5" d="M18.81,65.17c0.47-0.53,1-0.71,1.61-0.56c0.2,0.05,0.45,0.12,0.54,0.3c0.12,0.24-0.2,0.33-0.28,0.53   c-0.02,0.04-0.06,0.07-0.08,0.11c-0.13,0.26-0.27,0.3-0.54,0.15c-0.61-0.33-1.25,0.18-1.26,0.98c-0.01,0.96-0.01,1.91,0,2.87   c0,0.22-0.03,0.33-0.26,0.3c-0.22-0.03-0.5,0.1-0.64-0.05c-0.14-0.15-0.05-0.47-0.05-0.71c0-1.4,0-2.8-0.01-4.2   c0-0.23,0.06-0.31,0.26-0.28c0.08,0.01,0.15,0,0.23,0C18.79,64.62,18.79,64.62,18.81,65.17z"></path>		<path class="st6" d="M30.68,67.25c0,0.78-0.01,1.57,0,2.35c0,0.2-0.05,0.26-0.23,0.25c-0.19-0.02-0.38-0.01-0.56,0   c-0.14,0.01-0.17-0.06-0.17-0.2c0-1.62,0-3.23,0-4.85c0-0.15,0.05-0.2,0.18-0.19c0.2,0.01,0.39,0.01,0.59,0   c0.17-0.01,0.2,0.07,0.19,0.23C30.67,65.64,30.68,66.45,30.68,67.25z"></path>		<path class="st6" d="M77.11,67.23c0-0.78,0-1.57,0-2.35c0-0.19,0.03-0.28,0.22-0.26c0.24,0.03,0.54-0.11,0.69,0.05   c0.15,0.16,0.05,0.5,0.05,0.76c0.01,1.38,0,2.76,0.01,4.14c0,0.25-0.06,0.31-0.27,0.29c-0.22-0.03-0.51,0.1-0.64-0.05   c-0.15-0.16-0.05-0.48-0.05-0.74C77.1,68.45,77.11,67.84,77.11,67.23z"></path>		<path class="st2" d="M50.46,68.8c0.51,0,0.52,0,0.51,0.58c0,0.19,0,0.38-0.03,0.56c-0.09,0.59-0.4,0.92-0.92,1.02   c-0.13,0.02-0.21,0.01-0.25-0.17c-0.04-0.17,0.02-0.21,0.15-0.25c0.21-0.06,0.37-0.2,0.43-0.44c0.04-0.16,0.04-0.31-0.18-0.27   c-0.21,0.04-0.27-0.07-0.25-0.28c0.01-0.06,0-0.11,0-0.17C49.93,68.8,49.93,68.8,50.46,68.8z"></path>		<path class="st7" d="M30.21,63.57c-0.49,0-0.49,0-0.49-0.55c0-0.51,0-0.51,0.47-0.51c0.49,0,0.49,0,0.49,0.54   C30.68,63.57,30.68,63.57,30.21,63.57z"></path>		<path class="st7" d="M78.07,63.05c0,0.51,0,0.51-0.47,0.51c-0.49,0-0.49,0-0.49-0.55c0-0.51,0-0.51,0.45-0.51   c0.01,0,0.02,0,0.03,0C78.07,62.5,78.07,62.5,78.07,63.05z"></path>		<path class="st8" d="M95.25,34.08c1.16,0,2.09,1.03,2.09,2.3c0,1.27-0.94,2.31-2.09,2.31c-1.16,0-2.09-1.02-2.09-2.31   C93.16,35.1,94.08,34.08,95.25,34.08z M95.68,36.52c0.06-0.02,0.09-0.03,0.12-0.04c0.4-0.15,0.61-0.46,0.56-0.86   c-0.06-0.44-0.3-0.67-0.75-0.68c-0.39-0.01-0.79,0-1.18-0.01c-0.13,0-0.18,0.04-0.18,0.19c0.01,0.84,0,1.68,0,2.53   c0,0.14,0.02,0.2,0.17,0.2c0.14,0,0.2-0.04,0.19-0.21c-0.01-0.29,0-0.59,0-0.88c0-0.08-0.03-0.17,0.08-0.21   c0.23-0.09,0.66,0.03,0.82,0.26c0.16,0.24,0.33,0.49,0.45,0.75c0.13,0.28,0.31,0.33,0.6,0.24C96.27,37.37,96.09,36.88,95.68,36.52   z"></path>		<path class="st9" d="M85.16,66.19c0-0.79,0.01-1.57,0-2.36c0-0.2,0.03-0.29,0.24-0.28c0.4,0.02,0.8,0,1.21,0.02   c0.58,0.04,1.11,0.55,1.18,1.19c0.11,0.96,0.11,1.93,0,2.89c-0.06,0.56-0.52,1.01-1.04,1.1c-0.48,0.09-0.96,0.03-1.44,0.05   c-0.17,0.01-0.14-0.12-0.14-0.23C85.16,67.78,85.16,66.99,85.16,66.19z"></path>		<path class="st10" d="M47,67.63c0.07,0,0.14-0.02,0.2,0c0.16,0.06,0.44-0.16,0.47,0.13c0.06,0.6-0.01,0.99-0.4,1.1   c-0.35,0.1-0.71,0.11-1.07,0.01c-0.32-0.09-0.49-0.33-0.47-0.64c0.01-0.29,0.18-0.47,0.5-0.55c0.06-0.01,0.12-0.03,0.18-0.03   C46.6,67.63,46.8,67.64,47,67.63C47,67.63,47,67.63,47,67.63z"></path>		<path class="st10" d="M62.29,67.63c0.1,0,0.18-0.02,0.24,0c0.16,0.06,0.42-0.16,0.48,0.13c0.11,0.55-0.07,1.01-0.4,1.09   c-0.35,0.09-0.71,0.11-1.07,0.01c-0.32-0.09-0.49-0.34-0.48-0.64c0.01-0.29,0.2-0.48,0.53-0.56   C61.83,67.61,62.08,67.64,62.29,67.63z"></path>		<path class="st10" d="M14.9,67.63c0.09,0,0.16-0.02,0.21,0c0.16,0.08,0.45-0.2,0.5,0.16c0.08,0.66-0.08,0.99-0.46,1.08   c-0.33,0.08-0.66,0.09-0.99,0c-0.32-0.09-0.51-0.32-0.5-0.62c0-0.3,0.19-0.5,0.53-0.58C14.44,67.61,14.69,67.64,14.9,67.63z"></path>		<path class="st10" d="M91.78,67.63c0.07,0,0.14-0.02,0.2,0c0.16,0.06,0.43-0.17,0.48,0.15c0.09,0.62-0.07,0.99-0.42,1.08   c-0.34,0.09-0.69,0.1-1.04,0c-0.32-0.09-0.5-0.34-0.48-0.64c0.01-0.29,0.2-0.49,0.52-0.56c0.06-0.01,0.12-0.03,0.18-0.03   C91.4,67.63,91.59,67.64,91.78,67.63C91.78,67.63,91.78,67.63,91.78,67.63z"></path>		<path class="st7" d="M95.68,36.52c0.41,0.36,0.59,0.85,0.87,1.29c-0.28,0.09-0.46,0.04-0.6-0.24c-0.12-0.27-0.29-0.51-0.45-0.75   c-0.16-0.23-0.59-0.35-0.82-0.26c-0.1,0.04-0.08,0.13-0.08,0.21c0,0.29-0.01,0.59,0,0.88c0.01,0.16-0.05,0.21-0.19,0.21   c-0.14,0-0.17-0.07-0.17-0.2c0-0.84,0-1.68,0-2.53c0-0.15,0.05-0.2,0.18-0.19c0.39,0.01,0.79,0,1.18,0.01   c0.45,0.02,0.69,0.24,0.75,0.68c0.05,0.39-0.15,0.71-0.56,0.86C95.77,36.49,95.74,36.5,95.68,36.52z M95.13,36.21   c0.16-0.01,0.33,0,0.48-0.03c0.23-0.04,0.38-0.24,0.37-0.46c0-0.24-0.15-0.42-0.39-0.44c-0.22-0.02-0.44-0.02-0.66-0.02   c-0.34,0-0.34,0-0.34,0.36C94.6,36.21,94.6,36.21,95.13,36.21z"></path>		<path class="st10" d="M95.13,36.21c-0.53-0.01-0.53-0.01-0.53-0.6c0-0.36,0-0.36,0.34-0.36c0.22,0,0.44,0,0.66,0.02   c0.24,0.03,0.38,0.2,0.39,0.44c0,0.23-0.15,0.43-0.37,0.46C95.46,36.21,95.29,36.2,95.13,36.21z"></path>	</g></g></svg>