<svg xmlns="http://www.w3.org/2000/svg" xmlns:xlink="http://www.w3.org/1999/xlink" id="Layer_1" x="0px" y="0px" viewBox="0 0 100 100" style="enable-background:new 0 0 100 100;" xml:space="preserve"><style type="text/css">	.st0{fill:#E8373A;}	.st1{fill:#14A75D;}	.st2{fill:#E43A3C;}	.st3{fill:#9C6451;}	.st4{fill:#5A895F;}	.st5{fill:#FFFEFE;}</style><g>	<g>		<path class="st0" d="M77.92,67.25c-0.41,0.56-0.76,1.08-1.13,1.57c-1.3,1.72-2.82,3.19-4.71,4.24c-1.49,0.83-3.08,1.31-4.81,1.28   c-2.33-0.03-4.14-0.98-5.33-3.02c-0.3-0.51-0.32-0.51-0.7-0.07c-3.02,3.48-7.89,3.72-10.84,2.66c-1.39-0.5-2.42-1.42-2.92-2.83   c-0.17-0.47-0.3-0.36-0.54-0.07c-0.86,1.02-1.88,1.87-3.1,2.44c-2.07,0.97-4.22,1.2-6.41,0.55c-2.41-0.71-3.7-2.84-3.4-5.39   c0.19-1.6,0.75-3.1,1.2-4.63c0.94-3.27,1.93-6.53,2.88-9.8c0.22-0.76,0.34-1.55,0.21-2.35c-0.18-1.11-1.06-1.59-2.11-1.15   c-0.8,0.34-1.4,0.92-1.95,1.55c-0.64,0.73-1.2,1.52-1.67,2.37c-0.16,0.29-0.34,0.39-0.64,0.16c-0.28-0.21-0.6-0.38-0.9-0.56   c-0.18-0.1-0.26-0.2-0.13-0.42c1.6-2.87,3.75-5.13,6.96-6.16c1.73-0.56,3.49-0.61,5.24-0.03c1.96,0.65,3.07,2.2,3.08,4.28   c0,1.37-0.31,2.69-0.7,3.99c-1.11,3.71-2.22,7.42-3.32,11.14c-0.24,0.81-0.39,1.63-0.33,2.48c0.09,1.19,0.93,1.75,2.06,1.37   c1.07-0.36,1.7-1.22,2.41-2.02c1.07-1.21,1.23-2.74,1.54-4.21c0.86-4.06,1.7-8.12,2.55-12.18c0.14-0.65,0.14-0.66-0.52-0.66   c-0.57,0-1.13-0.01-1.7,0c-0.28,0.01-0.37-0.1-0.32-0.37c0.11-0.59,0.21-1.18,0.29-1.77c0.04-0.28,0.21-0.32,0.45-0.32   c0.65,0.01,1.29-0.02,1.94,0c0.4,0.02,0.58-0.08,0.67-0.53c0.55-2.76,1.14-5.5,1.69-8.25c0.09-0.46,0.27-0.61,0.73-0.58   c0.72,0.04,1.45,0,2.18,0.02c2.43,0.05,4.21,2.21,3.78,4.6c-0.25,1.41-0.54,2.82-0.84,4.23c-0.09,0.43,0.03,0.52,0.44,0.51   c1.34-0.02,2.68,0,4.02-0.01c0.38,0,0.49,0.12,0.41,0.48c-0.1,0.51-0.2,1.02-0.23,1.53c-0.02,0.4-0.21,0.46-0.55,0.46   c-1.41-0.01-2.81,0.01-4.22-0.01c-0.37,0-0.54,0.09-0.62,0.48c-0.83,4.1-1.67,8.19-2.51,12.29c-0.26,1.25-0.54,2.49-0.73,3.75   c-0.06,0.42-0.09,0.84-0.01,1.25c0.3,1.43,1.54,2.05,3.13,1.52c1.3-0.43,2.19-1.39,2.96-2.47c0.11-0.15,0.06-0.31,0.05-0.47   c-0.47-4.28,0.56-8.24,2.57-11.98c1.43-2.66,3.3-4.98,5.75-6.78c2.58-1.89,5.41-2.93,8.67-2.35c1.63,0.29,2.92,1.09,3.78,2.53   c0.07,0.12,0.11,0.31,0.29,0.28c0.16-0.03,0.17-0.22,0.21-0.36c0.24-0.74,0.48-1.47,0.71-2.22c0.09-0.28,0.22-0.41,0.54-0.4   c1.02,0.02,2.03-0.03,3.02,0.29c1.87,0.6,2.88,2.34,2.43,4.26c-0.98,4.16-1.97,8.32-2.95,12.48c-0.3,1.29-0.61,2.58-0.89,3.87   c-0.08,0.36-0.1,0.74-0.1,1.11c0,1.41,1.17,2.08,2.41,1.38c1.02-0.58,1.67-1.5,2.25-2.48c0.25-0.43,0.48-0.88,0.7-1.33   c0.1-0.22,0.21-0.3,0.44-0.19c0.38,0.18,0.76,0.35,1.15,0.52c0.15,0.07,0.24,0.15,0.16,0.33c-1.47,3.08-3.33,5.78-6.8,6.86   c-1.7,0.53-3.44,0.58-5.13-0.09c-1.46-0.58-2.14-1.75-2.3-3.25c-0.1-0.97,0-1.94,0.14-2.9C77.97,67.61,78.02,67.49,77.92,67.25z    M68.91,65.35c0.01,0.87,0.05,1.57,0.17,2.25c0.39,2.12,2.14,3.02,3.97,1.89c2.88-1.78,4.8-4.4,5.77-7.62   c0.75-2.48,1.24-5.04,1.88-7.56c0.28-1.08,0.08-2.09-0.33-3.06c-0.49-1.15-1.29-1.95-2.63-2.06c-1.41-0.11-2.49,0.51-3.44,1.46   c-1.4,1.39-2.26,3.13-3.02,4.91C69.93,58.75,69.07,62.06,68.91,65.35z"></path>		<path class="st0" d="M25.32,57.81c0-0.03,0.01-0.06,0.04-0.08c0.27-0.06,0.28-0.32,0.37-0.52c0.5-1.13,1.05-2.24,1.53-3.37   c0.55-1.3,1.21-2.56,1.8-3.84c0.64-1.38,1.26-2.78,1.9-4.16c0.64-1.39,1.44-2.69,2.33-3.92c0.79-1.09,1.53-2.22,2.46-3.21   c0.28-0.3,0.64-0.58,0.71-1.05c0,0,0.01-0.02,0.01-0.02c0.26-0.02,0.37-0.24,0.52-0.39c0.27-0.27,0.48-0.59,0.84-0.78   c0.09,0.25-0.01,0.44-0.1,0.63c-0.14,0.31-0.29,0.61-0.43,0.92c-0.7,1.57-1.34,3.17-2.11,4.71c-0.89,1.8-1.66,3.65-2.56,5.44   c-0.71,1.41-1.37,2.86-2.05,4.29c-0.54,1.13-1.08,2.25-1.61,3.38c-0.66,1.42-1.31,2.85-1.98,4.27c-0.69,1.45-1.43,2.87-2.09,4.33   c-0.4,0.89-0.85,1.75-1.22,2.66c-0.4,0.98-0.9,1.91-1.36,2.86c-0.69,1.43-1.39,2.85-2.08,4.28c-0.1,0.22-0.24,0.31-0.49,0.31   c-1.3-0.01-2.61-0.02-3.91,0c-0.34,0-0.47-0.18-0.54-0.44c-0.15-0.59-0.32-1.18-0.42-1.78c-0.24-1.49-0.66-2.94-0.94-4.43   c-0.27-1.46-0.69-2.9-1.01-4.35c-0.32-1.44-0.61-2.89-0.93-4.34c-0.25-1.14-0.55-2.28-0.8-3.42c-0.58-2.63-1.14-5.27-1.72-7.91   c-0.37-1.68-0.74-3.35-1.13-5.03c-0.28-1.19-0.43-2.41-0.94-3.54c-0.4-0.89-1.01-1.53-2-1.71c-0.57-0.1-1.14-0.2-1.71-0.28   c-0.25-0.04-0.38-0.14-0.38-0.41c0.01-0.47,0.01-0.94,0-1.41c0-0.27,0.15-0.34,0.4-0.37c0.9-0.11,1.8-0.06,2.69-0.04   c1.13,0.03,2.26,0.04,3.39,0.04c1.4,0,2.64,0.43,3.79,1.2c1.49,1,2.4,2.38,2.87,4.09c0.51,1.88,0.76,3.81,1.15,5.71   c0.63,3.13,1.28,6.26,1.87,9.4c0.42,2.23,0.89,4.44,1.33,6.66c0.2,1.01,0.39,2.02,0.6,3.02c0.03,0.15,0.09,0.36,0.24,0.39   c0.15,0.03,0.27-0.15,0.34-0.29c0.24-0.5,0.49-1.01,0.73-1.52c0.72-1.56,1.44-3.12,2.13-4.69C25.04,58.69,25.36,58.31,25.32,57.81   z"></path>		<path class="st1" d="M80.59,29.33c0.11,0.01,0.22,0.01,0.34,0.02c0.01,0.23,0.19,0.2,0.32,0.18c0.5-0.09,1,0.02,1.5,0.01   c0.13,0,0.25-0.02,0.36-0.1c0.47,0,0.94,0,1.41,0c0.05,0.03,0.11,0.08,0.16,0.08c1.18,0.06,2.36-0.03,3.53-0.16   c0.84-0.09,1.68-0.22,2.51-0.32c0.41-0.05,0.8-0.15,1.22-0.17c0.55-0.03,1.16-0.08,1.64-0.48c0.08-0.02,0.15-0.04,0.23-0.05   c0.33-0.02,0.65-0.05,1.09-0.08c-0.65,0.49-1.31,0.66-1.95,0.91c-0.87,0.34-1.72,0.71-2.62,0.94c-0.63,0.16-1.22,0.53-1.86,0.61   c-1.49,0.2-2.91,0.72-4.42,0.78c-1.15,0.04-2.29,0.29-3.45,0.27c-0.72-0.01-1.44,0.1-2.15,0.03c-0.66-0.06-1.31-0.03-1.97-0.1   c-1.32-0.14-2.65-0.3-3.98-0.32c-0.08-0.01-0.16-0.02-0.25-0.03c-0.24-0.06-0.43-0.24-0.69-0.28c-1.42-0.22-2.86-0.37-4.24-0.79   c-0.41-0.12-0.82-0.04-1.23-0.05c-0.08-0.01-0.15-0.03-0.23-0.04c-0.22-0.27-0.55-0.11-0.81-0.19c-1.39-0.42-2.83-0.64-4.26-0.85   c-1.55-0.23-3.12-0.42-4.69-0.44c-0.54-0.01-1.08-0.08-1.62-0.03c-0.75,0.07-1.5,0.22-2.25,0.27c-1.81,0.11-3.51,0.68-5.16,1.36   c-1.41,0.58-2.76,1.32-4.04,2.16c-0.29,0.19-0.61,0.38-0.77,0.73c-0.01,0.03-0.02,0.05-0.06,0.04c-0.08,0.01-0.17,0-0.23,0.04   c-0.68,0.42-1.27,0.97-1.88,1.48c-0.08,0.07-0.09,0.17-0.07,0.27c0,0.03-0.02,0.05-0.06,0.06c-0.02,0-0.03,0.01-0.04,0.04   c0,0.03-0.02,0.05-0.06,0.06c-0.46-0.02-0.62,0.4-0.9,0.63c-0.08,0.06-0.13,0.15-0.24,0.1c-0.09-0.04-0.06-0.14-0.09-0.21   c-0.22-0.57,0.04-0.97,0.45-1.33c0.19-0.17,0.4-0.34,0.31-0.65c0-0.03,0.01-0.04,0.04-0.04c0.53-0.23,0.8-0.74,1.18-1.13   c0.57-0.59,1.04-1.3,1.67-1.8c0.72-0.57,1.34-1.25,2.14-1.75c1-0.62,1.95-1.32,3.02-1.83c0.42-0.2,0.97-0.25,1.25-0.73   c0.04-0.01,0.09-0.02,0.13-0.03c0.24,0.05,0.47,0.01,0.7-0.08c1.07-0.44,2.21-0.67,3.35-0.79c1.13-0.12,2.26-0.11,3.4-0.09   c1.51,0.02,3,0.14,4.47,0.45c1.75,0.36,3.53,0.55,5.24,1.06c1.36,0.4,2.78,0.49,4.13,0.91c0.54,0.17,1.14,0.24,1.73,0.29   c0.87,0.08,1.72,0.4,2.59,0.56c0.59,0.1,1.18,0.31,1.79,0.13c0.08,0.01,0.16,0.02,0.24,0.03c0.03,0.1,0.11,0.17,0.21,0.17   C77.99,29.07,79.27,29.54,80.59,29.33z"></path>		<path class="st2" d="M46.39,41.3c-0.24-0.15-0.39-0.01-0.55,0.05c-1.49,0.57-3.01,1.05-4.62,0.77c-1.61-0.29-1.6-0.02-1.31-1.76   c0.43-2.58,2.53-4.09,5.06-3.76c2.45,0.32,3.86,2.43,3.21,4.82c-0.61,2.25-2.81,3.88-5.13,3.82c-1.29-0.04-2.67-1.13-2.92-2.35   c1.73,0.49,3.34,0.15,4.88-0.65C45.49,41.99,46,41.75,46.39,41.3z M46.48,41.21c-0.01-0.01-0.02-0.02-0.03-0.03   c-0.01,0.02-0.03,0.04-0.03,0.06c0,0.01,0.02,0.02,0.03,0.03C46.45,41.25,46.46,41.23,46.48,41.21z"></path>		<path class="st3" d="M25.32,57.81c0.04,0.5-0.28,0.87-0.46,1.29c-0.69,1.57-1.42,3.13-2.13,4.69c-0.23,0.51-0.48,1.01-0.73,1.52   c-0.07,0.15-0.19,0.32-0.34,0.29c-0.15-0.03-0.21-0.24-0.24-0.39c-0.21-1.01-0.4-2.01-0.6-3.02c-0.44-2.22-0.91-4.44-1.33-6.66   c-0.59-3.14-1.23-6.27-1.87-9.4c-0.39-1.9-0.63-3.83-1.15-5.71c-0.47-1.71-1.38-3.09-2.87-4.09c-1.15-0.77-2.39-1.2-3.79-1.2   c-1.13,0-2.26-0.01-3.39-0.04c-0.89-0.02-1.8-0.07-2.69,0.04c-0.25,0.03-0.4,0.1-0.4,0.37c0,0.47,0,0.94,0,1.41   c0,0.26,0.13,0.37,0.38,0.41c0.57,0.08,1.14,0.17,1.71,0.28c0.99,0.18,1.6,0.82,2,1.71c0.51,1.13,0.67,2.35,0.94,3.54   c0.39,1.67,0.76,3.35,1.13,5.03c0.58,2.64,1.14,5.27,1.72,7.91c0.25,1.14,0.55,2.28,0.8,3.42c0.32,1.44,0.6,2.89,0.93,4.34   c0.33,1.45,0.74,2.89,1.01,4.35c0.28,1.48,0.7,2.94,0.94,4.43c0.1,0.6,0.26,1.19,0.42,1.78c0.07,0.26,0.2,0.45,0.54,0.44   c1.3-0.02,2.61-0.01,3.91,0c0.25,0,0.38-0.09,0.49-0.31c0.69-1.43,1.39-2.85,2.08-4.28c0.46-0.95,0.97-1.88,1.36-2.86   c0.37-0.91,0.82-1.77,1.22-2.66c0.65-1.46,1.4-2.88,2.09-4.33c0.67-1.42,1.31-2.85,1.98-4.27c0.53-1.13,1.08-2.25,1.61-3.38   c0.68-1.43,1.33-2.88,2.05-4.29c0.9-1.79,1.67-3.65,2.56-5.44c0.76-1.54,1.41-3.14,2.11-4.71c0.14-0.31,0.29-0.61,0.43-0.92   c0.09-0.19,0.2-0.38,0.1-0.63c-0.35,0.19-0.57,0.51-0.84,0.78c-0.15,0.16-0.26,0.38-0.52,0.39c0.37-0.49,0.75-0.99,1.12-1.48   c0.15-0.09,0.3-0.17,0.45-0.26c0.08-0.05,0.14-0.16,0.24-0.09c0.09,0.06,0.06,0.17,0.03,0.26c-0.08,0.27-0.17,0.54-0.26,0.81   c-0.53,0.76-0.81,1.64-1.18,2.48c-1.39,3.16-2.89,6.27-4.37,9.39c-1.45,3.06-2.89,6.13-4.33,9.19c-1.37,2.89-2.74,5.77-4.11,8.65   c-1.22,2.58-2.45,5.16-3.66,7.74c-0.14,0.29-0.29,0.41-0.62,0.4c-1.34-0.02-2.68-0.03-4.02,0.01c-0.4,0.01-0.52-0.14-0.6-0.49   c-1.08-4.93-2.18-9.86-3.27-14.79c-1.06-4.79-2.12-9.58-3.19-14.37c-0.36-1.64-0.73-3.27-1.12-4.91   c-0.15-0.65-0.41-1.26-0.89-1.75c-0.66-0.66-1.52-0.79-2.39-0.92c-0.38-0.06-0.89,0.09-1.09-0.2c-0.18-0.25-0.06-0.71-0.07-1.09   c-0.01-1.28-0.01-1.28,1.27-1.28c1.62,0,3.23,0.04,4.85-0.01c3.76-0.12,6.81,2.36,7.56,6.21c1.05,5.45,2.14,10.89,3.22,16.33   c0.48,2.42,0.96,4.84,1.44,7.26c0.01,0.06,0.01,0.13,0.03,0.19c0.05,0.13,0.04,0.32,0.22,0.33c0.16,0.01,0.17-0.17,0.23-0.28   c0.55-1.18,1.09-2.37,1.66-3.55C24.19,60.23,24.67,58.98,25.32,57.81z"></path>		<path class="st4" d="M76.23,28.84c-0.61,0.17-1.21-0.03-1.79-0.13c-0.87-0.15-1.72-0.48-2.59-0.56c-0.59-0.05-1.19-0.12-1.73-0.29   c-1.36-0.42-2.77-0.51-4.13-0.91c-1.71-0.51-3.5-0.7-5.24-1.06c-1.47-0.3-2.96-0.42-4.47-0.45c-1.14-0.02-2.27-0.03-3.4,0.09   c-1.14,0.12-2.28,0.35-3.35,0.79c-0.24,0.1-0.46,0.13-0.7,0.08c1.18-0.51,2.41-0.8,3.67-0.96c3.07-0.41,6.11-0.11,9.15,0.44   c4.43,0.8,8.78,1.98,13.22,2.71C75.32,28.67,75.79,28.67,76.23,28.84z"></path>		<path class="st4" d="M72.49,31.4c1.33,0.02,2.66,0.18,3.98,0.32c0.66,0.07,1.31,0.04,1.97,0.1c0.71,0.06,1.43-0.04,2.15-0.03   c1.16,0.02,2.3-0.23,3.45-0.27c1.52-0.05,2.94-0.57,4.42-0.78c0.64-0.09,1.23-0.45,1.86-0.61c0.91-0.24,1.76-0.61,2.62-0.94   c0.64-0.25,1.3-0.41,1.95-0.91c-0.44,0.03-0.77,0.05-1.09,0.08c0.98-0.26,1.96-0.52,3.08-0.81c-0.78,0.55-1.53,0.84-2.26,1.17   c-6.19,2.77-12.67,3.77-19.42,3.06C74.3,31.67,73.38,31.63,72.49,31.4z"></path>		<path class="st4" d="M42.25,33.2c0.16-0.35,0.48-0.54,0.77-0.73c1.28-0.84,2.63-1.58,4.04-2.16c1.65-0.68,3.35-1.25,5.16-1.36   c0.75-0.05,1.5-0.2,2.25-0.27c0.54-0.05,1.08,0.02,1.62,0.03c1.57,0.02,3.13,0.22,4.69,0.44c1.43,0.21,2.87,0.43,4.26,0.85   c0.27,0.08,0.59-0.08,0.81,0.19c-1.3-0.12-2.55-0.5-3.84-0.68c-2.06-0.29-4.11-0.59-6.2-0.64c-4.92-0.11-9.34,1.33-13.31,4.19   C42.42,33.12,42.36,33.22,42.25,33.2z"></path>		<path class="st3" d="M36.46,37.66c-0.06,0.46-0.43,0.75-0.71,1.05c-0.93,0.99-1.67,2.12-2.46,3.21c-0.9,1.23-1.69,2.54-2.33,3.92   c-0.64,1.38-1.26,2.78-1.9,4.16c-0.59,1.28-1.25,2.54-1.8,3.84c-0.49,1.14-1.03,2.24-1.53,3.37c-0.09,0.2-0.1,0.45-0.37,0.52   c0.26-0.83,0.69-1.59,1.05-2.38C28,51.89,29.53,48.4,31.22,45C32.57,42.29,34.41,39.89,36.46,37.66z"></path>		<path class="st4" d="M48.69,26.44c-0.27,0.48-0.83,0.53-1.25,0.73c-1.08,0.51-2.02,1.21-3.02,1.83c-0.79,0.5-1.42,1.18-2.14,1.75   c-0.63,0.5-1.1,1.21-1.67,1.8c-0.38,0.39-0.65,0.9-1.18,1.13c0.76-1.1,1.7-2.06,2.66-2.97c1.51-1.44,3.16-2.69,5.04-3.61   C47.64,26.85,48.15,26.6,48.69,26.44z"></path>		<path class="st4" d="M93.58,28.4c-0.48,0.39-1.09,0.45-1.64,0.48c-0.42,0.02-0.81,0.12-1.22,0.17c-0.84,0.1-1.67,0.23-2.51,0.32   c-1.17,0.13-2.35,0.22-3.53,0.16c-0.06,0-0.11-0.05-0.16-0.08c1.14-0.07,2.27-0.13,3.41-0.22c1.81-0.14,3.6-0.43,5.38-0.8   C93.4,28.4,93.48,28.34,93.58,28.4z"></path>		<path class="st4" d="M38.06,36.88c0.09-0.27,0.17-0.54,0.26-0.81c0.03-0.09,0.05-0.2-0.03-0.26c-0.1-0.07-0.17,0.04-0.24,0.09   c-0.15,0.09-0.3,0.18-0.45,0.26c0.49-0.89,1.12-1.68,1.8-2.44c0.09,0.31-0.12,0.48-0.31,0.65c-0.4,0.36-0.67,0.76-0.45,1.33   c0.03,0.07,0,0.17,0.09,0.21c0.11,0.05,0.16-0.04,0.24-0.1c0.28-0.23,0.44-0.65,0.9-0.63C39.28,35.77,38.7,36.35,38.06,36.88z"></path>		<path class="st4" d="M66.08,30.25c0.41,0.02,0.82-0.07,1.23,0.05c1.38,0.42,2.82,0.56,4.24,0.79c0.26,0.04,0.45,0.22,0.69,0.28   c-0.63,0-1.24-0.15-1.86-0.27C68.95,30.81,67.5,30.63,66.08,30.25z"></path>		<path class="st4" d="M80.59,29.33c-1.32,0.21-2.6-0.26-3.9-0.29c-0.1,0-0.18-0.07-0.21-0.17C77.85,29.02,79.22,29.18,80.59,29.33z   "></path>		<path class="st4" d="M40.01,35.03c-0.01-0.1-0.01-0.2,0.07-0.27c0.61-0.52,1.19-1.06,1.88-1.48c0.06-0.04,0.15-0.03,0.23-0.04   C41.46,33.84,40.74,34.43,40.01,35.03z"></path>		<path class="st4" d="M83.11,29.44c-0.11,0.08-0.23,0.09-0.36,0.1c-0.5,0.01-1-0.1-1.5-0.01c-0.12,0.02-0.31,0.05-0.32-0.18   C81.66,29.3,82.38,29.36,83.11,29.44z"></path>		<path class="st4" d="M39.92,35.12c0-0.02,0.01-0.03,0.04-0.04c0,0,0,0.03,0,0.03L39.92,35.12z"></path>		<path class="st5" d="M46.48,41.21c-0.01,0.02-0.02,0.04-0.03,0.06c-0.01-0.01-0.03-0.02-0.03-0.03c0.01-0.02,0.02-0.04,0.03-0.06   C46.45,41.19,46.46,41.2,46.48,41.21z"></path>	</g></g></svg>