<svg xmlns="http://www.w3.org/2000/svg" xmlns:xlink="http://www.w3.org/1999/xlink" id="Layer_1" x="0px" y="0px" viewBox="0 0 100 100" style="enable-background:new 0 0 100 100;" xml:space="preserve"><style type="text/css">	.st0{fill:#4CB74A;}	.st1{fill:#0A0909;}	.st2{fill:#060606;}</style><g>	<g>		<path class="st0" d="M42.35,46.03c4.54,6.26,11.03,6.03,14.92-0.53c5.14,8.43,10.22,16.76,15.5,25.43   c1.58-4.5,3.04-8.66,4.5-12.82c3.03-8.66,6.08-17.32,9.04-26.01c0.43-1.27,1.04-1.7,2.36-1.6c1.75,0.13,3.52,0.03,5.28,0.03   c2.43,0,2.43,0,1.68,2.2c-4.48,13.01-8.97,26.03-13.45,39.04c-0.99,2.87-2,5.73-2.93,8.62c-0.34,1.06-0.8,1.58-2.04,1.51   c-2.21-0.12-4.44-0.1-6.65,0c-1.21,0.06-1.86-0.4-2.48-1.4c-5.51-9.02-11.08-18-16.64-26.99c-0.43-0.7-0.89-1.39-1.35-2.09   c-0.79,0.44-1,1.16-1.36,1.75c-5.57,8.98-11.14,17.96-16.64,26.99c-0.76,1.24-1.51,1.88-3.06,1.76c-2.01-0.16-4.05-0.14-6.06,0   c-1.38,0.09-1.9-0.42-2.32-1.67c-4.73-14.09-9.52-28.16-14.3-42.23c-0.81-2.38-1.61-4.76-2.53-7.46c3.11,0,6-0.02,8.89,0.01   c1.02,0.01,0.89,1,1.09,1.59c4.34,12.52,8.65,25.04,12.97,37.57c0.08,0.24,0.19,0.46,0.44,1.08   C32.33,62.43,37.29,54.32,42.35,46.03z"></path>		<path class="st1" d="M49.81,48.95c-3.9,0.01-6.96-2.96-6.99-6.78c-0.03-3.85,2.99-6.93,6.84-6.96c4.02-0.03,7.13,2.99,7.11,6.9   C56.74,45.96,53.72,48.94,49.81,48.95z"></path>		<path class="st2" d="M12.57,29.15c-2.82,0-5.61,0.07-8.39-0.03c-1.75-0.06-1.34-1.7-1.87-2.86c2.96,0,5.75-0.03,8.54,0.01   C11.93,26.29,11.93,26.36,12.57,29.15z"></path>		<path class="st2" d="M97.69,26.26c-0.07,2.36-1.11,3.11-3.23,2.94c-2.25-0.19-4.54-0.04-6.83-0.04c0.59-2.89,0.59-2.89,3.37-2.89   C93.21,26.26,95.42,26.26,97.69,26.26z"></path>	</g></g></svg>